<?xml version="1.0" standalone="no"?>
<!DOCTYPE svg PUBLIC "-//W3C//DTD SVG 20010904//EN"
 "http://www.w3.org/TR/2001/REC-SVG-20010904/DTD/svg10.dtd">
<svg version="1.0" xmlns="http://www.w3.org/2000/svg"
 width="1024.000000pt" height="1024.000000pt" viewBox="0 0 1024.000000 1024.000000"
 preserveAspectRatio="xMidYMid meet">
<metadata>
Created by potrace 1.11, written by Peter Selinger 2001-2013
</metadata>
<g transform="translate(0.000000,1024.000000) scale(0.100000,-0.100000)"
fill="#000000" stroke="none">
<path d="M2476 10229 c-500 -26 -842 -86 -1111 -196 -486 -198 -886 -577
-1115 -1055 -147 -307 -211 -657 -240 -1318 -16 -344 -8 -5194 8 -5370 48
-521 127 -837 278 -1116 196 -363 516 -684 874 -877 291 -157 599 -232 1145
-279 182 -16 4913 -23 5340 -9 426 15 611 34 855 87 561 123 1012 432 1335
914 219 327 330 705 377 1286 19 233 19 5419 0 5644 -26 311 -82 622 -147 818
-99 297 -269 571 -502 808 -114 117 -191 180 -338 277 -379 251 -775 354
-1485 387 -252 12 -5045 11 -5274 -1z m1355 -1919 c345 -19 628 -90 894 -223
184 -92 339 -227 464 -402 79 -113 183 -322 216 -439 99 -347 59 -886 -95
-1280 -175 -447 -552 -892 -940 -1108 -130 -73 -242 -122 -349 -155 -50 -15
-91 -30 -91 -33 0 -3 32 -30 71 -60 123 -95 250 -254 314 -394 87 -188 119
-361 112 -586 -9 -240 -59 -433 -172 -665 -191 -389 -520 -708 -916 -889 -549
-250 -1253 -182 -1613 155 -164 153 -262 360 -286 607 -33 330 86 676 288 836
215 171 454 163 638 -21 l66 -66 -34 -18 c-41 -21 -118 -97 -159 -156 -48 -69
-117 -222 -140 -308 -31 -115 -37 -305 -14 -392 21 -76 77 -166 135 -211 129
-104 329 -128 518 -63 311 108 580 504 647 954 67 457 -8 764 -235 954 -141
119 -295 175 -518 192 -62 5 -115 11 -117 13 -3 2 0 20 4 39 5 19 21 87 36
152 l27 117 85 0 c245 0 538 89 746 227 85 56 245 208 330 313 204 252 376
620 436 932 43 221 49 462 20 713 -34 281 -193 538 -429 693 -229 150 -592
182 -965 87 -292 -75 -511 -191 -750 -396 -302 -258 -510 -610 -599 -1010 -39
-176 -49 -297 -44 -527 5 -187 8 -215 32 -295 14 -48 40 -115 56 -147 l30 -60
-22 0 c-67 0 -254 23 -326 40 -228 54 -378 154 -452 300 -110 219 -114 567 -8
870 185 531 653 1007 1316 1339 432 217 976 354 1477 374 39 2 86 4 105 5 19
1 114 -3 211 -8z m3919 0 c536 -47 894 -299 1015 -715 14 -48 29 -136 35 -196
31 -333 -86 -673 -288 -833 -215 -171 -454 -163 -638 21 l-66 66 34 18 c41 21
118 97 159 156 48 69 117 222 140 308 30 112 37 298 15 385 -67 260 -340 381
-646 285 -287 -91 -556 -458 -639 -873 -23 -111 -41 -292 -41 -404 0 -271 91
-493 260 -635 141 -119 295 -175 518 -192 62 -5 115 -11 117 -13 3 -2 0 -20
-4 -39 -5 -19 -21 -87 -36 -151 l-27 -118 -85 0 c-264 0 -583 -104 -789 -258
-84 -63 -240 -220 -316 -318 -188 -245 -350 -601 -407 -894 -43 -226 -50 -461
-20 -715 48 -403 341 -731 724 -810 370 -76 863 32 1212 266 358 240 609 561
746 955 82 236 111 443 105 742 -5 187 -8 215 -32 295 -14 48 -40 115 -56 147
l-30 60 29 0 c66 0 242 -22 319 -40 227 -54 378 -154 452 -300 115 -227 113
-587 -5 -906 -191 -514 -654 -978 -1303 -1303 -712 -357 -1649 -475 -2312
-290 -393 109 -647 273 -837 542 -70 100 -158 268 -197 375 -56 158 -70 256
-70 512 -1 257 9 347 66 580 92 384 308 752 621 1060 216 213 504 387 759 461
43 13 78 26 78 29 0 4 -20 21 -46 39 -61 45 -169 153 -227 228 -102 133 -181
326 -213 518 -21 131 -14 368 15 507 106 496 448 959 898 1216 276 158 501
220 873 240 14 1 77 -3 140 -8z"/>
</g>
</svg>
