<?xml version="1.0" encoding="UTF-8" standalone="no"?>
<!-- Created with Inkscape (http://www.inkscape.org/) -->

<svg
   xmlns:dc="http://purl.org/dc/elements/1.1/"
   xmlns:cc="http://creativecommons.org/ns#"
   xmlns:rdf="http://www.w3.org/1999/02/22-rdf-syntax-ns#"
   xmlns:svg="http://www.w3.org/2000/svg"
   xmlns="http://www.w3.org/2000/svg"
   xmlns:sodipodi="http://sodipodi.sourceforge.net/DTD/sodipodi-0.dtd"
   xmlns:inkscape="http://www.inkscape.org/namespaces/inkscape"
   width="179"
   height="34"
   viewBox="0 0 179 34"
   id="svg2"
   version="1.1"
   inkscape:version="0.91 r13725"
   sodipodi:docname="BracingEffect Title.svg"
   inkscape:export-filename="/Users/ratface/Sites/bracingeffect.github.io/images/bracingeffect-logo.png"
   inkscape:export-xdpi="90"
   inkscape:export-ydpi="90">
  <sodipodi:namedview
     id="base"
     pagecolor="#c4c4c4"
     bordercolor="#666666"
     borderopacity="1.0"
     inkscape:pageopacity="0"
     inkscape:pageshadow="2"
     inkscape:zoom="4.0000001"
     inkscape:cx="87.567029"
     inkscape:cy="18.421493"
     inkscape:document-units="px"
     inkscape:current-layer="g4549"
     showgrid="false"
     units="px"
     showguides="true"
     inkscape:guide-bbox="true"
     inkscape:window-width="1440"
     inkscape:window-height="851"
     inkscape:window-x="0"
     inkscape:window-y="1"
     inkscape:window-maximized="1"
     objecttolerance="5"
     guidetolerance="5"
     inkscape:snap-bbox="true"
     inkscape:object-paths="true"
     inkscape:snap-intersection-paths="false"
     inkscape:object-nodes="true"
     inkscape:snap-smooth-nodes="true"
     inkscape:snap-midpoints="false"
     inkscape:snap-object-midpoints="true"
     inkscape:snap-center="true"
     inkscape:snap-bbox-midpoints="true"
     inkscape:snap-bbox-edge-midpoints="false"
     inkscape:bbox-nodes="true"
     inkscape:bbox-paths="false"
     inkscape:snap-nodes="true" />
  <defs
     id="defs4">
    <inkscape:path-effect
       crossing_points_vector="102.12683 | -34.319968 | 0 | 0 | 1 | 2 | 2.7175832 | 5.1895213 | 1 | 101.76705 | -32.827818 | 0 | 0 | 0 | 5 | 2.5242283 | 21.693283 | 1 | 100.72658 | -33.379361 | 0 | 0 | 3 | 6 | 5.301428 | 24.342395 | 1 | 100.00424 | -31.617526 | 0 | 0 | 4 | 7 | 21.531354 | 24.491666 | 1 | 122.54659 | -40.05977 | 0 | 0 | 8 | 11 | 27.328219 | 31.643341 | 1 | 121.84997 | -41.437628 | 0 | 0 | 9 | 12 | 27.586055 | 35.552992 | 1 | 121.50684 | -39.617587 | 0 | 0 | 10 | 15 | 31.576498 | 38.805086 | 1 | 120.7748 | -40.907149 | 0 | 0 | 13 | 14 | 35.663548 | 38.53142 | 1"
       switcher_size="15"
       add_other_stroke_width="true"
       add_stroke_width="true"
       prop_to_stroke_width="true"
       interruption_width="3"
       is_visible="true"
       id="path-effect4419"
       effect="knot" />
  </defs>
  <metadata
     id="metadata7">
    <rdf:RDF>
      <cc:Work
         rdf:about="">
        <dc:format>image/svg+xml</dc:format>
        <dc:type
           rdf:resource="http://purl.org/dc/dcmitype/StillImage" />
        <dc:title></dc:title>
      </cc:Work>
    </rdf:RDF>
  </metadata>
  <g
     transform="translate(0,-96)"
     style="display:inline;opacity:1"
     inkscape:label="Title"
     id="layer7"
     inkscape:groupmode="layer">
    <g
       id="g4549">
      <g
         id="g4286"
         transform="matrix(1.0625015,0,0,1.0625015,-0.8126275,-8.1252016)">
        <g
           transform="matrix(5.2007744,0,1.7087335,5.2007744,1078.6001,1090.7638)"
           id="g4224"
           style="fill:#ffff00">
          <g
             id="g4226"
             style="font-style:normal;font-variant:normal;font-weight:normal;font-stretch:normal;font-size:62.5px;line-height:89.99999762%;font-family:'Loki Cola';-inkscape-font-specification:'Loki Cola';text-align:start;writing-mode:lr-tb;text-anchor:start;opacity:1;fill:#ffff00;fill-opacity:1;fill-rule:nonzero;stroke:none;stroke-width:9;stroke-linecap:round;stroke-linejoin:miter;stroke-miterlimit:4;stroke-dasharray:none;stroke-dashoffset:0;stroke-opacity:1"
             transform="translate(0.69430256,-196.33591)" />
          <g
             transform="matrix(-0.73386247,1.1290169,0.63398769,1.0387858,154.70957,-256.62096)"
             style="font-style:normal;font-variant:normal;font-weight:normal;font-stretch:normal;font-size:62.5px;line-height:89.99999762%;font-family:'Loki Cola';-inkscape-font-specification:'Loki Cola';text-align:start;writing-mode:lr-tb;text-anchor:start;opacity:1;fill:#ffff00;fill-opacity:1;fill-rule:nonzero;stroke:none;stroke-width:9;stroke-linecap:round;stroke-linejoin:miter;stroke-miterlimit:4;stroke-dasharray:none;stroke-dashoffset:0;stroke-opacity:1"
             id="g4228" />
        </g>
        <g
           transform="matrix(-1.4899015,0,0,-1.4899015,231.60938,-277.99908)"
           id="g4381">
          <g
             id="g4383"
             style="font-style:normal;font-variant:normal;font-weight:normal;font-stretch:normal;font-size:62.5px;line-height:89.99999762%;font-family:'Loki Cola';-inkscape-font-specification:'Loki Cola';text-align:start;writing-mode:lr-tb;text-anchor:start;opacity:1;fill:#ffffff;fill-opacity:1;fill-rule:nonzero;stroke:none;stroke-width:9;stroke-linecap:round;stroke-linejoin:miter;stroke-miterlimit:4;stroke-dasharray:none;stroke-dashoffset:0;stroke-opacity:1"
             transform="translate(0.69430256,-196.33591)" />
          <g
             transform="matrix(-0.73386247,1.1290169,0.63398769,1.0387858,154.70957,-256.62096)"
             style="font-style:normal;font-variant:normal;font-weight:normal;font-stretch:normal;font-size:62.5px;line-height:89.99999762%;font-family:'Loki Cola';-inkscape-font-specification:'Loki Cola';text-align:start;writing-mode:lr-tb;text-anchor:start;opacity:1;fill:#ffffff;fill-opacity:1;fill-rule:nonzero;stroke:none;stroke-width:9;stroke-linecap:round;stroke-linejoin:miter;stroke-miterlimit:4;stroke-dasharray:none;stroke-dashoffset:0;stroke-opacity:1"
             id="g4387">
            <path
               inkscape:original-d="m 121.25698,-38.079387 c -1.40045,4.006677 -5.50377,7.194154 -8.94906,8.417792 c -3.48012,1.23601 -7.32285,2.130248 -9.15233,0.159004 c -1.69498,-1.826325 -2.23952,-4.137205 0.64764,-7.304024 c 0.9118,-1.000117 1.83447,-1.615451 1.94538,-1.49531 c 0.21311,0.230842 -0.46796,1.08835 -1.37136,2.020527 c -3.75779,3.877484 -8.793054,5.431148 -11.613336,5.723851 c -2.452589,0.254542 -4.557353,-0.43639 -5.925067,-2.062107 c -1.682534,-1.999923 -0.104749,-6.15396 2.014306,-9.253333 c 4.59854,-6.725919 11.148277,-11.999811 17.527307,-14.771321 c 4.7877,-2.080121 9.7866,-3.688134 13.88844,-3.02468 c 1.47352,0.238335 3.11592,1.452054 1.93489,3.753728 c -1.7568,3.423783 -5.2801,5.465075 -8.17524,6.83314 c -5.86861,2.773141 -11.41623,2.592241 -15.72947,0.5265 c -1.073341,-0.514056 1.106419,1.960219 1.6701,2.265636 c 5.26945,2.85513 14.76879,-0.04086 21.06342,-6.882246 c 1.60553,-1.744993 2.63985,-4.074016 2.05012,-5.708093 c -1.15098,-3.189261 -4.95908,-3.311036 -8.44143,-2.616656 c -4.89905,0.97687 -10.23619,3.710147 -15.040074,7.589007 c -4.252639,3.433762 -8.304284,7.638318 -11.585928,12.28244 c -2.708958,3.833668 -4.617159,8.816327 -3.01874,11.728312 c 1.651397,3.008499 5.967799,2.395657 9.774065,0.926329 c 2.732041,-1.054645 6.914317,-3.203973 10.215277,-6.702999 c 1.283,-1.359978 2.69373,-3.187539 2.045,-3.874052 c -0.40999,-0.43387 -1.94287,0.634349 -3.25902,2.011564 c -3.817943,3.995076 -5.323012,8.40707 -2.94592,10.911884 c 1.05128,1.107758 2.74689,1.47887 4.52966,1.246431 c 5.54926,-0.723517 12.61959,-5.269306 16.23764,-11.623978 c 2.27303,-3.992299 0.12996,-5.034307 -2.40201,-5.393401 c -0.95568,-0.135537 -1.94062,-0.101111 -2.89442,0.05221 c -0.67323,0.10822 -1.97211,0.611292 -2.82743,1.251621 c -0.85532,0.640328 -1.35692,1.550476 -0.15356,2.030589 c 3.90976,1.559901 9.91184,-0.445938 14.57694,-4.447479 c 2.74999,-2.358834 5.72523,-5.181821 6.23225,-9.016373 c 0.26686,-2.018238 -0.33585,-0.162197 -0.89271,0.697482 c -1.39664,2.156152 -3.07332,4.150681 -4.98781,5.870104 c -4.15177,3.72874 -8.08767,5.540473 -10.06254,5.981805 c -1.20235,0.268692 -5.14458,0.669674 -3.37837,-0.824304 c 0.32445,-0.274443 1.42941,-0.602753 2.64523,-0.670893 c 2.30531,-0.129199 4.90565,0.251395 3.80816,3.391293 z"
               inkscape:path-effect="#path-effect4419"
               sodipodi:nodetypes="ssssssssssssssssssssssssssssssssssssssss"
               inkscape:connector-curvature="0"
               id="path4389"
               d=""
               style="font-style:normal;font-variant:normal;font-weight:normal;font-stretch:normal;font-family:'Pinyon Script';-inkscape-font-specification:'Pinyon Script'" />
          </g>
        </g>
        <g
           transform="matrix(5.2007744,0,1.6620371,5.2007744,253.30311,660.4766)"
           id="g4192">
          <g
             id="g4194"
             style="font-style:normal;font-variant:normal;font-weight:normal;font-stretch:normal;font-size:62.5px;line-height:89.99999762%;font-family:'Loki Cola';-inkscape-font-specification:'Loki Cola';text-align:start;writing-mode:lr-tb;text-anchor:start;opacity:1;fill:#ffffff;fill-opacity:1;fill-rule:nonzero;stroke:none;stroke-width:9;stroke-linecap:round;stroke-linejoin:miter;stroke-miterlimit:4;stroke-dasharray:none;stroke-dashoffset:0;stroke-opacity:1"
             transform="translate(0.69430256,-196.33591)" />
          <g
             transform="matrix(-0.73386247,1.1290169,0.63398769,1.0387858,154.70957,-256.62096)"
             style="font-style:normal;font-variant:normal;font-weight:normal;font-stretch:normal;font-size:62.5px;line-height:89.99999762%;font-family:'Loki Cola';-inkscape-font-specification:'Loki Cola';text-align:start;writing-mode:lr-tb;text-anchor:start;opacity:1;fill:#ffffff;fill-opacity:1;fill-rule:nonzero;stroke:none;stroke-width:9;stroke-linecap:round;stroke-linejoin:miter;stroke-miterlimit:4;stroke-dasharray:none;stroke-dashoffset:0;stroke-opacity:1"
             id="g4196" />
        </g>
        <g
           transform="matrix(5.03825,0,1.6553355,5.03825,1047.8736,1060.7399)"
           id="g4564"
           style="fill:#000000;fill-opacity:0.50196078">
          <g
             id="g4566"
             style="font-style:normal;font-variant:normal;font-weight:normal;font-stretch:normal;font-size:62.5px;line-height:89.99999762%;font-family:'Loki Cola';-inkscape-font-specification:'Loki Cola';text-align:start;writing-mode:lr-tb;text-anchor:start;opacity:1;fill:#000000;fill-opacity:0.50196078;fill-rule:nonzero;stroke:none;stroke-width:9;stroke-linecap:round;stroke-linejoin:miter;stroke-miterlimit:4;stroke-dasharray:none;stroke-dashoffset:0;stroke-opacity:1"
             transform="translate(0.69430256,-196.33591)" />
          <g
             transform="matrix(-0.73386247,1.1290169,0.63398769,1.0387858,154.70957,-256.62096)"
             style="font-style:normal;font-variant:normal;font-weight:normal;font-stretch:normal;font-size:62.5px;line-height:89.99999762%;font-family:'Loki Cola';-inkscape-font-specification:'Loki Cola';text-align:start;writing-mode:lr-tb;text-anchor:start;opacity:1;fill:#000000;fill-opacity:0.50196078;fill-rule:nonzero;stroke:none;stroke-width:9;stroke-linecap:round;stroke-linejoin:miter;stroke-miterlimit:4;stroke-dasharray:none;stroke-dashoffset:0;stroke-opacity:1"
             id="g4568" />
        </g>
        <g
           transform="matrix(-1.443342,0,0,-1.443342,227.35138,-265.2491)"
           id="g4570"
           style="fill:#000000;fill-opacity:0.50196078">
          <g
             id="g4572"
             style="font-style:normal;font-variant:normal;font-weight:normal;font-stretch:normal;font-size:62.5px;line-height:89.99999762%;font-family:'Loki Cola';-inkscape-font-specification:'Loki Cola';text-align:start;writing-mode:lr-tb;text-anchor:start;opacity:1;fill:#000000;fill-opacity:0.50196078;fill-rule:nonzero;stroke:none;stroke-width:9;stroke-linecap:round;stroke-linejoin:miter;stroke-miterlimit:4;stroke-dasharray:none;stroke-dashoffset:0;stroke-opacity:1"
             transform="translate(0.69430256,-196.33591)" />
          <g
             transform="matrix(-0.73386247,1.1290169,0.63398769,1.0387858,154.70957,-256.62096)"
             style="font-style:normal;font-variant:normal;font-weight:normal;font-stretch:normal;font-size:62.5px;line-height:89.99999762%;font-family:'Loki Cola';-inkscape-font-specification:'Loki Cola';text-align:start;writing-mode:lr-tb;text-anchor:start;opacity:1;fill:#000000;fill-opacity:0.50196078;fill-rule:nonzero;stroke:none;stroke-width:9;stroke-linecap:round;stroke-linejoin:miter;stroke-miterlimit:4;stroke-dasharray:none;stroke-dashoffset:0;stroke-opacity:1"
             id="g4574">
            <path
               inkscape:original-d="m 121.25698,-38.079387 c -1.40045,4.006677 -5.50377,7.194154 -8.94906,8.417792 c -3.48012,1.23601 -7.32285,2.130248 -9.15233,0.159004 c -1.69498,-1.826325 -2.23952,-4.137205 0.64764,-7.304024 c 0.9118,-1.000117 1.83447,-1.615451 1.94538,-1.49531 c 0.21311,0.230842 -0.46796,1.08835 -1.37136,2.020527 c -3.75779,3.877484 -8.793054,5.431148 -11.613336,5.723851 c -2.452589,0.254542 -4.557353,-0.43639 -5.925067,-2.062107 c -1.682534,-1.999923 -0.104749,-6.15396 2.014306,-9.253333 c 4.59854,-6.725919 11.148277,-11.999811 17.527307,-14.771321 c 4.7877,-2.080121 9.7866,-3.688134 13.88844,-3.02468 c 1.47352,0.238335 3.11592,1.452054 1.93489,3.753728 c -1.7568,3.423783 -5.2801,5.465075 -8.17524,6.83314 c -5.86861,2.773141 -11.41623,2.592241 -15.72947,0.5265 c -1.073341,-0.514056 1.106419,1.960219 1.6701,2.265636 c 5.26945,2.85513 14.76879,-0.04086 21.06342,-6.882246 c 1.60553,-1.744993 2.63985,-4.074016 2.05012,-5.708093 c -1.15098,-3.189261 -4.95908,-3.311036 -8.44143,-2.616656 c -4.89905,0.97687 -10.23619,3.710147 -15.040074,7.589007 c -4.252639,3.433762 -8.304284,7.638318 -11.585928,12.28244 c -2.708958,3.833668 -4.617159,8.816327 -3.01874,11.728312 c 1.651397,3.008499 5.967799,2.395657 9.774065,0.926329 c 2.732041,-1.054645 6.914317,-3.203973 10.215277,-6.702999 c 1.283,-1.359978 2.69373,-3.187539 2.045,-3.874052 c -0.40999,-0.43387 -1.94287,0.634349 -3.25902,2.011564 c -3.817943,3.995076 -5.323012,8.40707 -2.94592,10.911884 c 1.05128,1.107758 2.74689,1.47887 4.52966,1.246431 c 5.54926,-0.723517 12.61959,-5.269306 16.23764,-11.623978 c 2.27303,-3.992299 0.12996,-5.034307 -2.40201,-5.393401 c -0.95568,-0.135537 -1.94062,-0.101111 -2.89442,0.05221 c -0.67323,0.10822 -1.97211,0.611292 -2.82743,1.251621 c -0.85532,0.640328 -1.35692,1.550476 -0.15356,2.030589 c 3.90976,1.559901 9.91184,-0.445938 14.57694,-4.447479 c 2.74999,-2.358834 5.72523,-5.181821 6.23225,-9.016373 c 0.26686,-2.018238 -0.33585,-0.162197 -0.89271,0.697482 c -1.39664,2.156152 -3.07332,4.150681 -4.98781,5.870104 c -4.15177,3.72874 -8.08767,5.540473 -10.06254,5.981805 c -1.20235,0.268692 -5.14458,0.669674 -3.37837,-0.824304 c 0.32445,-0.274443 1.42941,-0.602753 2.64523,-0.670893 c 2.30531,-0.129199 4.90565,0.251395 3.80816,3.391293 z"
               inkscape:path-effect="#path-effect4419"
               sodipodi:nodetypes="ssssssssssssssssssssssssssssssssssssssss"
               inkscape:connector-curvature="0"
               id="path4576"
               d=""
               style="font-style:normal;font-variant:normal;font-weight:normal;font-stretch:normal;font-family:'Pinyon Script';-inkscape-font-specification:'Pinyon Script';fill:#000000;fill-opacity:0.50196078" />
          </g>
        </g>
        <g
           transform="matrix(5.03825,0,1.6100984,5.03825,248.36718,643.89918)"
           id="g4578"
           style="fill:#000000;fill-opacity:0.50196078">
          <g
             id="g4580"
             style="font-style:normal;font-variant:normal;font-weight:normal;font-stretch:normal;font-size:62.5px;line-height:89.99999762%;font-family:'Loki Cola';-inkscape-font-specification:'Loki Cola';text-align:start;writing-mode:lr-tb;text-anchor:start;opacity:1;fill:#000000;fill-opacity:0.50196078;fill-rule:nonzero;stroke:none;stroke-width:9;stroke-linecap:round;stroke-linejoin:miter;stroke-miterlimit:4;stroke-dasharray:none;stroke-dashoffset:0;stroke-opacity:1"
             transform="translate(0.69430256,-196.33591)" />
          <g
             transform="matrix(-0.73386247,1.1290169,0.63398769,1.0387858,154.70957,-256.62096)"
             style="font-style:normal;font-variant:normal;font-weight:normal;font-stretch:normal;font-size:62.5px;line-height:89.99999762%;font-family:'Loki Cola';-inkscape-font-specification:'Loki Cola';text-align:start;writing-mode:lr-tb;text-anchor:start;opacity:1;fill:#000000;fill-opacity:0.50196078;fill-rule:nonzero;stroke:none;stroke-width:9;stroke-linecap:round;stroke-linejoin:miter;stroke-miterlimit:4;stroke-dasharray:none;stroke-dashoffset:0;stroke-opacity:1"
             id="g4582" />
        </g>
        <g
           transform="matrix(5.03825,0,1.6553355,5.03825,1044.8936,1057.7601)"
           id="g4521"
           style="fill:#ffffff">
          <g
             id="g4524"
             style="font-style:normal;font-variant:normal;font-weight:normal;font-stretch:normal;font-size:62.5px;line-height:89.99999762%;font-family:'Loki Cola';-inkscape-font-specification:'Loki Cola';text-align:start;writing-mode:lr-tb;text-anchor:start;opacity:1;fill:#ffffff;fill-opacity:1;fill-rule:nonzero;stroke:none;stroke-width:9;stroke-linecap:round;stroke-linejoin:miter;stroke-miterlimit:4;stroke-dasharray:none;stroke-dashoffset:0;stroke-opacity:1"
             transform="translate(0.69430256,-196.33591)" />
          <g
             transform="matrix(-0.73386247,1.1290169,0.63398769,1.0387858,154.70957,-256.62096)"
             style="font-style:normal;font-variant:normal;font-weight:normal;font-stretch:normal;font-size:62.5px;line-height:89.99999762%;font-family:'Loki Cola';-inkscape-font-specification:'Loki Cola';text-align:start;writing-mode:lr-tb;text-anchor:start;opacity:1;fill:#ffffff;fill-opacity:1;fill-rule:nonzero;stroke:none;stroke-width:9;stroke-linecap:round;stroke-linejoin:miter;stroke-miterlimit:4;stroke-dasharray:none;stroke-dashoffset:0;stroke-opacity:1"
             id="g4526" />
        </g>
        <g
           transform="matrix(-1.443342,0,0,-1.443342,224.37138,-268.22891)"
           id="g4528"
           style="fill:#ffffff">
          <g
             id="g4530"
             style="font-style:normal;font-variant:normal;font-weight:normal;font-stretch:normal;font-size:62.5px;line-height:89.99999762%;font-family:'Loki Cola';-inkscape-font-specification:'Loki Cola';text-align:start;writing-mode:lr-tb;text-anchor:start;opacity:1;fill:#ffffff;fill-opacity:1;fill-rule:nonzero;stroke:none;stroke-width:9;stroke-linecap:round;stroke-linejoin:miter;stroke-miterlimit:4;stroke-dasharray:none;stroke-dashoffset:0;stroke-opacity:1"
             transform="translate(0.69430256,-196.33591)" />
          <g
             transform="matrix(-0.73386247,1.1290169,0.63398769,1.0387858,154.70957,-256.62096)"
             style="font-style:normal;font-variant:normal;font-weight:normal;font-stretch:normal;font-size:62.5px;line-height:89.99999762%;font-family:'Loki Cola';-inkscape-font-specification:'Loki Cola';text-align:start;writing-mode:lr-tb;text-anchor:start;opacity:1;fill:#ffffff;fill-opacity:1;fill-rule:nonzero;stroke:none;stroke-width:9;stroke-linecap:round;stroke-linejoin:miter;stroke-miterlimit:4;stroke-dasharray:none;stroke-dashoffset:0;stroke-opacity:1"
             id="g4532">
            <path
               inkscape:original-d="m 121.25698,-38.079387 c -1.40045,4.006677 -5.50377,7.194154 -8.94906,8.417792 c -3.48012,1.23601 -7.32285,2.130248 -9.15233,0.159004 c -1.69498,-1.826325 -2.23952,-4.137205 0.64764,-7.304024 c 0.9118,-1.000117 1.83447,-1.615451 1.94538,-1.49531 c 0.21311,0.230842 -0.46796,1.08835 -1.37136,2.020527 c -3.75779,3.877484 -8.793054,5.431148 -11.613336,5.723851 c -2.452589,0.254542 -4.557353,-0.43639 -5.925067,-2.062107 c -1.682534,-1.999923 -0.104749,-6.15396 2.014306,-9.253333 c 4.59854,-6.725919 11.148277,-11.999811 17.527307,-14.771321 c 4.7877,-2.080121 9.7866,-3.688134 13.88844,-3.02468 c 1.47352,0.238335 3.11592,1.452054 1.93489,3.753728 c -1.7568,3.423783 -5.2801,5.465075 -8.17524,6.83314 c -5.86861,2.773141 -11.41623,2.592241 -15.72947,0.5265 c -1.073341,-0.514056 1.106419,1.960219 1.6701,2.265636 c 5.26945,2.85513 14.76879,-0.04086 21.06342,-6.882246 c 1.60553,-1.744993 2.63985,-4.074016 2.05012,-5.708093 c -1.15098,-3.189261 -4.95908,-3.311036 -8.44143,-2.616656 c -4.89905,0.97687 -10.23619,3.710147 -15.040074,7.589007 c -4.252639,3.433762 -8.304284,7.638318 -11.585928,12.28244 c -2.708958,3.833668 -4.617159,8.816327 -3.01874,11.728312 c 1.651397,3.008499 5.967799,2.395657 9.774065,0.926329 c 2.732041,-1.054645 6.914317,-3.203973 10.215277,-6.702999 c 1.283,-1.359978 2.69373,-3.187539 2.045,-3.874052 c -0.40999,-0.43387 -1.94287,0.634349 -3.25902,2.011564 c -3.817943,3.995076 -5.323012,8.40707 -2.94592,10.911884 c 1.05128,1.107758 2.74689,1.47887 4.52966,1.246431 c 5.54926,-0.723517 12.61959,-5.269306 16.23764,-11.623978 c 2.27303,-3.992299 0.12996,-5.034307 -2.40201,-5.393401 c -0.95568,-0.135537 -1.94062,-0.101111 -2.89442,0.05221 c -0.67323,0.10822 -1.97211,0.611292 -2.82743,1.251621 c -0.85532,0.640328 -1.35692,1.550476 -0.15356,2.030589 c 3.90976,1.559901 9.91184,-0.445938 14.57694,-4.447479 c 2.74999,-2.358834 5.72523,-5.181821 6.23225,-9.016373 c 0.26686,-2.018238 -0.33585,-0.162197 -0.89271,0.697482 c -1.39664,2.156152 -3.07332,4.150681 -4.98781,5.870104 c -4.15177,3.72874 -8.08767,5.540473 -10.06254,5.981805 c -1.20235,0.268692 -5.14458,0.669674 -3.37837,-0.824304 c 0.32445,-0.274443 1.42941,-0.602753 2.64523,-0.670893 c 2.30531,-0.129199 4.90565,0.251395 3.80816,3.391293 z"
               inkscape:path-effect="#path-effect4419"
               sodipodi:nodetypes="ssssssssssssssssssssssssssssssssssssssss"
               inkscape:connector-curvature="0"
               id="path4534"
               d=""
               style="font-style:normal;font-variant:normal;font-weight:normal;font-stretch:normal;font-family:'Pinyon Script';-inkscape-font-specification:'Pinyon Script';fill:#ffffff" />
          </g>
        </g>
        <g
           transform="matrix(5.03825,0,1.6100984,5.03825,245.38718,640.91937)"
           id="g4536"
           style="fill:#ffffff">
          <g
             id="g4538"
             style="font-style:normal;font-variant:normal;font-weight:normal;font-stretch:normal;font-size:62.5px;line-height:89.99999762%;font-family:'Loki Cola';-inkscape-font-specification:'Loki Cola';text-align:start;writing-mode:lr-tb;text-anchor:start;opacity:1;fill:#ffffff;fill-opacity:1;fill-rule:nonzero;stroke:none;stroke-width:9;stroke-linecap:round;stroke-linejoin:miter;stroke-miterlimit:4;stroke-dasharray:none;stroke-dashoffset:0;stroke-opacity:1"
             transform="translate(0.69430256,-196.33591)" />
          <g
             transform="matrix(-0.73386247,1.1290169,0.63398769,1.0387858,154.70957,-256.62096)"
             style="font-style:normal;font-variant:normal;font-weight:normal;font-stretch:normal;font-size:62.5px;line-height:89.99999762%;font-family:'Loki Cola';-inkscape-font-specification:'Loki Cola';text-align:start;writing-mode:lr-tb;text-anchor:start;opacity:1;fill:#ffffff;fill-opacity:1;fill-rule:nonzero;stroke:none;stroke-width:9;stroke-linecap:round;stroke-linejoin:miter;stroke-miterlimit:4;stroke-dasharray:none;stroke-dashoffset:0;stroke-opacity:1"
             id="g4540" />
        </g>
        <g
           id="g4862"
           transform="matrix(0.28070173,0,0,0.28070173,0.78948155,93.508779)">
          <path
             style="font-style:normal;font-variant:normal;font-weight:normal;font-stretch:normal;font-family:Lobster;-inkscape-font-specification:Lobster;opacity:0.3;fill:#000000;fill-opacity:1;stroke:none"
             d="m 373.68399,100.19525 c 2.04186,1.82534 4.66872,2.99664 7.28366,3.84359 c 3.36763,1.09076 6.45718,1.49629 10.52198,1.49629 c 3.48928,0 6.9053,-0.37538 10.25068,-1.12308 c 3.30941,-0.71212 6.45803,-1.72403 9.44371,-3.04141 c 2.9497,-1.31739 5.68181,-2.88575 8.19985,-4.701612 c 2.48206,-1.780254 4.64211,-3.757442 6.47667,-5.929361 c 1.79861,-2.13631 3.20019,-4.415025 4.20741,-6.836181 c 1.00721,-2.385542 1.51169,-4.841838 1.51169,-7.369805 c 0,-3.702949 -1.02588,-6.299935 -3.07626,-7.795366 c -2.08636,-1.495411 -5.11515,-2.242674 -8.85623,-2.242674 c 0,0 0.29725,0.489907 0.42417,0.746396 c 0.18883,0.381612 0.36297,0.772282 0.50006,1.175407 c 0.23083,0.678793 0.4259,1.37427 0.53914,2.082239 c 0.1803,1.12737 0.21844,2.029496 0.21844,3.418098 c 0,2.990823 -0.37923,5.715266 -1.13464,8.172021 c -0.79138,2.492354 -1.83413,4.717493 -3.1291,6.67576 c -1.33095,1.993891 -2.9091,3.676511 -4.69368,5.179449 c -1.72493,1.452684 -3.64243,2.736279 -5.7191,3.630846 c -2.47921,1.067976 -5.15953,1.822983 -7.858,1.991551 c -2.36757,0.147947 -4.86241,0.006 -7.06167,-0.875422 c -1.8137,-0.725984 -3.43178,-2.008193 -4.69366,-3.487859 c -1.13862,-1.335131 -1.91907,-2.985703 -2.42437,-4.659771 c -0.55536,-1.840029 -0.53599,-4.116285 -0.60961,-5.727049 c -0.0997,-2.17838 0.1725,-4.382715 0.64837,-6.511822 c 0.46925,-2.09894 1.22466,-4.144502 2.15658,-6.08628 c 0.8886,-1.851597 1.96095,-3.63423 3.24539,-5.242256 c 1.26573,-1.584599 2.67521,-3.105948 4.34129,-4.272614 c 1.53701,-1.076274 3.30512,-1.829607 5.08833,-2.427526 c 1.06528,-0.357195 2.18926,-0.538439 3.3053,-0.676653 c 0.98561,-0.121546 2.97407,-0.132511 2.97407,-0.132511 l 0.4898,-2.117146 l 0.48982,-2.113644 c 0,0 -2.26834,-0.05821 -3.37579,-0.275544 c -1.12495,-0.220768 -2.27624,-0.481681 -3.27711,-1.035882 c -1.32595,-0.734206 -2.55803,-1.732209 -3.45331,-2.947228 c -0.7847,-1.06497 -1.2556,-2.357535 -1.55751,-3.641345 c -0.36545,-1.553937 -0.36332,-3.185211 -0.27486,-4.778321 c 0.10683,-1.924031 0.3829,-3.861668 0.96905,-5.699165 c 0.58742,-1.841532 1.39352,-3.651217 2.51949,-5.228279 c 0.96886,-1.357002 2.1921,-2.636105 3.55902,-3.526236 c 1.40291,-0.890114 2.93325,-1.335825 4.58796,-1.335825 c 0.75542,0 1.49349,0.107213 2.21294,0.32089 c 0.75541,0.213639 1.40201,0.568798 1.94161,1.067269 c 0.57553,0.462838 1.04273,1.086165 1.40245,1.869504 c 0.35974,0.783321 0.53913,1.728352 0.53913,2.83212 c 0,0.961326 -0.12531,1.95655 -0.37704,2.989089 c -0.25182,1.032539 -0.61064,1.994307 -1.07829,2.884456 c -0.43166,0.890113 -0.95303,1.6743 -1.56454,2.350795 c -0.57555,0.67651 -1.18841,1.122204 -1.83589,1.335841 c 1.43887,1.958285 3.16555,2.936773 5.17994,2.936773 c 1.11513,0 2.15787,-0.284833 3.12914,-0.854499 c 1.0072,-0.569683 1.88741,-1.35387 2.64283,-2.350829 c 0.7554,-1.032557 1.35136,-2.242233 1.78301,-3.630853 c 0.43167,-1.388583 0.64486,-2.903332 0.64486,-4.541151 c 0,-2.243136 -0.41302,-4.216847 -1.24037,-5.925879 c -0.79139,-1.70905 -1.90518,-3.133248 -3.34406,-4.272632 c -1.43885,-1.139349 -3.13176,-1.993883 -5.07424,-2.563549 c -1.9065,-0.605297 -3.95471,-0.910353 -6.14901,-0.910353 c -3.52524,0 -6.78222,0.697141 -9.76789,2.085743 c -2.9497,1.388601 -5.50238,3.201417 -7.66068,5.444535 c -2.12236,2.243134 -3.79483,4.773278 -5.01787,7.586061 c -1.18707,2.77722 -1.7795,5.571992 -1.7795,8.384792 c 0,2.456773 0.52137,4.842776 1.56456,7.157105 c 1.07915,2.278715 2.80579,4.272615 5.17994,5.981664 c -3.20149,0.818919 -6.06994,2.305219 -8.63327,4.216794 c -2.75104,2.05156 -5.02962,4.742246 -6.95591,7.568618 c -1.45409,2.133564 -2.61352,4.496426 -3.38283,6.95479 c -0.96411,3.080842 -1.49191,6.338434 -1.48,9.563666 c 0.009,2.470174 0.27248,5.019098 1.18752,7.317524 c 1.13453,2.849705 2.87989,5.574929 5.17643,7.627926 z"
             id="path4568"
             inkscape:connector-curvature="0"
             sodipodi:nodetypes="ssscccccsccssssccssssssssssssccccssssssscscccsscccsccsscscscccsccssscss" />
          <path
             sodipodi:nodetypes="ssscccccsccssssccssssssssssssccccssssssscscccsscccsccsscscscccsccssscss"
             inkscape:connector-curvature="0"
             id="path4564"
             d="M 61.434392,25.746022 C 59.392537,23.92067 56.765677,22.749378 54.150744,21.902421 c -3.367617,-1.090756 -6.457171,-1.49629 -10.521996,-1.49629 c -3.489269,0 -6.905273,0.375391 -10.250662,1.123095 c -3.309416,0.712099 -6.458041,1.72401 -9.443716,3.041397 c -2.949696,1.317386 -5.681809,2.885747 -8.199841,4.701616 c -2.482056,1.780259 -4.642121,3.757436 -6.4766952,5.929359 C 7.4592349,37.337902 6.0576626,39.616626 5.0504467,42.03777 c -1.0072161,2.38555 -1.5116992,4.841852 -1.5116992,7.369821 c 0,3.702934 1.0258713,6.299922 3.0762606,7.795351 c 2.0863646,1.49541 5.1151599,2.242689 8.8562399,2.242689 c 0,0 -0.297262,-0.489917 -0.424181,-0.746405 C 14.85823,58.317612 14.684105,57.926939 14.547022,57.523828 C 14.316188,56.845032 14.121111,56.149551 14.00788,55.441575 c -0.180306,-1.12736 -0.218467,-2.029485 -0.218467,-3.418088 c 0,-2.99082 0.379255,-5.715275 1.134663,-8.172027 c 0.791382,-2.492355 1.834123,-4.717492 3.129105,-6.675757 c 1.330957,-1.993877 2.909086,-3.676527 4.693665,-5.179457 c 1.724935,-1.452675 3.642447,-2.736274 5.719103,-3.630843 c 2.479223,-1.067984 5.159541,-1.822977 7.858007,-1.991555 c 2.367565,-0.147858 4.862413,-0.0054 7.061665,0.875443 c 1.813698,0.725972 3.431772,2.008195 4.693664,3.487857 c 1.138614,1.335104 1.919064,2.98568 2.42436,4.659758 c 0.555379,1.84003 0.536,4.116291 0.609611,5.727046 c 0.0996,2.178381 -0.172502,4.382712 -0.648381,6.511823 c -0.469231,2.09895 -1.224641,4.144507 -2.156549,6.086291 c -0.888612,1.851584 -1.960956,3.634221 -3.245403,5.242244 c -1.265734,1.58461 -2.675211,3.10595 -4.341292,4.27262 c -1.537012,1.076266 -3.305123,1.829599 -5.088329,2.427528 c -1.065275,0.357193 -2.189256,0.538432 -3.305299,0.676652 c -0.985622,0.121606 -2.974076,0.132497 -2.974076,0.132497 l -0.489795,2.11715 l -0.489814,2.113644 c 0,0 2.268332,0.05821 3.375786,0.275529 c 1.124942,0.220775 2.276241,0.481696 3.277101,1.035896 c 1.325963,0.734203 2.558033,1.732204 3.453318,2.947231 c 0.784691,1.064955 1.255596,2.357533 1.557506,3.641324 c 0.365437,1.553956 0.363324,3.185229 0.274849,4.778339 c -0.106811,1.924036 -0.382901,3.861668 -0.969041,5.699163 c -0.587422,1.841534 -1.393509,3.651227 -2.519492,5.228288 c -0.968857,1.357003 -2.19209,2.636098 -3.55902,3.526239 c -1.402907,0.890112 -2.933245,1.335816 -4.587964,1.335816 c -0.755407,0 -1.493474,-0.107273 -2.212922,-0.320895 C 25.709031,98.637694 25.062413,98.282547 24.522838,97.78407 C 23.947289,97.321232 23.48008,96.697902 23.120365,95.914572 c -0.359733,-0.783331 -0.539123,-1.728361 -0.539123,-2.832124 c 0,-0.961329 0.125226,-1.956554 0.377034,-2.989085 c 0.251811,-1.032547 0.610641,-1.994308 1.078285,-2.884465 c 0.431668,-0.890111 0.953035,-1.674291 1.564544,-2.350795 c 0.575549,-0.67651 1.188408,-1.122204 1.835888,-1.335842 c -1.438863,-1.958285 -3.16553,-2.936772 -5.179944,-2.936772 c -1.115124,0 -2.157864,0.284832 -3.129122,0.854497 c -1.007197,0.569684 -1.887419,1.353872 -2.642826,2.350831 c -0.755407,1.032555 -1.351361,2.242236 -1.783029,3.630854 c -0.431666,1.388588 -0.644847,2.903327 -0.644847,4.541146 c 0,2.243136 0.413011,4.216853 1.240369,5.925889 c 0.791382,1.709051 1.90519,3.133244 3.344055,4.272634 c 1.438864,1.13934 3.131755,1.99388 5.074238,2.56354 c 1.906507,0.6053 3.954712,0.91036 6.149003,0.91036 c 3.525247,0 6.78223,-0.69714 9.767903,-2.08574 c 2.949698,-1.38861 5.502388,-3.20143 7.660685,-5.444535 c 2.122357,-2.243136 3.794825,-4.773287 5.017857,-7.586072 c 1.187075,-2.777221 1.779512,-5.571991 1.779512,-8.384791 c 0,-2.456773 -0.521372,-4.842776 -1.564561,-7.157106 C 51.447139,72.698275 49.720489,70.70438 47.34634,68.995338 c 3.201488,-0.818924 6.069925,-2.305227 8.633259,-4.216795 c 2.75106,-2.051575 5.02964,-4.742261 6.95592,-7.568631 c 1.454093,-2.133558 2.613527,-4.496411 3.382826,-6.954787 c 0.964115,-3.080842 1.491908,-6.338426 1.480001,-9.563668 c -0.0091,-2.470176 -0.272485,-5.01909 -1.187526,-7.317511 C 65.4763,30.524237 63.730927,27.799014 61.434392,25.746022 Z"
             style="font-style:normal;font-variant:normal;font-weight:normal;font-stretch:normal;font-family:Lobster;-inkscape-font-specification:Lobster;opacity:0.3;fill:#000000;fill-opacity:1;stroke:none" />
          <g
             transform="matrix(2.0339493,0,0,2.0132117,4.6478704,-126.99138)"
             style="font-style:normal;font-variant:normal;font-weight:normal;font-stretch:normal;font-size:54.33057404px;line-height:89.99999762%;font-family:'Luckiest Guy';-inkscape-font-specification:'Luckiest Guy';text-align:start;writing-mode:lr-tb;text-anchor:start;opacity:0.3;fill:#000000;fill-opacity:1;fill-rule:nonzero;stroke:#f0f0f0;stroke-width:9.94172764;stroke-miterlimit:4;stroke-dasharray:none;stroke-opacity:1"
             id="g4584">
            <path
               d="m 27.686938,114.06979 l 5.756706,-27.165283 l 7.825937,0 l -0.689744,3.369132 q 0.716273,-0.636686 1.459073,-1.246844 q 0.742801,-0.610158 1.538659,-1.061144 q 0.822387,-0.477515 1.697831,-0.76933 q 0.875444,-0.291814 1.857002,-0.291814 q 0.928501,0 1.618244,0.344871 q 0.716273,0.344872 1.193787,0.901973 q 0.477515,0.557101 0.716273,1.299901 q 0.238757,0.742801 0.238757,1.538659 q 0,0.716272 -0.238757,1.432545 q -0.238758,0.689743 -0.742801,1.246844 q -0.477515,0.5571 -1.220316,0.928501 q -0.742801,0.344872 -1.724359,0.344872 q -0.769329,0 -1.193787,-0.265286 q -0.397929,-0.265286 -0.610158,-0.663215 q -0.212228,-0.397929 -0.318343,-0.848916 q -0.07959,-0.477514 -0.1857,-0.875443 q -0.106114,-0.397929 -0.291815,-0.663215 q -0.159171,-0.265286 -0.5571,-0.265286 q -1.246845,0 -2.09576,0.583629 q -0.848915,0.5571 -1.857002,1.485601 l -4.35069,20.639248 l -7.825937,0 z"
               style="font-style:normal;font-variant:normal;font-weight:normal;font-stretch:normal;font-family:Lobster;-inkscape-font-specification:Lobster;fill:#000000;fill-opacity:1;stroke:none"
               id="path4586"
               inkscape:connector-curvature="0" />
            <path
               d="m 81.089011,104.3338 q -0.76933,2.20187 -1.671302,3.82012 q -0.901973,1.61824 -1.883531,2.73244 q -0.95503,1.1142 -1.963116,1.80395 q -1.008087,0.68974 -1.963117,1.06114 q -0.955029,0.3714 -1.830473,0.50404 q -0.875444,0.13265 -1.591716,0.13265 q -2.307989,0 -3.687476,-1.24685 q -1.352958,-1.27337 -1.644773,-3.74053 q -0.663215,0.9285 -1.459073,1.83047 q -0.795858,0.87545 -1.777416,1.59172 q -0.981559,0.68974 -2.201874,1.14073 q -1.193787,0.42446 -2.65286,0.42446 q -1.406016,0 -2.705917,-0.45099 q -1.299902,-0.45099 -2.307989,-1.4856 q -1.008087,-1.03462 -1.618244,-2.70592 q -0.610158,-1.6713 -0.610158,-4.0854 q 0,-1.857 0.3714,-3.97929 q 0.371401,-2.122291 1.14073,-4.244579 q 0.769329,-2.122288 1.910059,-4.058876 q 1.167259,-1.963116 2.705918,-3.448718 q 1.565187,-1.51213 3.528303,-2.387574 q 1.963117,-0.901972 4.324162,-0.901972 q 2.307989,0 3.342604,0.795858 q 1.061144,0.795858 1.061144,1.963116 l 0,0.397929 l 0.583629,-2.891617 l 7.825937,0 l -3.899704,18.463903 q -0.132643,0.45099 -0.1857,0.90198 q -0.05306,0.42445 -0.05306,0.84891 q 0,2.33452 2.228402,2.33452 q 0.795858,0 1.459073,-0.39793 q 0.689744,-0.42446 1.246844,-1.1142 q 0.557101,-0.68975 0.981559,-1.61825 q 0.424457,-0.95503 0.716272,-1.98964 l 2.28146,0 z M 67.400253,92.077584 q 0,-0.238758 -0.106115,-0.583629 q -0.106114,-0.371401 -0.3714,-0.689744 Q 66.68398,90.459339 66.259523,90.24711 Q 65.835065,90.008353 65.17185,90.008353 q -1.14073,0 -2.175345,0.742801 q -1.008087,0.742801 -1.857002,1.989645 q -0.848915,1.220315 -1.51213,2.785503 q -0.663215,1.565187 -1.14073,3.236489 q -0.450986,1.644769 -0.689744,3.263019 q -0.238757,1.59172 -0.238757,2.86509 q 0,1.56519 0.291814,2.4141 q 0.291815,0.84892 0.689744,1.27337 q 0.424458,0.39793 0.901972,0.47752 q 0.477515,0.0796 0.848916,0.0796 q 0.610157,0 1.273372,-0.29181 q 0.689744,-0.31834 1.299902,-0.90197 q 0.636686,-0.61016 1.14073,-1.51213 q 0.530572,-0.90198 0.795858,-2.09576 l 2.599803,-12.256216 z"
               style="font-style:normal;font-variant:normal;font-weight:normal;font-stretch:normal;font-family:Lobster;-inkscape-font-specification:Lobster;fill:#000000;fill-opacity:1;stroke:none"
               id="path4588"
               inkscape:connector-curvature="0" />
            <path
               d="m 101.48951,104.3338 q -1.14073,1.91006 -2.626334,3.714 q -1.459073,1.80395 -3.316075,3.20996 q -1.830474,1.40602 -4.085405,2.28146 q -2.228402,0.84892 -4.907791,0.84892 q -1.936588,0 -3.501775,-0.47752 q -1.565188,-0.50404 -2.679389,-1.53866 q -1.114201,-1.03461 -1.69783,-2.65286 q -0.610158,-1.64477 -0.610158,-3.95276 q 0,-1.56519 0.318343,-3.60789 q 0.318343,-2.06923 1.008087,-4.218045 q 0.716272,-2.148817 1.830473,-4.218048 q 1.14073,-2.069231 2.758975,-3.687475 q 1.644773,-1.618245 3.79359,-2.599803 q 2.148816,-1.008087 4.907791,-1.008087 q 1.803944,0 2.971203,0.450986 q 1.167258,0.424458 1.857002,1.14073 q 0.689744,0.689744 0.95503,1.591716 q 0.265286,0.901972 0.265286,1.803945 q 0,1.008087 -0.238758,1.750887 q -0.212229,0.716273 -0.610158,1.220316 q -0.397929,0.504043 -0.928501,0.742801 q -0.530572,0.238757 -1.114201,0.238757 q -0.928501,0 -1.910059,-0.636686 q 0.663215,-1.750888 0.663215,-3.209961 q 0,-1.008087 -0.371401,-1.618244 q -0.3714,-0.610158 -1.140729,-0.610158 q -0.848916,0 -1.697831,0.769329 q -0.848915,0.76933 -1.644773,2.042702 q -0.769329,1.273373 -1.432544,2.918146 q -0.663215,1.644774 -1.167259,3.42219 q -0.477515,1.777412 -0.769329,3.554832 q -0.265286,1.75089 -0.265286,3.26302 q 0,1.37949 0.238757,2.28146 q 0.265286,0.87544 0.742801,1.37949 q 0.504043,0.50404 1.220316,0.71627 q 0.7428,0.1857 1.724359,0.1857 q 1.618244,0 2.918146,-0.42446 q 1.32643,-0.42446 2.46716,-1.16726 q 1.140729,-0.7428 2.148816,-1.75089 q 1.034616,-1.00808 2.069231,-2.14881 l 1.857005,0 z"
               style="font-style:normal;font-variant:normal;font-weight:normal;font-stretch:normal;font-family:Lobster;-inkscape-font-specification:Lobster;fill:#000000;fill-opacity:1;stroke:none"
               id="path4590"
               inkscape:connector-curvature="0" />
            <path
               d="m 113.10903,79.688727 q 0,0.901973 -0.34487,1.697831 q -0.34487,0.769329 -0.95503,1.352958 q -0.58363,0.557101 -1.37949,0.901973 q -0.76933,0.318343 -1.6713,0.318343 q -0.90197,0 -1.69783,-0.318343 q -0.76933,-0.344872 -1.35296,-0.901973 q -0.58363,-0.583629 -0.9285,-1.352958 q -0.31834,-0.795858 -0.31834,-1.697831 q 0,-0.901972 0.31834,-1.671302 q 0.34487,-0.795858 0.9285,-1.379487 q 0.58363,-0.610158 1.35296,-0.955029 q 0.79586,-0.344872 1.69783,-0.344872 q 0.90197,0 1.6713,0.344872 q 0.79586,0.344871 1.37949,0.955029 q 0.61016,0.583629 0.95503,1.379487 q 0.34487,0.76933 0.34487,1.671302 z m 3.36913,24.645073 q -0.76933,2.20187 -1.72436,3.82012 q -0.9285,1.61824 -1.96311,2.73244 q -1.00809,1.1142 -2.09576,1.80395 q -1.06115,0.68974 -2.06923,1.06114 q -1.00809,0.3714 -1.93659,0.50404 q -0.90197,0.13265 -1.61825,0.13265 q -1.22031,0 -2.28146,-0.3714 q -1.06114,-0.3714 -1.857,-1.16726 q -0.76933,-0.79586 -1.220313,-2.01618 q -0.450986,-1.22031 -0.450986,-2.94467 q 0,-0.7428 0.106114,-1.61824 q 0.106115,-0.90198 0.318343,-1.93659 l 3.687472,-17.429293 l 7.82594,0 l -3.8997,18.463903 q -0.13265,0.45099 -0.1857,0.90198 q -0.0265,0.42445 -0.0265,0.84891 q 0,1.14073 0.53057,1.59172 q 0.53057,0.42445 1.6713,0.42445 q 0.79586,0 1.53866,-0.34487 q 0.76933,-0.3714 1.40602,-1.00808 q 0.63668,-0.63669 1.14073,-1.51213 q 0.50404,-0.90198 0.82238,-1.93659 l 2.28146,0 z"
               style="font-style:normal;font-variant:normal;font-weight:normal;font-stretch:normal;font-family:Lobster;-inkscape-font-specification:Lobster;fill:#000000;fill-opacity:1;stroke:none"
               id="path4592"
               inkscape:connector-curvature="0" />
            <path
               d="m 143.93526,104.3338 q -1.14072,3.3426 -2.46715,5.33225 q -1.29991,1.98964 -2.65286,3.05079 q -1.32644,1.03461 -2.62634,1.35295 q -1.27337,0.31835 -2.36104,0.31835 q -1.80395,0 -3.02426,-0.50405 q -1.22032,-0.53057 -1.96312,-1.37948 q -0.7428,-0.87545 -1.08767,-1.96312 q -0.31834,-1.1142 -0.31834,-2.28146 q 0,-1.37949 0.3714,-3.20996 q 0.39792,-1.857 0.84891,-3.79359 q 0.45099,-1.936588 0.82239,-3.740533 q 0.39793,-1.803945 0.39793,-3.103846 q 0,-2.785503 -1.96312,-2.785503 q -0.7428,0 -1.37949,0.397929 q -0.63668,0.397929 -1.16726,1.087672 q -0.53057,0.663215 -0.95503,1.591716 q -0.42445,0.901973 -0.7428,1.936588 l -3.68747,17.429287 l -7.82594,0 l 5.75671,-27.165283 l 7.82593,0 l -0.58362,2.812031 q 0.87544,-0.981558 1.72435,-1.565187 q 0.87545,-0.610158 1.69784,-0.928501 q 0.82238,-0.318343 1.53865,-0.424458 q 0.7428,-0.106114 1.37949,-0.106114 q 1.2999,0 2.4141,0.344872 q 1.11421,0.344871 1.91006,1.087672 q 0.82239,0.742801 1.27338,1.91006 q 0.45098,1.167258 0.45098,2.785503 q 0,1.087672 -0.21223,2.361045 q -0.1857,1.246844 -0.47751,2.573274 q -0.29182,1.299902 -0.63669,2.599806 q -0.31834,1.2999 -0.61016,2.49369 q -0.29181,1.19378 -0.50404,2.2284 q -0.1857,1.00808 -0.1857,1.77741 q 0,1.00809 0.45099,1.64478 q 0.47751,0.63668 1.72436,0.63668 q 0.87544,0 1.53865,-0.34487 q 0.66322,-0.34487 1.19379,-0.98156 q 0.53057,-0.63668 0.95503,-1.51213 q 0.45099,-0.90197 0.87545,-1.96311 l 2.28145,0 z"
               style="font-style:normal;font-variant:normal;font-weight:normal;font-stretch:normal;font-family:Lobster;-inkscape-font-specification:Lobster;fill:#000000;fill-opacity:1;stroke:none"
               id="path4594"
               inkscape:connector-curvature="0" />
            <path
               d="m 154.65282,111.36388 q -0.61016,0.63668 -1.2999,1.19378 q -0.68974,0.53058 -1.51213,0.95503 q -0.79586,0.39793 -1.72436,0.63669 q -0.9285,0.23876 -1.98964,0.23876 q -1.40602,0 -2.70592,-0.45099 q -1.2999,-0.45099 -2.30799,-1.4856 q -1.00809,-1.03462 -1.61824,-2.70592 q -0.61016,-1.6713 -0.61016,-4.0854 q 0,-1.857 0.3714,-3.97929 q 0.3714,-2.122291 1.14073,-4.244579 q 0.76933,-2.122288 1.91006,-4.058876 q 1.16726,-1.963116 2.70591,-3.448718 q 1.56519,-1.51213 3.52831,-2.387574 q 1.96311,-0.901972 4.32416,-0.901972 q 2.30799,0 3.3426,0.795858 q 1.06115,0.795858 1.06115,1.963116 l 0,0.106115 l 0.53057,-2.599803 l 7.87899,0 l -6.63215,31.515973 q -0.58363,2.91815 -1.72435,4.7221 q -1.11421,1.80394 -2.49369,2.81203 q -1.35296,1.00808 -2.86509,1.35296 q -1.4856,0.34487 -2.81203,0.34487 q -1.22032,0 -2.38758,-0.42446 q -1.14073,-0.42446 -2.0427,-1.19379 q -0.87544,-0.76933 -1.43254,-1.857 q -0.53058,-1.06114 -0.53058,-2.38757 q 0,-1.91006 0.71628,-3.20996 q 0.7428,-1.29991 2.01617,-2.20188 q 1.27337,-0.90197 2.9712,-1.53866 q 1.72436,-0.61015 3.68748,-1.19378 l 0.50404,-2.28146 z m 4.11193,-19.471996 q -0.053,-0.265286 -0.1857,-0.58363 q -0.10611,-0.318343 -0.34487,-0.610157 q -0.23875,-0.291815 -0.66321,-0.477515 q -0.39793,-0.212229 -1.03462,-0.212229 q -1.14073,0 -2.17534,0.742801 q -1.00809,0.742801 -1.85701,1.989645 q -0.84891,1.220315 -1.51213,2.785503 q -0.66321,1.565187 -1.14073,3.236489 q -0.45098,1.644769 -0.68974,3.263019 q -0.23876,1.59172 -0.23876,2.86509 q 0,1.56519 0.29182,2.4141 q 0.29181,0.84892 0.68974,1.27337 q 0.42446,0.39793 0.90197,0.47752 q 0.47752,0.0796 0.84892,0.0796 q 0.5571,0 1.16726,-0.23875 q 0.63668,-0.26529 1.24684,-0.76933 q 0.61016,-0.50405 1.1142,-1.27338 q 0.50405,-0.76933 0.82239,-1.80394 l 2.75897,-13.158186 z m -4.98737,23.477816 q -1.27338,0.42445 -2.38758,0.95502 q -1.1142,0.53058 -1.93658,1.19379 q -0.79586,0.68975 -1.27338,1.53866 q -0.45098,0.87544 -0.45098,1.96312 q 0,0.31834 0.15917,0.63668 q 0.15917,0.31835 0.45098,0.5571 q 0.29182,0.26529 0.68975,0.42446 q 0.39793,0.1857 0.87544,0.1857 q 0.42446,0 0.87545,-0.21223 q 0.47751,-0.1857 0.90197,-0.68974 q 0.42446,-0.47752 0.79586,-1.2999 q 0.3714,-0.82239 0.63668,-2.0427 l 0.66322,-3.20996 z"
               style="font-style:normal;font-variant:normal;font-weight:normal;font-stretch:normal;font-family:Lobster;-inkscape-font-specification:Lobster;fill:#000000;fill-opacity:1;stroke:none"
               id="path4596"
               inkscape:connector-curvature="0" />
          </g>
          <g
             transform="matrix(2.0339493,0,0,2.0132117,10.439513,-126.99138)"
             style="font-style:normal;font-variant:normal;font-weight:normal;font-stretch:normal;font-size:54.33057404px;line-height:89.99999762%;font-family:'Luckiest Guy';-inkscape-font-specification:'Luckiest Guy';text-align:start;writing-mode:lr-tb;text-anchor:start;opacity:0.3;fill:#000000;fill-opacity:1;fill-rule:nonzero;stroke:#f0f0f0;stroke-width:9.94172764;stroke-miterlimit:4;stroke-dasharray:none;stroke-opacity:1"
             id="g4600">
            <path
               d="M 229.71963,89.079852 L 223.565,118.42048 q -0.58363,2.91815 -1.72436,4.7221 q -1.1142,1.80394 -2.49369,2.81203 q -1.37949,1.00808 -2.86509,1.35296 q -1.4856,0.34487 -2.81203,0.34487 q -2.33452,0 -3.76706,-0.9285 q -1.43255,-0.90198 -2.09576,-2.49369 q -0.79586,1.03461 -1.72436,1.69783 q -0.90197,0.66321 -1.857,1.03461 q -0.95503,0.39793 -1.91006,0.53058 q -0.98156,0.15917 -1.88353,0.15917 q -1.22032,0 -2.36105,-0.42446 q -1.16726,-0.42446 -2.06923,-1.19379 q -0.90197,-0.76933 -1.43254,-1.857 q -0.55711,-1.06114 -0.55711,-2.38757 q 0,-1.88353 0.74281,-3.18344 q 0.71627,-1.27337 1.98964,-2.20187 q 1.27337,-0.90197 2.99773,-1.53866 q 1.69783,-0.63668 3.66095,-1.22031 l 6.52604,-31.038467 q 0.58362,-2.918146 1.69783,-4.722091 q 1.14073,-1.803944 2.52021,-2.812031 q 1.37949,-1.008087 2.86509,-1.352959 q 1.4856,-0.344872 2.81203,-0.344872 q 0.90198,0 1.77742,0.238758 q 0.90197,0.238757 1.64477,0.689743 q 0.76933,0.424458 1.37949,1.061144 q 0.61016,0.636687 1.00809,1.432545 q 0.82238,-1.034616 1.75088,-1.697831 q 0.92851,-0.663215 1.88354,-1.034615 q 0.95502,-0.397929 1.91005,-0.530572 q 0.98156,-0.159172 1.88353,-0.159172 q 1.22032,0 2.36105,0.424458 q 1.16726,0.424458 2.06923,1.193787 q 0.90197,0.769329 1.43255,1.857002 q 0.5571,1.061144 0.5571,2.387574 q 0,1.273373 -0.15918,2.228403 l -2.54674,0 q 0.0531,-0.450987 0.0796,-0.76933 q 0.0265,-0.318343 0.0265,-0.689743 q 0,-0.928501 -0.63668,-1.379488 q -0.61016,-0.477515 -1.43255,-0.477515 q -0.45098,0 -0.95503,0.159172 q -0.50404,0.159172 -1.00808,0.636687 q -0.50405,0.450986 -0.95503,1.299901 q -0.45099,0.848915 -0.76933,2.201874 l -0.98156,4.456805 l 5.43836,0 l -0.50404,2.175345 l -5.35878,0 z m -7.87899,0 l -5.38531,0 l -4.8282,22.973768 l 5.571,-0.98156 l 4.64251,-21.992208 z m -4.90779,23.318638 l -5.59754,1.00809 l -1.03461,5.0139 q -0.21223,0.92851 -0.47752,1.77742 q -0.26529,0.84892 -0.5571,1.53866 q 0.3714,0.66321 1.19379,0.87544 q 0.84891,0.21223 1.96311,0.21223 q 0.42446,0 0.87545,-0.21223 q 0.45098,-0.1857 0.87544,-0.68974 q 0.45099,-0.47752 0.82239,-1.2999 q 0.3714,-0.82239 0.63668,-2.0427 l 1.29991,-6.18117 z m 6.26075,-29.791617 l 0.31834,-1.406015 q 0.0531,-0.318344 0.0796,-0.58363 q 0.0265,-0.291814 0.0265,-0.610157 q 0,-0.928501 -0.63668,-1.379488 q -0.61016,-0.477515 -1.43255,-0.477515 q -0.45098,0 -0.95503,0.159172 q -0.50404,0.159172 -1.00808,0.636687 q -0.50405,0.450986 -0.95503,1.299901 q -0.45099,0.848915 -0.76933,2.201874 l -0.98156,4.456805 l 5.3853,0 l 0.92851,-4.297634 z m -19.8434,32.815877 q -1.27337,0.42446 -2.36104,0.9285 q -1.1142,0.53058 -1.91006,1.19379 q -0.82239,0.68974 -1.27338,1.53866 q -0.47751,0.84891 -0.47751,1.93659 q 0,0.31834 0.15917,0.63668 q 0.15917,0.31835 0.45099,0.5571 q 0.29181,0.26529 0.68974,0.42446 q 0.39793,0.1857 0.87545,0.1857 q 0.42445,0 0.87544,-0.21223 q 0.45099,-0.1857 0.90197,-0.68974 q 0.42446,-0.47752 0.79586,-1.2999 q 0.3714,-0.82239 0.63669,-2.0427 l 0.63668,-3.15691 z"
               style="font-style:normal;font-variant:normal;font-weight:normal;font-stretch:normal;font-family:Lobster;-inkscape-font-specification:Lobster;fill:#000000;fill-opacity:1;stroke:none"
               id="path4602"
               inkscape:connector-curvature="0" />
            <path
               d="m 255.77072,104.3338 q -1.14073,1.91006 -2.62633,3.714 q -1.45908,1.80395 -3.31608,3.20996 q -1.83047,1.40602 -4.0854,2.28146 q -2.2284,0.84892 -4.90779,0.84892 q -1.93659,0 -3.50178,-0.47752 q -1.56519,-0.50404 -2.67939,-1.53866 q -1.1142,-1.03461 -1.69783,-2.65286 q -0.61016,-1.64477 -0.61016,-3.95276 q 0,-1.56519 0.31835,-3.60789 q 0.31834,-2.0427 1.00808,-4.191517 q 0.68975,-2.148817 1.83048,-4.218047 q 1.14073,-2.069231 2.75897,-3.687476 q 1.61825,-1.644773 3.79359,-2.626331 q 2.17535,-1.008087 4.96085,-1.008087 q 1.83047,0 2.9712,0.450986 q 1.16726,0.424458 1.83048,1.14073 q 0.68974,0.716272 0.9285,1.671302 q 0.26528,0.928501 0.26528,1.936588 q 0,2.361045 -1.03461,4.403747 q -1.03462,2.016174 -2.7855,3.528304 q -1.72436,1.512131 -3.97929,2.440631 q -2.25494,0.9285 -4.69557,1.08767 q -0.0531,0.61016 -0.10611,1.16726 q -0.0265,0.53057 -0.0265,1.00809 q 0,1.37949 0.23876,2.28146 q 0.26528,0.87544 0.7428,1.37949 q 0.50404,0.50404 1.22031,0.71627 q 0.74281,0.1857 1.72436,0.1857 q 1.61825,0 2.91815,-0.42446 q 1.32643,-0.42446 2.46716,-1.16726 q 1.14073,-0.7428 2.14882,-1.75089 q 1.03461,-1.00808 2.06923,-2.14881 l 1.857,0 z m -14.82949,-3.84665 q 1.53866,-0.10611 2.9712,-0.875444 q 1.43255,-0.769329 2.52022,-1.989645 q 1.08767,-1.246844 1.72436,-2.812031 q 0.66322,-1.591716 0.66322,-3.289547 q 0,-1.008087 -0.29182,-1.618244 q -0.29181,-0.610158 -1.06114,-0.610158 q -1.03462,0 -2.04271,1.008087 q -0.98155,0.981558 -1.857,2.573274 q -0.87544,1.591716 -1.56518,3.60789 q -0.66322,1.989645 -1.06115,4.005818 z"
               style="font-style:normal;font-variant:normal;font-weight:normal;font-stretch:normal;font-family:Lobster;-inkscape-font-specification:Lobster;fill:#000000;fill-opacity:1;stroke:none"
               id="path4604"
               inkscape:connector-curvature="0" />
            <path
               d="m 276.67526,104.3338 q -1.14073,1.91006 -2.62634,3.714 q -1.45907,1.80395 -3.31607,3.20996 q -1.83047,1.40602 -4.0854,2.28146 q -2.22841,0.84892 -4.9078,0.84892 q -1.93658,0 -3.50177,-0.47752 q -1.56519,-0.50404 -2.67939,-1.53866 q -1.1142,-1.03461 -1.69783,-2.65286 q -0.61016,-1.64477 -0.61016,-3.95276 q 0,-1.56519 0.31834,-3.60789 q 0.31835,-2.06923 1.00809,-4.218045 q 0.71627,-2.148817 1.83048,-4.218048 q 1.14073,-2.069231 2.75897,-3.687475 q 1.64477,-1.618245 3.79359,-2.599803 q 2.14882,-1.008087 4.90779,-1.008087 q 1.80395,0 2.9712,0.450986 q 1.16726,0.424458 1.85701,1.14073 q 0.68974,0.689744 0.95503,1.591716 q 0.26528,0.901972 0.26528,1.803945 q 0,1.008087 -0.23876,1.750887 q -0.21222,0.716273 -0.61015,1.220316 q -0.39793,0.504043 -0.9285,0.742801 q -0.53058,0.238757 -1.11421,0.238757 q -0.9285,0 -1.91006,-0.636686 q 0.66322,-1.750888 0.66322,-3.209961 q 0,-1.008087 -0.3714,-1.618244 q -0.3714,-0.610158 -1.14073,-0.610158 q -0.84892,0 -1.69783,0.769329 q -0.84892,0.76933 -1.64477,2.042702 q -0.76933,1.273373 -1.43255,2.918146 q -0.66321,1.644774 -1.16726,3.42219 q -0.47751,1.777412 -0.76933,3.554832 q -0.26528,1.75089 -0.26528,3.26302 q 0,1.37949 0.23876,2.28146 q 0.26528,0.87544 0.7428,1.37949 q 0.50404,0.50404 1.22031,0.71627 q 0.7428,0.1857 1.72436,0.1857 q 1.61825,0 2.91815,-0.42446 q 1.32643,-0.42446 2.46716,-1.16726 q 1.14073,-0.7428 2.14881,-1.75089 q 1.03462,-1.00808 2.06923,-2.14881 l 1.85701,0 z"
               style="font-style:normal;font-variant:normal;font-weight:normal;font-stretch:normal;font-family:Lobster;-inkscape-font-specification:Lobster;fill:#000000;fill-opacity:1;stroke:none"
               id="path4606"
               inkscape:connector-curvature="0" />
            <path
               d="m 278.34655,89.079852 l -1.80394,0 l 0.45099,-2.175345 l 1.77741,0 l 1.64477,-7.507594 l 8.03817,-1.087673 q -0.13264,0.530572 -0.26529,1.167259 q -0.13264,0.610157 -0.26528,1.299901 q -0.29182,1.14073 -0.63669,2.732446 q -0.31834,1.565187 -0.68974,3.395661 l 3.26302,0 l -0.42446,2.175345 l -3.26302,0 l -3.47525,16.288558 q -0.13264,0.53057 -0.21222,1.03462 q -0.0531,0.47751 -0.0531,0.87544 q 0,0.84892 0.3714,1.40602 q 0.39793,0.5571 1.51213,0.5571 q 0.29181,0 0.68974,0 q 0.39793,-0.0265 0.7428,-0.15917 q -0.61015,1.75088 -1.32643,2.81203 q -0.71627,1.03461 -1.45907,1.59171 q -0.7428,0.55711 -1.51213,0.71628 q -0.7428,0.1857 -1.45907,0.1857 q -1.45908,0 -2.49369,-0.45099 q -1.03462,-0.47751 -1.69783,-1.2999 q -0.63669,-0.82239 -0.9285,-1.93659 q -0.31835,-1.14073 -0.31835,-2.44063 q 0,-1.40602 0.31835,-2.89162 l 3.47524,-16.288558 z"
               style="font-style:normal;font-variant:normal;font-weight:normal;font-stretch:normal;font-family:Lobster;-inkscape-font-specification:Lobster;fill:#000000;fill-opacity:1;stroke:none"
               id="path4608"
               inkscape:connector-curvature="0" />
          </g>
        </g>
        <g
           id="g4270">
          <g
             transform="matrix(0.57093309,0,0,0.56511198,1.1008142,56.653377)"
             style="font-style:normal;font-variant:normal;font-weight:normal;font-stretch:normal;font-size:54.33057404px;line-height:89.99999762%;font-family:'Luckiest Guy';-inkscape-font-specification:'Luckiest Guy';text-align:start;writing-mode:lr-tb;text-anchor:start;opacity:1;fill:#0080ff;fill-opacity:1;fill-rule:nonzero;stroke:#f0f0f0;stroke-width:9.94172764;stroke-miterlimit:4;stroke-dasharray:none;stroke-opacity:1"
             id="g4542">
            <path
               d="m 27.686938,114.06979 l 5.756706,-27.165283 l 7.825937,0 l -0.689744,3.369132 q 0.716273,-0.636686 1.459073,-1.246844 q 0.742801,-0.610158 1.538659,-1.061144 q 0.822387,-0.477515 1.697831,-0.76933 q 0.875444,-0.291814 1.857002,-0.291814 q 0.928501,0 1.618244,0.344871 q 0.716273,0.344872 1.193787,0.901973 q 0.477515,0.557101 0.716273,1.299901 q 0.238757,0.742801 0.238757,1.538659 q 0,0.716272 -0.238757,1.432545 q -0.238758,0.689743 -0.742801,1.246844 q -0.477515,0.5571 -1.220316,0.928501 q -0.742801,0.344872 -1.724359,0.344872 q -0.769329,0 -1.193787,-0.265286 q -0.397929,-0.265286 -0.610158,-0.663215 q -0.212228,-0.397929 -0.318343,-0.848916 q -0.07959,-0.477514 -0.1857,-0.875443 q -0.106114,-0.397929 -0.291815,-0.663215 q -0.159171,-0.265286 -0.5571,-0.265286 q -1.246845,0 -2.09576,0.583629 q -0.848915,0.5571 -1.857002,1.485601 l -4.35069,20.639248 l -7.825937,0 z"
               style="font-style:normal;font-variant:normal;font-weight:normal;font-stretch:normal;font-family:Lobster;-inkscape-font-specification:Lobster;fill:#0080ff;fill-opacity:1;stroke:none"
               id="path4545"
               inkscape:connector-curvature="0" />
            <path
               d="m 81.089011,104.3338 q -0.76933,2.20187 -1.671302,3.82012 q -0.901973,1.61824 -1.883531,2.73244 q -0.95503,1.1142 -1.963116,1.80395 q -1.008087,0.68974 -1.963117,1.06114 q -0.955029,0.3714 -1.830473,0.50404 q -0.875444,0.13265 -1.591716,0.13265 q -2.307989,0 -3.687476,-1.24685 q -1.352958,-1.27337 -1.644773,-3.74053 q -0.663215,0.9285 -1.459073,1.83047 q -0.795858,0.87545 -1.777416,1.59172 q -0.981559,0.68974 -2.201874,1.14073 q -1.193787,0.42446 -2.65286,0.42446 q -1.406016,0 -2.705917,-0.45099 q -1.299902,-0.45099 -2.307989,-1.4856 q -1.008087,-1.03462 -1.618244,-2.70592 q -0.610158,-1.6713 -0.610158,-4.0854 q 0,-1.857 0.3714,-3.97929 q 0.371401,-2.122291 1.14073,-4.244579 q 0.769329,-2.122288 1.910059,-4.058876 q 1.167259,-1.963116 2.705918,-3.448718 q 1.565187,-1.51213 3.528303,-2.387574 q 1.963117,-0.901972 4.324162,-0.901972 q 2.307989,0 3.342604,0.795858 q 1.061144,0.795858 1.061144,1.963116 l 0,0.397929 l 0.583629,-2.891617 l 7.825937,0 l -3.899704,18.463903 q -0.132643,0.45099 -0.1857,0.90198 q -0.05306,0.42445 -0.05306,0.84891 q 0,2.33452 2.228402,2.33452 q 0.795858,0 1.459073,-0.39793 q 0.689744,-0.42446 1.246844,-1.1142 q 0.557101,-0.68975 0.981559,-1.61825 q 0.424457,-0.95503 0.716272,-1.98964 l 2.28146,0 z M 67.400253,92.077584 q 0,-0.238758 -0.106115,-0.583629 q -0.106114,-0.371401 -0.3714,-0.689744 Q 66.68398,90.459339 66.259523,90.24711 Q 65.835065,90.008353 65.17185,90.008353 q -1.14073,0 -2.175345,0.742801 q -1.008087,0.742801 -1.857002,1.989645 q -0.848915,1.220315 -1.51213,2.785503 q -0.663215,1.565187 -1.14073,3.236489 q -0.450986,1.644769 -0.689744,3.263019 q -0.238757,1.59172 -0.238757,2.86509 q 0,1.56519 0.291814,2.4141 q 0.291815,0.84892 0.689744,1.27337 q 0.424458,0.39793 0.901972,0.47752 q 0.477515,0.0796 0.848916,0.0796 q 0.610157,0 1.273372,-0.29181 q 0.689744,-0.31834 1.299902,-0.90197 q 0.636686,-0.61016 1.14073,-1.51213 q 0.530572,-0.90198 0.795858,-2.09576 l 2.599803,-12.256216 z"
               style="font-style:normal;font-variant:normal;font-weight:normal;font-stretch:normal;font-family:Lobster;-inkscape-font-specification:Lobster;fill:#0080ff;fill-opacity:1;stroke:none"
               id="path4547"
               inkscape:connector-curvature="0" />
            <path
               d="m 101.48951,104.3338 q -1.14073,1.91006 -2.626334,3.714 q -1.459073,1.80395 -3.316075,3.20996 q -1.830474,1.40602 -4.085405,2.28146 q -2.228402,0.84892 -4.907791,0.84892 q -1.936588,0 -3.501775,-0.47752 q -1.565188,-0.50404 -2.679389,-1.53866 q -1.114201,-1.03461 -1.69783,-2.65286 q -0.610158,-1.64477 -0.610158,-3.95276 q 0,-1.56519 0.318343,-3.60789 q 0.318343,-2.06923 1.008087,-4.218045 q 0.716272,-2.148817 1.830473,-4.218048 q 1.14073,-2.069231 2.758975,-3.687475 q 1.644773,-1.618245 3.79359,-2.599803 q 2.148816,-1.008087 4.907791,-1.008087 q 1.803944,0 2.971203,0.450986 q 1.167258,0.424458 1.857002,1.14073 q 0.689744,0.689744 0.95503,1.591716 q 0.265286,0.901972 0.265286,1.803945 q 0,1.008087 -0.238758,1.750887 q -0.212229,0.716273 -0.610158,1.220316 q -0.397929,0.504043 -0.928501,0.742801 q -0.530572,0.238757 -1.114201,0.238757 q -0.928501,0 -1.910059,-0.636686 q 0.663215,-1.750888 0.663215,-3.209961 q 0,-1.008087 -0.371401,-1.618244 q -0.3714,-0.610158 -1.140729,-0.610158 q -0.848916,0 -1.697831,0.769329 q -0.848915,0.76933 -1.644773,2.042702 q -0.769329,1.273373 -1.432544,2.918146 q -0.663215,1.644774 -1.167259,3.42219 q -0.477515,1.777412 -0.769329,3.554832 q -0.265286,1.75089 -0.265286,3.26302 q 0,1.37949 0.238757,2.28146 q 0.265286,0.87544 0.742801,1.37949 q 0.504043,0.50404 1.220316,0.71627 q 0.7428,0.1857 1.724359,0.1857 q 1.618244,0 2.918146,-0.42446 q 1.32643,-0.42446 2.46716,-1.16726 q 1.140729,-0.7428 2.148816,-1.75089 q 1.034616,-1.00808 2.069231,-2.14881 l 1.857005,0 z"
               style="font-style:normal;font-variant:normal;font-weight:normal;font-stretch:normal;font-family:Lobster;-inkscape-font-specification:Lobster;fill:#0080ff;fill-opacity:1;stroke:none"
               id="path4549"
               inkscape:connector-curvature="0" />
            <path
               d="m 113.10903,79.688727 q 0,0.901973 -0.34487,1.697831 q -0.34487,0.769329 -0.95503,1.352958 q -0.58363,0.557101 -1.37949,0.901973 q -0.76933,0.318343 -1.6713,0.318343 q -0.90197,0 -1.69783,-0.318343 q -0.76933,-0.344872 -1.35296,-0.901973 q -0.58363,-0.583629 -0.9285,-1.352958 q -0.31834,-0.795858 -0.31834,-1.697831 q 0,-0.901972 0.31834,-1.671302 q 0.34487,-0.795858 0.9285,-1.379487 q 0.58363,-0.610158 1.35296,-0.955029 q 0.79586,-0.344872 1.69783,-0.344872 q 0.90197,0 1.6713,0.344872 q 0.79586,0.344871 1.37949,0.955029 q 0.61016,0.583629 0.95503,1.379487 q 0.34487,0.76933 0.34487,1.671302 z m 3.36913,24.645073 q -0.76933,2.20187 -1.72436,3.82012 q -0.9285,1.61824 -1.96311,2.73244 q -1.00809,1.1142 -2.09576,1.80395 q -1.06115,0.68974 -2.06923,1.06114 q -1.00809,0.3714 -1.93659,0.50404 q -0.90197,0.13265 -1.61825,0.13265 q -1.22031,0 -2.28146,-0.3714 q -1.06114,-0.3714 -1.857,-1.16726 q -0.76933,-0.79586 -1.220313,-2.01618 q -0.450986,-1.22031 -0.450986,-2.94467 q 0,-0.7428 0.106114,-1.61824 q 0.106115,-0.90198 0.318343,-1.93659 l 3.687472,-17.429293 l 7.82594,0 l -3.8997,18.463903 q -0.13265,0.45099 -0.1857,0.90198 q -0.0265,0.42445 -0.0265,0.84891 q 0,1.14073 0.53057,1.59172 q 0.53057,0.42445 1.6713,0.42445 q 0.79586,0 1.53866,-0.34487 q 0.76933,-0.3714 1.40602,-1.00808 q 0.63668,-0.63669 1.14073,-1.51213 q 0.50404,-0.90198 0.82238,-1.93659 l 2.28146,0 z"
               style="font-style:normal;font-variant:normal;font-weight:normal;font-stretch:normal;font-family:Lobster;-inkscape-font-specification:Lobster;fill:#0080ff;fill-opacity:1;stroke:none"
               id="path4551"
               inkscape:connector-curvature="0" />
            <path
               d="m 143.93526,104.3338 q -1.14072,3.3426 -2.46715,5.33225 q -1.29991,1.98964 -2.65286,3.05079 q -1.32644,1.03461 -2.62634,1.35295 q -1.27337,0.31835 -2.36104,0.31835 q -1.80395,0 -3.02426,-0.50405 q -1.22032,-0.53057 -1.96312,-1.37948 q -0.7428,-0.87545 -1.08767,-1.96312 q -0.31834,-1.1142 -0.31834,-2.28146 q 0,-1.37949 0.3714,-3.20996 q 0.39792,-1.857 0.84891,-3.79359 q 0.45099,-1.936588 0.82239,-3.740533 q 0.39793,-1.803945 0.39793,-3.103846 q 0,-2.785503 -1.96312,-2.785503 q -0.7428,0 -1.37949,0.397929 q -0.63668,0.397929 -1.16726,1.087672 q -0.53057,0.663215 -0.95503,1.591716 q -0.42445,0.901973 -0.7428,1.936588 l -3.68747,17.429287 l -7.82594,0 l 5.75671,-27.165283 l 7.82593,0 l -0.58362,2.812031 q 0.87544,-0.981558 1.72435,-1.565187 q 0.87545,-0.610158 1.69784,-0.928501 q 0.82238,-0.318343 1.53865,-0.424458 q 0.7428,-0.106114 1.37949,-0.106114 q 1.2999,0 2.4141,0.344872 q 1.11421,0.344871 1.91006,1.087672 q 0.82239,0.742801 1.27338,1.91006 q 0.45098,1.167258 0.45098,2.785503 q 0,1.087672 -0.21223,2.361045 q -0.1857,1.246844 -0.47751,2.573274 q -0.29182,1.299902 -0.63669,2.599806 q -0.31834,1.2999 -0.61016,2.49369 q -0.29181,1.19378 -0.50404,2.2284 q -0.1857,1.00808 -0.1857,1.77741 q 0,1.00809 0.45099,1.64478 q 0.47751,0.63668 1.72436,0.63668 q 0.87544,0 1.53865,-0.34487 q 0.66322,-0.34487 1.19379,-0.98156 q 0.53057,-0.63668 0.95503,-1.51213 q 0.45099,-0.90197 0.87545,-1.96311 l 2.28145,0 z"
               style="font-style:normal;font-variant:normal;font-weight:normal;font-stretch:normal;font-family:Lobster;-inkscape-font-specification:Lobster;fill:#0080ff;fill-opacity:1;stroke:none"
               id="path4553"
               inkscape:connector-curvature="0" />
            <path
               d="m 154.65282,111.36388 q -0.61016,0.63668 -1.2999,1.19378 q -0.68974,0.53058 -1.51213,0.95503 q -0.79586,0.39793 -1.72436,0.63669 q -0.9285,0.23876 -1.98964,0.23876 q -1.40602,0 -2.70592,-0.45099 q -1.2999,-0.45099 -2.30799,-1.4856 q -1.00809,-1.03462 -1.61824,-2.70592 q -0.61016,-1.6713 -0.61016,-4.0854 q 0,-1.857 0.3714,-3.97929 q 0.3714,-2.122291 1.14073,-4.244579 q 0.76933,-2.122288 1.91006,-4.058876 q 1.16726,-1.963116 2.70591,-3.448718 q 1.56519,-1.51213 3.52831,-2.387574 q 1.96311,-0.901972 4.32416,-0.901972 q 2.30799,0 3.3426,0.795858 q 1.06115,0.795858 1.06115,1.963116 l 0,0.106115 l 0.53057,-2.599803 l 7.87899,0 l -6.63215,31.515973 q -0.58363,2.91815 -1.72435,4.7221 q -1.11421,1.80394 -2.49369,2.81203 q -1.35296,1.00808 -2.86509,1.35296 q -1.4856,0.34487 -2.81203,0.34487 q -1.22032,0 -2.38758,-0.42446 q -1.14073,-0.42446 -2.0427,-1.19379 q -0.87544,-0.76933 -1.43254,-1.857 q -0.53058,-1.06114 -0.53058,-2.38757 q 0,-1.91006 0.71628,-3.20996 q 0.7428,-1.29991 2.01617,-2.20188 q 1.27337,-0.90197 2.9712,-1.53866 q 1.72436,-0.61015 3.68748,-1.19378 l 0.50404,-2.28146 z m 4.11193,-19.471996 q -0.053,-0.265286 -0.1857,-0.58363 q -0.10611,-0.318343 -0.34487,-0.610157 q -0.23875,-0.291815 -0.66321,-0.477515 q -0.39793,-0.212229 -1.03462,-0.212229 q -1.14073,0 -2.17534,0.742801 q -1.00809,0.742801 -1.85701,1.989645 q -0.84891,1.220315 -1.51213,2.785503 q -0.66321,1.565187 -1.14073,3.236489 q -0.45098,1.644769 -0.68974,3.263019 q -0.23876,1.59172 -0.23876,2.86509 q 0,1.56519 0.29182,2.4141 q 0.29181,0.84892 0.68974,1.27337 q 0.42446,0.39793 0.90197,0.47752 q 0.47752,0.0796 0.84892,0.0796 q 0.5571,0 1.16726,-0.23875 q 0.63668,-0.26529 1.24684,-0.76933 q 0.61016,-0.50405 1.1142,-1.27338 q 0.50405,-0.76933 0.82239,-1.80394 l 2.75897,-13.158186 z m -4.98737,23.477816 q -1.27338,0.42445 -2.38758,0.95502 q -1.1142,0.53058 -1.93658,1.19379 q -0.79586,0.68975 -1.27338,1.53866 q -0.45098,0.87544 -0.45098,1.96312 q 0,0.31834 0.15917,0.63668 q 0.15917,0.31835 0.45098,0.5571 q 0.29182,0.26529 0.68975,0.42446 q 0.39793,0.1857 0.87544,0.1857 q 0.42446,0 0.87545,-0.21223 q 0.47751,-0.1857 0.90197,-0.68974 q 0.42446,-0.47752 0.79586,-1.2999 q 0.3714,-0.82239 0.63668,-2.0427 l 0.66322,-3.20996 z"
               style="font-style:normal;font-variant:normal;font-weight:normal;font-stretch:normal;font-family:Lobster;-inkscape-font-specification:Lobster;fill:#0080ff;fill-opacity:1;stroke:none"
               id="path4555"
               inkscape:connector-curvature="0" />
          </g>
          <path
             style="font-style:normal;font-variant:normal;font-weight:normal;font-stretch:normal;font-family:Lobster;-inkscape-font-specification:Lobster;opacity:1;fill:#0080ff;fill-opacity:1;stroke:none"
             d="M 17.040889,99.527031 C 16.467737,99.014652 15.730373,98.685868 14.996356,98.448126 C 14.05106,98.141949 13.183817,98.028115 12.042814,98.028115 c -0.979444,0 -1.938322,0.105373 -2.8773789,0.315254 c -0.9289585,0.199888 -1.812783,0.483933 -2.6508669,0.853726 c -0.827985,0.369792 -1.5948942,0.810035 -2.3017098,1.319755 c -0.6967174,0.49972 -1.3030513,1.05472 -1.8180195,1.66438 c -0.5048698,0.59966 -0.8982935,1.2393 -1.1810208,1.91892 c -0.28272729,0.66963 -0.42433655,1.35912 -0.42433655,2.06872 c 0,1.03942 0.28796385,1.7684 0.86351165,2.18817 c 0.5856461,0.41977 1.4358342,0.62953 2.485962,0.62953 c 0,0 -0.083442,-0.13752 -0.1190686,-0.20952 c -0.053007,-0.10712 -0.1018841,-0.21678 -0.1403635,-0.32993 c -0.064796,-0.19054 -0.1195537,-0.38577 -0.1513378,-0.5845 c -0.050612,-0.31645 -0.061324,-0.56968 -0.061324,-0.95946 c 0,-0.83953 0.1064576,-1.60429 0.3185019,-2.2939 c 0.2221426,-0.69961 0.5148415,-1.32421 0.8783452,-1.8739 c 0.3736019,-0.55968 0.8165855,-1.03201 1.3175196,-1.45388 c 0.4841921,-0.40777 1.0224411,-0.76808 1.605362,-1.01918 c 0.6959222,-0.299789 1.4482918,-0.511717 2.2057562,-0.559037 c 0.6645798,-0.0415 1.3648878,-0.0015 1.9822208,0.245739 c 0.509109,0.203778 0.963305,0.563708 1.31752,0.979048 c 0.319611,0.37477 0.538685,0.83808 0.680522,1.308 c 0.155896,0.5165 0.150456,1.15545 0.171119,1.60759 c 0.02796,0.61148 -0.04842,1.23024 -0.182002,1.82788 c -0.131714,0.58918 -0.343758,1.16337 -0.605347,1.70844 c -0.249434,0.51974 -0.550443,1.02013 -0.91099,1.4715 c -0.355294,0.4448 -0.750936,0.87185 -1.218608,1.19933 c -0.431442,0.30211 -0.927754,0.51358 -1.4283026,0.68142 c -0.2990246,0.10026 -0.614528,0.15113 -0.9278034,0.18993 c -0.2766656,0.0341 -0.834828,0.0372 -0.834828,0.0372 l -0.1374861,0.59428 l -0.1374919,0.59331 c 0,0 0.6367247,0.0163 0.947589,0.0773 c 0.3157732,0.062 0.6389445,0.13521 0.9198882,0.29078 c 0.3721998,0.20609 0.7180438,0.48623 0.9693518,0.82729 c 0.220264,0.29893 0.352448,0.66176 0.437195,1.02213 c 0.102578,0.43619 0.101985,0.89409 0.07715,1.34128 c -0.02998,0.54008 -0.107481,1.08398 -0.272011,1.59977 c -0.16489,0.51692 -0.39116,1.0249 -0.707226,1.46758 c -0.2719599,0.38092 -0.6153235,0.73996 -0.9990229,0.98982 c -0.3937987,0.24986 -0.8233669,0.37497 -1.2878494,0.37497 c -0.212044,0 -0.4192207,-0.0301 -0.6211713,-0.0901 c -0.2120441,-0.06 -0.3935506,-0.15967 -0.5450105,-0.29959 c -0.1615573,-0.12992 -0.292704,-0.30489 -0.3936766,-0.52477 c -0.1009779,-0.21988 -0.151333,-0.48515 -0.151333,-0.79498 c 0,-0.26985 0.035152,-0.54921 0.1058346,-0.83904 c 0.070684,-0.28984 0.1714075,-0.55981 0.3026762,-0.80967 c 0.1211697,-0.24986 0.2675186,-0.46998 0.4391702,-0.65988 c 0.1615576,-0.18989 0.3335882,-0.315 0.5153372,-0.37497 C 7.0938687,115.19523 6.6091908,114.92056 6.043741,114.92056 c -0.3130172,0 -0.6057159,0.08 -0.8783499,0.23986 c -0.2827223,0.15991 -0.5298015,0.38004 -0.7418459,0.65988 c -0.212044,0.28984 -0.3793296,0.6294 -0.5004993,1.01919 c -0.1211694,0.38978 -0.1810097,0.81497 -0.1810097,1.27471 c 0,0.62965 0.1159329,1.18368 0.3481738,1.6634 c 0.2221425,0.47974 0.5347901,0.87951 0.9386817,1.19934 c 0.4038916,0.31982 0.8790891,0.55969 1.4243477,0.71959 c 0.5351598,0.16991 1.1100945,0.25554 1.7260358,0.25554 c 0.9895429,0 1.9037838,-0.19569 2.7418668,-0.58547 c 0.827986,-0.38978 1.54453,-0.89865 2.150368,-1.52829 c 0.595749,-0.62965 1.065214,-1.33987 1.408521,-2.12942 c 0.333214,-0.77957 0.499512,-1.56407 0.499512,-2.35363 c 0,-0.68962 -0.14635,-1.35937 -0.439175,-2.00901 c -0.302918,-0.63964 -0.787592,-1.19933 -1.45402,-1.67906 c 0.898664,-0.22987 1.703839,-0.64708 2.423371,-1.18366 c 0.772227,-0.57588 1.411829,-1.33116 1.952539,-2.12453 c 0.408166,-0.59889 0.733621,-1.26215 0.949564,-1.95222 c 0.27063,-0.8648 0.418782,-1.77921 0.41544,-2.68454 c -0.0025,-0.69338 -0.07649,-1.40887 -0.333341,-2.05404 c -0.318462,-0.79992 -0.808391,-1.56489 -1.453032,-2.141169 z"
             id="path4557"
             inkscape:connector-curvature="0"
             sodipodi:nodetypes="ssscccccsccssssccssssssssssssccccssssssscscccsscccsccsscscscccsccssscss" />
          <g
             transform="matrix(0.57093309,0,0,0.56511198,2.7265384,56.653377)"
             style="font-style:normal;font-variant:normal;font-weight:normal;font-stretch:normal;font-size:54.33057404px;line-height:89.99999762%;font-family:'Luckiest Guy';-inkscape-font-specification:'Luckiest Guy';text-align:start;writing-mode:lr-tb;text-anchor:start;opacity:1;fill:#0080ff;fill-opacity:1;fill-rule:nonzero;stroke:#f0f0f0;stroke-width:9.94172764;stroke-miterlimit:4;stroke-dasharray:none;stroke-opacity:1"
             id="g4559">
            <path
               d="M 229.71963,89.079852 L 223.565,118.42048 q -0.58363,2.91815 -1.72436,4.7221 q -1.1142,1.80394 -2.49369,2.81203 q -1.37949,1.00808 -2.86509,1.35296 q -1.4856,0.34487 -2.81203,0.34487 q -2.33452,0 -3.76706,-0.9285 q -1.43255,-0.90198 -2.09576,-2.49369 q -0.79586,1.03461 -1.72436,1.69783 q -0.90197,0.66321 -1.857,1.03461 q -0.95503,0.39793 -1.91006,0.53058 q -0.98156,0.15917 -1.88353,0.15917 q -1.22032,0 -2.36105,-0.42446 q -1.16726,-0.42446 -2.06923,-1.19379 q -0.90197,-0.76933 -1.43254,-1.857 q -0.55711,-1.06114 -0.55711,-2.38757 q 0,-1.88353 0.74281,-3.18344 q 0.71627,-1.27337 1.98964,-2.20187 q 1.27337,-0.90197 2.99773,-1.53866 q 1.69783,-0.63668 3.66095,-1.22031 l 6.52604,-31.038467 q 0.58362,-2.918146 1.69783,-4.722091 q 1.14073,-1.803944 2.52021,-2.812031 q 1.37949,-1.008087 2.86509,-1.352959 q 1.4856,-0.344872 2.81203,-0.344872 q 0.90198,0 1.77742,0.238758 q 0.90197,0.238757 1.64477,0.689743 q 0.76933,0.424458 1.37949,1.061144 q 0.61016,0.636687 1.00809,1.432545 q 0.82238,-1.034616 1.75088,-1.697831 q 0.92851,-0.663215 1.88354,-1.034615 q 0.95502,-0.397929 1.91005,-0.530572 q 0.98156,-0.159172 1.88353,-0.159172 q 1.22032,0 2.36105,0.424458 q 1.16726,0.424458 2.06923,1.193787 q 0.90197,0.769329 1.43255,1.857002 q 0.5571,1.061144 0.5571,2.387574 q 0,1.273373 -0.15918,2.228403 l -2.54674,0 q 0.0531,-0.450987 0.0796,-0.76933 q 0.0265,-0.318343 0.0265,-0.689743 q 0,-0.928501 -0.63668,-1.379488 q -0.61016,-0.477515 -1.43255,-0.477515 q -0.45098,0 -0.95503,0.159172 q -0.50404,0.159172 -1.00808,0.636687 q -0.50405,0.450986 -0.95503,1.299901 q -0.45099,0.848915 -0.76933,2.201874 l -0.98156,4.456805 l 5.43836,0 l -0.50404,2.175345 l -5.35878,0 z m -7.87899,0 l -5.38531,0 l -4.8282,22.973768 l 5.571,-0.98156 l 4.64251,-21.992208 z m -4.90779,23.318638 l -5.59754,1.00809 l -1.03461,5.0139 q -0.21223,0.92851 -0.47752,1.77742 q -0.26529,0.84892 -0.5571,1.53866 q 0.3714,0.66321 1.19379,0.87544 q 0.84891,0.21223 1.96311,0.21223 q 0.42446,0 0.87545,-0.21223 q 0.45098,-0.1857 0.87544,-0.68974 q 0.45099,-0.47752 0.82239,-1.2999 q 0.3714,-0.82239 0.63668,-2.0427 l 1.29991,-6.18117 z m 6.26075,-29.791617 l 0.31834,-1.406015 q 0.0531,-0.318344 0.0796,-0.58363 q 0.0265,-0.291814 0.0265,-0.610157 q 0,-0.928501 -0.63668,-1.379488 q -0.61016,-0.477515 -1.43255,-0.477515 q -0.45098,0 -0.95503,0.159172 q -0.50404,0.159172 -1.00808,0.636687 q -0.50405,0.450986 -0.95503,1.299901 q -0.45099,0.848915 -0.76933,2.201874 l -0.98156,4.456805 l 5.3853,0 l 0.92851,-4.297634 z m -19.8434,32.815877 q -1.27337,0.42446 -2.36104,0.9285 q -1.1142,0.53058 -1.91006,1.19379 q -0.82239,0.68974 -1.27338,1.53866 q -0.47751,0.84891 -0.47751,1.93659 q 0,0.31834 0.15917,0.63668 q 0.15917,0.31835 0.45099,0.5571 q 0.29181,0.26529 0.68974,0.42446 q 0.39793,0.1857 0.87545,0.1857 q 0.42445,0 0.87544,-0.21223 q 0.45099,-0.1857 0.90197,-0.68974 q 0.42446,-0.47752 0.79586,-1.2999 q 0.3714,-0.82239 0.63669,-2.0427 l 0.63668,-3.15691 z"
               style="font-style:normal;font-variant:normal;font-weight:normal;font-stretch:normal;font-family:Lobster;-inkscape-font-specification:Lobster;fill:#0080ff;fill-opacity:1;stroke:none"
               id="path4561"
               inkscape:connector-curvature="0" />
            <path
               d="m 255.77072,104.3338 q -1.14073,1.91006 -2.62633,3.714 q -1.45908,1.80395 -3.31608,3.20996 q -1.83047,1.40602 -4.0854,2.28146 q -2.2284,0.84892 -4.90779,0.84892 q -1.93659,0 -3.50178,-0.47752 q -1.56519,-0.50404 -2.67939,-1.53866 q -1.1142,-1.03461 -1.69783,-2.65286 q -0.61016,-1.64477 -0.61016,-3.95276 q 0,-1.56519 0.31835,-3.60789 q 0.31834,-2.0427 1.00808,-4.191517 q 0.68975,-2.148817 1.83048,-4.218047 q 1.14073,-2.069231 2.75897,-3.687476 q 1.61825,-1.644773 3.79359,-2.626331 q 2.17535,-1.008087 4.96085,-1.008087 q 1.83047,0 2.9712,0.450986 q 1.16726,0.424458 1.83048,1.14073 q 0.68974,0.716272 0.9285,1.671302 q 0.26528,0.928501 0.26528,1.936588 q 0,2.361045 -1.03461,4.403747 q -1.03462,2.016174 -2.7855,3.528304 q -1.72436,1.512131 -3.97929,2.440631 q -2.25494,0.9285 -4.69557,1.08767 q -0.0531,0.61016 -0.10611,1.16726 q -0.0265,0.53057 -0.0265,1.00809 q 0,1.37949 0.23876,2.28146 q 0.26528,0.87544 0.7428,1.37949 q 0.50404,0.50404 1.22031,0.71627 q 0.74281,0.1857 1.72436,0.1857 q 1.61825,0 2.91815,-0.42446 q 1.32643,-0.42446 2.46716,-1.16726 q 1.14073,-0.7428 2.14882,-1.75089 q 1.03461,-1.00808 2.06923,-2.14881 l 1.857,0 z m -14.82949,-3.84665 q 1.53866,-0.10611 2.9712,-0.875444 q 1.43255,-0.769329 2.52022,-1.989645 q 1.08767,-1.246844 1.72436,-2.812031 q 0.66322,-1.591716 0.66322,-3.289547 q 0,-1.008087 -0.29182,-1.618244 q -0.29181,-0.610158 -1.06114,-0.610158 q -1.03462,0 -2.04271,1.008087 q -0.98155,0.981558 -1.857,2.573274 q -0.87544,1.591716 -1.56518,3.60789 q -0.66322,1.989645 -1.06115,4.005818 z"
               style="font-style:normal;font-variant:normal;font-weight:normal;font-stretch:normal;font-family:Lobster;-inkscape-font-specification:Lobster;fill:#0080ff;fill-opacity:1;stroke:none"
               id="path4563"
               inkscape:connector-curvature="0" />
            <path
               d="m 276.67526,104.3338 q -1.14073,1.91006 -2.62634,3.714 q -1.45907,1.80395 -3.31607,3.20996 q -1.83047,1.40602 -4.0854,2.28146 q -2.22841,0.84892 -4.9078,0.84892 q -1.93658,0 -3.50177,-0.47752 q -1.56519,-0.50404 -2.67939,-1.53866 q -1.1142,-1.03461 -1.69783,-2.65286 q -0.61016,-1.64477 -0.61016,-3.95276 q 0,-1.56519 0.31834,-3.60789 q 0.31835,-2.06923 1.00809,-4.218045 q 0.71627,-2.148817 1.83048,-4.218048 q 1.14073,-2.069231 2.75897,-3.687475 q 1.64477,-1.618245 3.79359,-2.599803 q 2.14882,-1.008087 4.90779,-1.008087 q 1.80395,0 2.9712,0.450986 q 1.16726,0.424458 1.85701,1.14073 q 0.68974,0.689744 0.95503,1.591716 q 0.26528,0.901972 0.26528,1.803945 q 0,1.008087 -0.23876,1.750887 q -0.21222,0.716273 -0.61015,1.220316 q -0.39793,0.504043 -0.9285,0.742801 q -0.53058,0.238757 -1.11421,0.238757 q -0.9285,0 -1.91006,-0.636686 q 0.66322,-1.750888 0.66322,-3.209961 q 0,-1.008087 -0.3714,-1.618244 q -0.3714,-0.610158 -1.14073,-0.610158 q -0.84892,0 -1.69783,0.769329 q -0.84892,0.76933 -1.64477,2.042702 q -0.76933,1.273373 -1.43255,2.918146 q -0.66321,1.644774 -1.16726,3.42219 q -0.47751,1.777412 -0.76933,3.554832 q -0.26528,1.75089 -0.26528,3.26302 q 0,1.37949 0.23876,2.28146 q 0.26528,0.87544 0.7428,1.37949 q 0.50404,0.50404 1.22031,0.71627 q 0.7428,0.1857 1.72436,0.1857 q 1.61825,0 2.91815,-0.42446 q 1.32643,-0.42446 2.46716,-1.16726 q 1.14073,-0.7428 2.14881,-1.75089 q 1.03462,-1.00808 2.06923,-2.14881 l 1.85701,0 z"
               style="font-style:normal;font-variant:normal;font-weight:normal;font-stretch:normal;font-family:Lobster;-inkscape-font-specification:Lobster;fill:#0080ff;fill-opacity:1;stroke:none"
               id="path4565"
               inkscape:connector-curvature="0" />
            <path
               d="m 278.34655,89.079852 l -1.80394,0 l 0.45099,-2.175345 l 1.77741,0 l 1.64477,-7.507594 l 8.03817,-1.087673 q -0.13264,0.530572 -0.26529,1.167259 q -0.13264,0.610157 -0.26528,1.299901 q -0.29182,1.14073 -0.63669,2.732446 q -0.31834,1.565187 -0.68974,3.395661 l 3.26302,0 l -0.42446,2.175345 l -3.26302,0 l -3.47525,16.288558 q -0.13264,0.53057 -0.21222,1.03462 q -0.0531,0.47751 -0.0531,0.87544 q 0,0.84892 0.3714,1.40602 q 0.39793,0.5571 1.51213,0.5571 q 0.29181,0 0.68974,0 q 0.39793,-0.0265 0.7428,-0.15917 q -0.61015,1.75088 -1.32643,2.81203 q -0.71627,1.03461 -1.45907,1.59171 q -0.7428,0.55711 -1.51213,0.71628 q -0.7428,0.1857 -1.45907,0.1857 q -1.45908,0 -2.49369,-0.45099 q -1.03462,-0.47751 -1.69783,-1.2999 q -0.63669,-0.82239 -0.9285,-1.93659 q -0.31835,-1.14073 -0.31835,-2.44063 q 0,-1.40602 0.31835,-2.89162 l 3.47524,-16.288558 z"
               style="font-style:normal;font-variant:normal;font-weight:normal;font-stretch:normal;font-family:Lobster;-inkscape-font-specification:Lobster;fill:#0080ff;fill-opacity:1;stroke:none"
               id="path4567"
               inkscape:connector-curvature="0" />
          </g>
          <path
             sodipodi:nodetypes="ssscccccsccssssccssssssssssssccccssssssscscccsscccsccsscscscccsccssscss"
             inkscape:connector-curvature="0"
             id="path4566"
             d="m 104.68989,120.42505 c 0.57315,0.51238 1.31052,0.84116 2.04454,1.0789 c 0.94529,0.30618 1.81254,0.42002 2.95353,0.42002 c 0.97945,0 1.93833,-0.10537 2.87739,-0.31526 c 0.92896,-0.19989 1.81278,-0.48393 2.65086,-0.85373 c 0.82799,-0.36979 1.5949,-0.81003 2.30171,-1.31975 c 0.69672,-0.49972 1.30306,-1.05472 1.81802,-1.66438 c 0.50487,-0.59966 0.8983,-1.2393 1.18103,-1.91893 c 0.28272,-0.66962 0.42433,-1.35911 0.42433,-2.06871 c 0,-1.03943 -0.28796,-1.76841 -0.86351,-2.18817 c -0.58565,-0.41977 -1.43584,-0.62953 -2.48596,-0.62953 c 0,0 0.0834,0.13752 0.11907,0.20952 c 0.053,0.10712 0.10188,0.21678 0.14036,0.32994 c 0.0648,0.19053 0.11956,0.38576 0.15134,0.58448 c 0.0506,0.31646 0.0613,0.56969 0.0613,0.95947 c 0,0.83953 -0.10645,1.60429 -0.3185,2.2939 c -0.22214,0.69961 -0.51484,1.32421 -0.87834,1.8739 c -0.37361,0.55968 -0.81659,1.032 -1.31753,1.45388 c -0.48419,0.40777 -1.02244,0.76808 -1.60536,1.01918 c -0.69592,0.29979 -1.44829,0.51172 -2.20575,0.55904 c -0.66458,0.0415 -1.36489,0.001 -1.98223,-0.24574 c -0.50911,-0.20378 -0.9633,-0.5637 -1.31752,-0.97905 c -0.3196,-0.37477 -0.53868,-0.83809 -0.68052,-1.308 c -0.15589,-0.5165 -0.15045,-1.15545 -0.17112,-1.60759 c -0.028,-0.61148 0.0484,-1.23024 0.182,-1.82788 c 0.13172,-0.58918 0.34376,-1.16337 0.60535,-1.70843 c 0.24944,-0.51975 0.55045,-1.02014 0.91099,-1.47151 c 0.3553,-0.4448 0.75094,-0.87185 1.21861,-1.19933 c 0.43145,-0.30212 0.92775,-0.51358 1.4283,-0.68141 c 0.29903,-0.10027 0.61453,-0.15114 0.92781,-0.18994 c 0.27666,-0.0341 0.83482,-0.0372 0.83482,-0.0372 l 0.13749,-0.59429 l 0.1375,-0.5933 c 0,0 -0.63673,-0.0163 -0.9476,-0.0773 c -0.31577,-0.062 -0.63894,-0.1352 -0.91989,-0.29077 c -0.37219,-0.20609 -0.71804,-0.48623 -0.96935,-0.82729 c -0.22026,-0.29894 -0.35245,-0.66177 -0.43719,-1.02213 c -0.10258,-0.4362 -0.10199,-0.8941 -0.0772,-1.34129 c 0.03,-0.54007 0.10748,-1.08397 0.27201,-1.59976 c 0.16489,-0.51692 0.39116,-1.0249 0.70722,-1.46759 c 0.27197,-0.38091 0.61533,-0.73996 0.99903,-0.98982 c 0.3938,-0.249855 0.82337,-0.374967 1.28785,-0.374967 c 0.21204,0 0.41922,0.0301 0.62117,0.09007 c 0.21204,0.05997 0.39355,0.159667 0.54501,0.299587 c 0.16156,0.12992 0.2927,0.30489 0.39368,0.52477 c 0.10097,0.21988 0.15133,0.48516 0.15133,0.79499 c 0,0.26984 -0.0352,0.5492 -0.10584,0.83904 c -0.0707,0.28983 -0.1714,0.5598 -0.30267,0.80967 c -0.12117,0.24986 -0.26752,0.46998 -0.43917,0.65987 c -0.16156,0.1899 -0.33359,0.31501 -0.51534,0.37497 c 0.40389,0.5497 0.88857,0.82436 1.45402,0.82436 c 0.31302,0 0.60572,-0.0799 0.87835,-0.23986 c 0.28273,-0.15991 0.5298,-0.38003 0.74185,-0.65988 c 0.21204,-0.28984 0.37933,-0.6294 0.50049,-1.01919 c 0.12117,-0.38977 0.18102,-0.81497 0.18102,-1.27471 c 0,-0.62965 -0.11594,-1.18367 -0.34818,-1.6634 c -0.22214,-0.479737 -0.53479,-0.879512 -0.93868,-1.199339 c -0.40389,-0.319817 -0.87909,-0.559686 -1.42435,-0.719592 c -0.53516,-0.169908 -1.11009,-0.255537 -1.72603,-0.255537 c -0.98955,0 -1.90379,0.195688 -2.74187,0.585471 c -0.82799,0.389783 -1.54453,0.898643 -2.15037,1.528297 c -0.59575,0.62965 -1.06521,1.33986 -1.40852,2.12942 c -0.33322,0.77957 -0.49951,1.56407 -0.49951,2.35362 c 0,0.68962 0.14635,1.35938 0.43918,2.00902 c 0.30291,0.63963 0.78759,1.19933 1.45401,1.67906 c -0.89866,0.22987 -1.70384,0.64708 -2.42337,1.18366 c -0.77222,0.57588 -1.41182,1.33116 -1.95254,2.12452 c -0.40816,0.5989 -0.73362,1.26216 -0.94956,1.95223 c -0.27063,0.86479 -0.41878,1.7792 -0.41544,2.68453 c 0.003,0.69339 0.0765,1.40887 0.33334,2.05404 c 0.31846,0.79992 0.80839,1.5649 1.45303,2.14118 z"
             style="font-style:normal;font-variant:normal;font-weight:normal;font-stretch:normal;font-family:Lobster;-inkscape-font-specification:Lobster;opacity:1;fill:#0080ff;fill-opacity:1;stroke:none" />
        </g>
      </g>
    </g>
  </g>
</svg>
