<?xml version="1.0" encoding="UTF-8" standalone="no"?>
<!-- Created with Inkscape (http://www.inkscape.org/) -->

<svg
   xmlns:dc="http://purl.org/dc/elements/1.1/"
   xmlns:cc="http://creativecommons.org/ns#"
   xmlns:rdf="http://www.w3.org/1999/02/22-rdf-syntax-ns#"
   xmlns:svg="http://www.w3.org/2000/svg"
   xmlns="http://www.w3.org/2000/svg"
   xmlns:sodipodi="http://sodipodi.sourceforge.net/DTD/sodipodi-0.dtd"
   xmlns:inkscape="http://www.inkscape.org/namespaces/inkscape"
   width="200"
   height="200"
   id="svg2"
   version="1.1"
   inkscape:version="0.91 r13725"
   sodipodi:docname="Bracing Effect Logo Light.svg">
  <defs
     id="defs4" />
  <sodipodi:namedview
     id="base"
     pagecolor="#000000"
     bordercolor="#666666"
     borderopacity="1.0"
     inkscape:pageopacity="0"
     inkscape:pageshadow="2"
     inkscape:zoom="2.755718"
     inkscape:cx="87.533403"
     inkscape:cy="83.393755"
     inkscape:document-units="px"
     inkscape:current-layer="layer6"
     showgrid="false"
     inkscape:window-width="1337"
     inkscape:window-height="849"
     inkscape:window-x="0"
     inkscape:window-y="0"
     inkscape:window-maximized="0"
     showguides="true"
     inkscape:guide-bbox="true" />
  <metadata
     id="metadata7">
    <rdf:RDF>
      <cc:Work
         rdf:about="">
        <dc:format>image/svg+xml</dc:format>
        <dc:type
           rdf:resource="http://purl.org/dc/dcmitype/StillImage" />
        <dc:title></dc:title>
      </cc:Work>
    </rdf:RDF>
  </metadata>
  <g
     inkscape:groupmode="layer"
     id="layer6"
     inkscape:label="The Human Fund"
     style="display:inline"
     transform="translate(0,-852.36218)">
    <g
       id="g4305"
       inkscape:export-filename="/Users/ratface/Sites/bracingeffect.com/images/bracingeffect-logo.png"
       inkscape:export-xdpi="64.699997"
       inkscape:export-ydpi="64.699997"
       transform="matrix(0.97148205,0,0,0.96689492,-853.83503,-1665.978)">
      <path
         transform="translate(-90.165055,663.04968)"
         inkscape:connector-curvature="0"
         style="fill:#007aff;fill-opacity:1;stroke:none"
         d="m 1072,1982.4375 c -19.2278,0 -35.6501,6.0164 -42.0938,14.5 c 7.8348,7.6414 23.7394,12.875 42.0938,12.875 c 18.3544,0 34.259,-5.2336 42.0938,-12.875 c -6.4437,-8.4836 -22.866,-14.5 -42.0938,-14.5 z"
         id="path4302"
         inkscape:export-filename="/Users/ratface/Sites/bracingeffect.com/WebContent/images/icon.png"
         inkscape:export-xdpi="155.76468"
         inkscape:export-ydpi="155.76468" />
      <path
         sodipodi:nodetypes="sscssscsscssssssssccssscsssc"
         inkscape:connector-curvature="0"
         id="rect4295"
         d="m 981.83594,2622.1465 c -14.06781,0 -26.81216,2.7615 -36.125,7.2949 c -9.31283,4.5334 -15.34375,11.0943 -15.34375,18.4336 c 4.30012,42.1912 9.16901,85.4493 13.96875,127.791 c 1.16693,10.2943 16.78736,18.1641 37.49804,18.1641 c 20.71072,0 36.37472,-7.8694 37.50002,-18.1641 l 13.9687,-127.791 c 0,-7.3393 -6.0308,-13.9002 -15.3437,-18.4336 c -9.3128,-4.5334 -22.05524,-7.2949 -36.12306,-7.2949 z m 0,2 c 13.80473,0 26.29526,2.7355 35.24806,7.0937 c 8.9529,4.3582 14.2187,11.0235 14.2187,16.6348 c 0,7.4966 -9.8216,14.1518 -14.2183,16.3105 c -8.938,4.3885 -21.44333,7.0938 -35.24806,7.0938 c -13.80473,0 -26.43989,-2.9119 -35.24805,-7.0938 c -5.75618,-2.7329 -14.2207,-8.9051 -14.2207,-16.3105 c 0,-5.3433 5.26782,-12.2766 14.2207,-16.6348 c 8.95287,-4.3582 21.44332,-7.0937 35.24805,-7.0937 z m -48.54688,32.1328 c 2.6504,3.7499 6.96651,7.0495 12.42188,9.7051 c 9.31284,4.5334 22.05719,7.2949 36.125,7.2949 c 14.06782,0 26.81026,-2.7615 36.12306,-7.2949 c 5.4997,-2.6772 9.8419,-5.9519 12.4863,-9.6934 c 0,0 -8.7832,79.3853 -13.1738,119.375 c -1.0097,9.1964 -15.8314,16.1641 -35.43752,16.1641 c -19.60611,0 -34.49948,-6.9495 -35.50586,-16.1641 c -4.34631,-39.7956 -13.03906,-119.3867 -13.03906,-119.3867 z"
         style="opacity:1;fill:#ffffff;fill-opacity:1;stroke:none;stroke-width:2;stroke-linecap:square;stroke-linejoin:miter;stroke-miterlimit:4;stroke-dasharray:none;stroke-dashoffset:0;stroke-opacity:1" />
    </g>
  </g>
</svg>
