<?xml version="1.0" encoding="UTF-8" standalone="no"?>
<!-- Created with Inkscape (http://www.inkscape.org/) -->

<svg
   xmlns:dc="http://purl.org/dc/elements/1.1/"
   xmlns:cc="http://creativecommons.org/ns#"
   xmlns:rdf="http://www.w3.org/1999/02/22-rdf-syntax-ns#"
   xmlns:svg="http://www.w3.org/2000/svg"
   xmlns="http://www.w3.org/2000/svg"
   xmlns:sodipodi="http://sodipodi.sourceforge.net/DTD/sodipodi-0.dtd"
   xmlns:inkscape="http://www.inkscape.org/namespaces/inkscape"
   width="1024"
   height="1024"
   id="svg2"
   version="1.1"
   inkscape:version="0.91 r13725"
   sodipodi:docname="ChaosClock Logo.svg"
   inkscape:export-xdpi="300"
   inkscape:export-ydpi="300">
  <defs
     id="defs4" />
  <sodipodi:namedview
     id="base"
     pagecolor="#808080"
     bordercolor="#666666"
     borderopacity="1.0"
     inkscape:pageopacity="0"
     inkscape:pageshadow="2"
     inkscape:zoom="0.44815654"
     inkscape:cx="-13.486028"
     inkscape:cy="581.94518"
     inkscape:document-units="px"
     inkscape:current-layer="g4193"
     showgrid="false"
     showguides="true"
     inkscape:guide-bbox="true"
     fit-margin-top="0"
     fit-margin-left="0"
     fit-margin-right="0"
     fit-margin-bottom="0"
     inkscape:window-width="1440"
     inkscape:window-height="851"
     inkscape:window-x="0"
     inkscape:window-y="0"
     inkscape:window-maximized="1"
     inkscape:showpageshadow="false"
     borderlayer="true"
     showborder="false"
     inkscape:snap-global="false"
     inkscape:snap-page="false"
     inkscape:snap-bbox="true">
    <sodipodi:guide
       orientation="0,1"
       position="-10.429825,956.71547"
       id="guide3101" />
    <sodipodi:guide
       orientation="1,0"
       position="956.5625,59.8125"
       id="guide3103" />
    <sodipodi:guide
       orientation="0,1"
       position="1246.875,315.625"
       id="guide3105" />
    <sodipodi:guide
       orientation="1,0"
       position="67.351921,64.523494"
       id="guide3107" />
    <sodipodi:guide
       orientation="0,1"
       position="961.5,67.5"
       id="guide3109" />
    <sodipodi:guide
       orientation="1,0"
       position="319.08193,67.707547"
       id="guide3111" />
    <sodipodi:guide
       orientation="1,0"
       position="511.68014,67.707547"
       id="guide3113" />
    <sodipodi:guide
       orientation="1,0"
       position="706.1875,64.734375"
       id="guide3115" />
    <sodipodi:guide
       orientation="0,1"
       position="-21.213203,1024"
       id="guide3117" />
    <sodipodi:guide
       orientation="0,1"
       position="0,0"
       id="guide3119" />
    <sodipodi:guide
       orientation="1,0"
       position="0,1042.6289"
       id="guide3121" />
    <sodipodi:guide
       orientation="0,1"
       position="-6.8942911,705"
       id="guide3123" />
    <sodipodi:guide
       orientation="1,0"
       position="1024,1037.75"
       id="guide3125" />
    <sodipodi:guide
       orientation="0,1"
       position="-27.223611,512.65241"
       id="guide3127" />
    <inkscape:grid
       type="xygrid"
       id="grid4235"
       empspacing="5"
       visible="true"
       enabled="true"
       snapvisiblegridlinesonly="true" />
    <sodipodi:guide
       orientation="1,0"
       position="511.68014,430.8932"
       id="guide4003" />
  </sodipodi:namedview>
  <metadata
     id="metadata7">
    <rdf:RDF>
      <cc:Work
         rdf:about="">
        <dc:format>image/svg+xml</dc:format>
        <dc:type
           rdf:resource="http://purl.org/dc/dcmitype/StillImage" />
        <dc:title />
      </cc:Work>
    </rdf:RDF>
  </metadata>
  <g
     inkscape:groupmode="layer"
     id="layer5"
     inkscape:label="Background"
     style="display:none">
    <g
       transform="translate(0,174.00001)"
       style="display:inline"
       inkscape:label="Final Composition"
       id="layer1-0">
      <g
         transform="matrix(1.28,0,0,1.28,0,-238)"
         id="g4324">
        <rect
           style="opacity:1;fill:#ffffff;fill-opacity:1;stroke:none;stroke-width:2;stroke-linecap:square;stroke-linejoin:miter;stroke-miterlimit:4;stroke-dasharray:none;stroke-dashoffset:0;stroke-opacity:1"
           id="rect4299"
           width="200"
           height="225"
           x="-225"
           y="100"
           transform="matrix(4,0,0,3.5555556,900,-305.55557)" />
        <g
           transform="matrix(3.2350302,3.2350302,-3.2350302,3.2350302,587.37755,484.09527)"
           id="g4301">
          <path
             transform="matrix(1.567916,0,0,1.567916,-20.057766,-9.7477335)"
             d="M 33.239143,15.64225 C 32.010147,13.580099 30.11464,12.392 28.250089,12.392 c -1.864551,0 -3.569036,1.146424 -4.571036,1.146424 c -1.022,0 -2.66953,-1.125924 -4.571036,-1.092424 c -1.901505,0.0335 -4.135286,1.276107 -5.240017,3.19625 c -2.259279,3.926874 -0.585998,9.694373 1.595052,12.858469 c 1.075983,1.560952 2.373156,3.289781 4.016159,3.226281 c 1.643003,-0.0635 2.247842,-1.035 4.199842,-1.035 c 1.952,0 2.48083,1.029 4.199842,0.996 c 1.719012,-0.033 2.754794,-1.654013 3.802128,-3.187281 c 2.088246,-3.057132 3.924731,-8.887498 1.55812,-12.858469 z"
             id="path4303"
             inkscape:connector-curvature="0"
             style="fill:#000000"
             sodipodi:nodetypes="szszsszzzss" />
          <path
             transform="matrix(1.567916,0,0,1.567916,-20.057766,-9.7477335)"
             d="M 26.928,10.306 C 27.802,9.213 28.4,7.726 28.234,6.217 c -1.265,0.056 -2.847,0.875 -3.758,1.944 c -0.806,0.942 -1.526,2.486 -1.34,3.938 c 1.421,0.106 2.88,-0.717 3.792,-1.793 z"
             id="path4305"
             inkscape:connector-curvature="0"
             style="fill:#000000" />
        </g>
        <path
           id="path4310"
           transform="matrix(-0.82850075,0.82850075,0.82850075,0.82850075,399.99999,-254.22564)"
           d="M 424.99999,-57.799798 L -57.799795,424.99999 L 283.60011,766.39989 C 247.40011,730.19989 225,680.2 225,625 c 0,-110.4 89.6,-200 200,-200 c 110.4,0 200,-89.6 200,-200 C 625,169.8 602.59989,119.80011 566.39989,83.600106 Z"
           style="fill:#000000;fill-opacity:1;stroke:none"
           inkscape:connector-curvature="0"
           sodipodi:nodetypes="cccssssc" />
        <path
           transform="matrix(0.66758643,0.66758643,-0.66758643,0.66758643,385.42522,399.43005)"
           inkscape:transform-center-y="-3.9965047"
           inkscape:transform-center-x="-4.0270613"
           d="m -200.26155,125.50307 l -96.18239,-70.729178 l 38.50025,-109.572078 l 116.55244,-0.280613 l 35.6031,111.230646 z"
           inkscape:randomized="0.015"
           inkscape:rounded="0"
           inkscape:flatsided="true"
           sodipodi:arg2="2.1991149"
           sodipodi:arg1="1.5707963"
           sodipodi:r2="80.901695"
           sodipodi:r1="100"
           sodipodi:cy="25"
           sodipodi:cx="-200"
           sodipodi:sides="5"
           id="path4313"
           style="opacity:1;fill:#ffffff;fill-opacity:1;stroke:none;stroke-width:2;stroke-linecap:square;stroke-linejoin:miter;stroke-miterlimit:4;stroke-dasharray:none;stroke-dashoffset:0;stroke-opacity:1"
           sodipodi:type="star" />
      </g>
    </g>
  </g>
  <g
     style="display:inline"
     inkscape:label="Background Clipped"
     id="g4193"
     inkscape:groupmode="layer">
    <path
       id="path4250"
       d="M 306.5625,-0.01367188 C 305.77022,-0.01184101 305.02706,-0.00286772 304.24219,0 l 14.83984,0 C 314.80815,-0.01828801 310.6366,-0.02308666 306.5625,-0.01367188 Z M 304.24219,0 L 0,0 L 0,318.48047 C 0.04438432,264.21544 1.9522048,215.42585 8.7988281,178.45703 C 14.755594,146.29305 24.639585,123.97954 37.888672,103.38086 C 53.290316,79.435551 73.014429,58.195322 97.25,42.03125 c 14.55398,-9.706872 27.23476,-16.722023 46.14062,-23.976562 c 9.86203,-3.784245 21.34998,-6.585225 34.69727,-9.1816411 C 206.06503,3.430722 244.4865,0.2183305 304.24219,0 Z M 706.1875,0 c 48.46981,0.08073128 83.90399,1.1619663 111.24023,4.3886719 c 19.97552,2.3578638 35.75939,5.6925941 48.66016,9.2265621 c 28.3849,7.77561 43.64513,17.07787 61.68555,29.082032 c 12.62804,8.402744 23.81573,18.544221 33.88086,29.384765 c 6.7477,7.267543 13.22995,15.150302 18.91015,23.19336 c 2.11954,3.00124 4.03379,6.049359 5.99414,9.197269 c 1.83944,2.95378 3.39465,5.52448 4.89258,8.13672 c 1.87053,3.26202 3.64988,6.59034 5.77735,10.8164 c 7.17988,14.26233 13.67818,32.25058 17.29688,52.70899 c 2.1009,11.87786 4.5438,24.68781 5.9551,38.1875 c 2.5521,24.41196 3.3545,51.48143 3.4804,81.46093 L 1024,0 L 706.1875,0 Z m 317.7734,295.7832 l 0,22.48047 c 0.036,-7.69119 0.035,-15.1488 0,-22.48047 z M 1024,708.375 c -0.028,33.52476 -0.3644,57.5194 -2.1875,86.13086 c -2.1429,33.63123 -7.6763,62.02975 -16.1309,85.82617 c -5.1582,14.5187 -11.40293,27.32424 -18.62887,38.55859 c -10.39312,16.15846 -22.65212,31.16823 -36.89648,44.46485 c -6.86448,6.40775 -13.96855,11.81646 -21.91797,17.50195 c -10.37402,7.41958 -20.22524,13.06235 -32.18164,18.63867 c -10.69022,4.98581 -23.16558,9.49781 -39.90625,13.44921 c -11.58454,2.7344 -25.21272,5.3381 -41.70508,7.0742 c -27.23282,2.8667 -62.17703,3.4125 -108.25781,3.9805 L 1024,1024 l 0,-315.625 z M -0.03515625,708.4062 l 0,315.625 l 319.08203625,0 c -41.13554,0.043 -73.15952,-1.1161 -99.20899,-3.1757 c -28.83842,-2.2801 -50.33518,-7.1578 -66.67383,-11.7853 c -7.73511,-2.1907 -14.37224,-4.7844 -20.38281,-7.4316 c -3.67192,-1.6172 -7.11179,-3.25625 -10.45508,-4.87498 C 113.83847,992.65414 106.42579,988.098 98.671875,982.8457 C 86.59698,974.66648 75.71589,965.62495 64.433594,954.05859 C 54.334092,943.7048 45.224542,931.65351 37.742188,920.26367 c -6.310519,-9.60604 -11.79754,-20.33226 -16.751954,-32.23242 c -1.202909,-2.88931 -2.563771,-5.7518 -3.546875,-8.89844 C 13.070293,865.13587 9.5475103,851.60478 6.8183594,834.50391 C 5.47679,826.09763 4.3289063,817.48218 3.453125,808.5918 C 0.58027726,779.42846 0.02048588,747.16387 -0.03515625,708.40625 Z"
       style="color:#000000;display:none;overflow:visible;visibility:visible;fill:#ff0000;fill-opacity:1;fill-rule:nonzero;stroke:none;stroke-width:2;marker:none;enable-background:accumulate"
       inkscape:connector-curvature="0" />
    <path
       style="opacity:1;fill:#ffffff;fill-opacity:1;stroke:none;stroke-width:2;stroke-linecap:square;stroke-linejoin:miter;stroke-miterlimit:4;stroke-dasharray:none;stroke-dashoffset:0;stroke-opacity:1"
       d="M 304.24219,0 C 244.4865,0.2183305 206.06503,3.430722 178.08789,8.8730469 C 164.7406,11.469463 153.25265,14.270443 143.39062,18.054688 C 124.48476,25.309227 111.80398,32.324378 97.25,42.03125 C 73.014429,58.195322 53.290316,79.43555 37.888672,103.38086 C 24.639585,123.97954 14.755594,146.29305 8.7988281,178.45703 C 1.9522048,215.42585 0.04438432,264.21544 0,318.48047 l 0,400.17578 c 0.146546,34.23094 0.83882962,63.39687 3.453125,89.93555 c 0.8757813,8.89038 2.023665,17.50583 3.3652344,25.91211 c 2.7291509,17.10087 6.2519336,30.63196 10.6249996,44.6289 c 0.983104,3.14664 2.343966,6.00913 3.546875,8.89844 c 4.954414,11.90016 10.441435,22.62638 16.751954,32.23242 c 7.482353,11.38984 16.591904,23.44113 26.691406,33.79492 c 11.282296,11.56636 22.163386,20.60789 34.238281,28.78711 c 7.753915,5.2523 15.166595,9.80844 23.654295,13.91797 c 3.34329,1.61873 6.78316,3.25783 10.45508,4.87503 c 6.01057,2.6472 12.6477,5.2409 20.38281,7.4316 c 16.33865,4.6274 37.83541,9.5051 66.67383,11.7852 c 23.44435,1.8536 51.7953,2.9695 87.20508,3.1445 l 399.14453,0 c 46.08078,-0.568 81.02499,-1.1138 108.25781,-3.9805 c 16.49236,-1.7361 30.12054,-4.3398 41.70508,-7.0742 c 16.74067,-3.9514 29.21603,-8.4634 39.90625,-13.44921 c 11.9564,-5.57632 21.80762,-11.21909 32.18164,-18.63867 c 7.94942,-5.68549 15.05349,-11.0942 21.91797,-17.50195 c 14.24436,-13.29662 26.50336,-28.30639 36.89648,-44.46485 c 7.22594,-11.23435 13.47067,-24.03989 18.62887,-38.55859 c 8.4546,-23.79642 13.988,-52.19494 16.1309,-85.82617 c 1.8231,-28.61146 2.1595,-52.6061 2.1875,-86.13086 L 1024,0 l -0.039,295.7832 c 0.031,7.33167 0.032,14.78928 0,22.48047 l 0,-22.48047 c -0.1259,-29.9795 -0.9283,-57.04897 -3.4804,-81.46093 c -1.4113,-13.49969 -3.8542,-26.30964 -5.9551,-38.1875 c -3.6187,-20.45841 -10.117,-38.44666 -17.29688,-52.70899 c -2.12747,-4.22606 -3.90682,-7.55439 -5.77735,-10.8164 c -1.49793,-2.61224 -3.05314,-5.18294 -4.89258,-8.13672 c -1.96035,-3.14791 -3.8746,-6.196029 -5.99414,-9.197269 C 974.88425,87.232333 968.402,79.349574 961.6543,72.082031 C 951.58917,61.241487 940.40148,51.10001 927.77344,42.697266 C 909.73302,30.693104 894.47279,21.390844 866.08789,13.615234 C 853.18712,10.081266 837.40325,6.7465357 817.42773,4.3886719 C 790.09149,1.1619663 754.65731,0.08073128 706.1875,0 L 319.08203,0 l -14.83984,0 z"
       id="rect4199"
       inkscape:connector-curvature="0" />
    <path
       style="fill:#000000;fill-opacity:1;stroke:none"
       d="M 304.24219,0 C 244.4865,0.2183305 206.06503,3.430722 178.08789,8.8730469 C 164.7406,11.469463 153.25265,14.270443 143.39062,18.054688 C 124.48476,25.309227 111.80398,32.324378 97.25,42.03125 C 73.014429,58.195322 53.290316,79.43555 37.888672,103.38086 C 24.639585,123.97954 14.755594,146.29305 8.7988281,178.45703 C 2.5316698,212.29699 0.40811473,256.05753 0.05859375,304.83984 C 1.2861726,379.96512 30.522557,454.71592 87.806641,512 C 204.88374,629.0771 394.9229,629.0771 512,512 c 117.0771,-117.0771 307.11626,-117.0771 424.19336,0 c 57.84603,57.84603 87.08914,133.50309 87.77344,209.37109 c 0.018,-4.19084 0.029,-8.49603 0.033,-12.99609 L 1024,0 l -0.039,295.7832 c 0.031,7.33167 0.032,14.78928 0,22.48047 l 0,-22.48047 c -0.1259,-29.9795 -0.9283,-57.04897 -3.4804,-81.46093 c -1.4113,-13.49969 -3.8542,-26.30964 -5.9551,-38.1875 c -3.6187,-20.45841 -10.117,-38.44666 -17.29688,-52.70899 c -2.12747,-4.22606 -3.90682,-7.55439 -5.77735,-10.8164 c -1.49793,-2.61224 -3.05314,-5.18294 -4.89258,-8.13672 c -1.96035,-3.14791 -3.8746,-6.196029 -5.99414,-9.197269 C 974.88425,87.232333 968.402,79.349574 961.6543,72.082031 C 951.58917,61.241487 940.40148,51.10001 927.77344,42.697266 C 909.73302,30.693104 894.47279,21.390844 866.08789,13.615234 C 853.18712,10.081266 837.40325,6.7465357 817.42773,4.3886719 C 790.09149,1.1619663 754.65731,0.08073128 706.1875,0 L 319.08203,0 l -14.83984,0 z"
       id="path4207"
       inkscape:connector-curvature="0" />
    <path
       sodipodi:type="star"
       style="opacity:1;fill:#ffffff;fill-opacity:1;stroke:none;stroke-width:2;stroke-linecap:square;stroke-linejoin:miter;stroke-miterlimit:4;stroke-dasharray:none;stroke-dashoffset:0;stroke-opacity:1"
       id="path4209"
       sodipodi:sides="5"
       sodipodi:cx="-200"
       sodipodi:cy="25"
       sodipodi:r1="100"
       sodipodi:r2="80.901695"
       sodipodi:arg1="1.5707963"
       sodipodi:arg2="2.1991149"
       inkscape:flatsided="true"
       inkscape:rounded="0"
       inkscape:randomized="0.015"
       d="m -200.26155,125.50307 l -96.18239,-70.729178 l 38.50025,-109.572078 l 116.55244,-0.280613 l 35.6031,111.230646 z"
       inkscape:transform-center-x="-4.0270613"
       inkscape:transform-center-y="-3.9965047"
       transform="matrix(0.85451063,0.85451063,-0.85451063,0.85451063,493.34428,447.27047)" />
    <g
       id="g4252"
       transform="matrix(4.1919284,4.1919284,-4.1919284,4.1919284,754.05993,551.99529)">
      <path
         transform="matrix(-1.567916,0,0,1.567916,53.859616,-9.7477335)"
         d="M 33.239143,15.64225 C 32.010147,13.580099 30.11464,12.392 28.250089,12.392 c -1.518105,0.06646 -2.947294,0.691865 -4.270431,1.097164 c -0.07307,0.01567 -0.03995,-1.771787 -0.543634,-2.61187 C 22.932338,10.037211 22.042918,9.47986 21.93623,10.144506 c -0.13757,0.85703 0.608198,0.584636 0.975233,1.424877 c 0.367034,0.840241 0.520758,1.936087 0.447472,1.920727 C 21.969111,13.096201 20.404397,12.437729 19.108017,12.446 c -1.901505,0.0335 -4.135286,1.276107 -5.240017,3.19625 c -2.259279,3.926874 -0.585998,9.694373 1.595052,12.858469 c 1.075983,1.560952 2.373156,3.289781 4.016159,3.226281 c 1.643003,-0.0635 2.247842,-0.581698 4.199842,-0.581698 c 1.952,0 2.48083,0.575698 4.199842,0.542698 c 1.719012,-0.033 2.754794,-1.654013 3.802128,-3.187281 c 2.088246,-3.057132 3.924731,-8.887498 1.55812,-12.858469 z"
         id="path11"
         inkscape:connector-curvature="0"
         style="fill:#000000"
         sodipodi:nodetypes="sccsssccsszzzss" />
      <path
         transform="matrix(-1.5646118,0.10173707,0.10173707,1.5646118,51.411188,-11.008634)"
         d="M 26.928,10.306 C 27.802,9.213 28.4,7.726 28.234,6.217 c -1.265,0.056 -2.847,0.875 -3.758,1.944 c -0.806,0.942 -1.526,2.486 -1.34,3.938 c 1.421,0.106 2.88,-0.717 3.792,-1.793 z"
         id="path13"
         inkscape:connector-curvature="0"
         style="fill:#000000" />
    </g>
  </g>
  <g
     inkscape:groupmode="layer"
     id="layer6"
     inkscape:label="MASK"
     style="display:none">
    <g
       id="g4211">
      <path
         sodipodi:nodetypes="csssssssssssccc"
         inkscape:connector-curvature="0"
         id="path4146"
         d="M -0.03515625,708.40625 C 0.02048588,747.16387 0.58116726,779.4284 3.454015,808.59174 c 0.8757813,8.89038 2.0231286,17.50673 3.364698,25.91301 c 2.7291509,17.10087 6.251639,30.63186 10.624705,44.6288 c 0.983104,3.14664 2.343873,6.00913 3.546782,8.89844 c 4.954414,11.90016 10.441772,22.62502 16.75229,32.23106 c 7.482354,11.38984 16.590926,23.44234 26.690428,33.79613 c 11.282296,11.56636 22.163363,20.60638 34.238258,28.7856 c 7.753914,5.2523 15.167714,9.80978 23.655414,13.91931 c 3.34329,1.61873 6.78353,3.25751 10.45545,4.87471 c 6.01057,2.6472 12.64725,5.2405 20.38236,7.4312 c 16.33865,4.6274 37.83594,9.5058 66.67436,11.7859 c 26.04947,2.0596 58.07248,3.2184 99.20801,3.1754 l -319.08192625,0 z"
         style="color:#000000;display:inline;overflow:visible;visibility:visible;fill:#ffffff;fill-opacity:1;fill-rule:nonzero;stroke:none;stroke-width:2;marker:none;enable-background:accumulate" />
      <path
         sodipodi:nodetypes="cssssssssccc"
         inkscape:connector-curvature="0"
         id="path4146-5"
         d="m 1024,708.375 c -0.028,33.52476 -0.3641,57.51886 -2.1872,86.13032 c -2.1429,33.63123 -7.6767,62.03085 -16.1313,85.82727 c -5.1582,14.5187 -11.40374,27.32387 -18.62968,38.55822 c -10.39312,16.15845 -22.65083,31.16786 -36.89519,44.46448 c -6.86448,6.40775 -13.96935,11.81612 -21.91877,17.50161 c -10.37402,7.41958 -20.2254,13.06198 -32.1818,18.6383 c -10.69022,4.9858 -23.165,9.4996 -39.90567,13.451 c -11.58454,2.7344 -25.21186,5.3376 -41.70422,7.0737 c -27.23282,2.8667 -62.17789,3.4121 -108.25867,3.9801 L 1024,1024 Z"
         style="color:#000000;display:inline;overflow:visible;visibility:visible;fill:#ffffff;fill-opacity:1;fill-rule:nonzero;stroke:none;stroke-width:2;marker:none;enable-background:accumulate" />
      <path
         sodipodi:nodetypes="cssssssssssccc"
         inkscape:connector-curvature="0"
         id="path4146-5-3"
         d="m 1023.9571,318.26274 c 0.1837,-39.14081 -0.2997,-73.55855 -3.476,-103.94061 c -1.4113,-13.49969 -3.8539,-26.31006 -5.9548,-38.18792 c -3.6187,-20.45841 -10.1174,-38.44655 -17.2973,-52.70888 c -2.12747,-4.22606 -3.90726,-7.55456 -5.77779,-10.81658 c -1.49793,-2.61224 -3.05404,-5.18185 -4.89348,-8.13563 c -1.96035,-3.14791 -3.87346,-6.195884 -5.993,-9.197124 C 974.88453,87.232938 968.40279,79.35023 961.65509,72.082687 C 951.58996,61.242143 940.4011,51.100793 927.77306,42.698049 C 909.73264,30.693887 894.47219,21.390417 866.08729,13.614807 C 853.18652,10.080839 837.40303,6.7460486 817.42751,4.3881848 C 790.09127,1.1614792 754.65731,0.08073128 706.1875,0 L 1024,0 Z"
         style="color:#000000;display:inline;overflow:visible;visibility:visible;fill:#ffffff;fill-opacity:1;fill-rule:nonzero;stroke:none;stroke-width:2;marker:none;enable-background:accumulate" />
      <path
         sodipodi:nodetypes="csssssccc"
         inkscape:connector-curvature="0"
         id="path4146-5-3-7"
         d="M 0,318.48 C 0.04438432,264.21497 1.9515494,215.42652 8.7981727,178.4577 C 14.754939,146.29372 24.640519,123.97857 37.889606,103.37989 C 53.29125,79.434582 73.01483,58.195063 97.250401,42.030991 c 14.553979,-9.706872 27.235109,-16.72099 46.140969,-23.97553 c 9.86202,-3.784244 21.35019,-6.58631 34.69748,-9.1827264 C 208.3231,2.9913388 250.69975,-0.29260813 319.08193,0 L 0,0 Z"
         style="color:#000000;display:inline;overflow:visible;visibility:visible;fill:#ffffff;fill-opacity:1;fill-rule:nonzero;stroke:none;stroke-width:2;marker:none;enable-background:accumulate" />
    </g>
  </g>
  <g
     style="display:inline"
     transform="translate(50.25,211.52169)"
     id="g4191"
     inkscape:groupmode="layer"
     inkscape:label="BORDER WHITE">
    <path
       style="fill:none;stroke:#ffffff;stroke-width:8;stroke-miterlimit:4;stroke-dasharray:none;stroke-opacity:1"
       id="path4193"
       d="m 301.95446,-211.52169 l 319.59108,0 c 101.4156,0 152.12339,0 206.7084,17.25959 c 59.59748,21.69173 106.54481,68.63899 128.23654,128.236542 C 973.75,-11.44076 973.75,39.267072 973.75,140.68273 l 0,319.59116 c 0,101.41566 0,152.12349 -17.25952,206.70829 c -21.69173,59.59758 -68.63906,106.54477 -128.23654,128.23654 c -54.58501,17.25959 -105.2928,17.25959 -206.7084,17.25959 l -319.59108,0 c -101.4156,0 -152.12339,0 -206.708396,-17.25959 C 35.648581,773.52695 -11.298747,726.57976 -32.99048,666.98218 C -50.25,612.39738 -50.25,561.68955 -50.25,460.27389 l 0,-319.59116 c 0,-101.415658 0,-152.12349 17.25952,-206.708254 C -11.298747,-125.62307 35.648581,-172.57037 95.246064,-194.2621 c 54.585006,-17.25959 105.292796,-17.25959 206.708396,-17.25959 l 0,0"
       inkscape:connector-curvature="0" />
  </g>
  <g
     inkscape:label="BORDER"
     inkscape:groupmode="layer"
     id="layer1"
     transform="translate(50.25,211.52169)"
     style="display:none">
    <path
       inkscape:connector-curvature="0"
       d="m 301.95446,-211.52169 l 319.59108,0 c 101.4156,0 152.12339,0 206.7084,17.25959 c 59.59748,21.69173 106.54481,68.63899 128.23654,128.236542 C 973.75,-11.44076 973.75,39.267072 973.75,140.68273 l 0,319.59116 c 0,101.41566 0,152.12349 -17.25952,206.70829 c -21.69173,59.59758 -68.63906,106.54477 -128.23654,128.23654 c -54.58501,17.25959 -105.2928,17.25959 -206.7084,17.25959 l -319.59108,0 c -101.4156,0 -152.12339,0 -206.708396,-17.25959 C 35.648581,773.52695 -11.298747,726.57976 -32.99048,666.98218 C -50.25,612.39738 -50.25,561.68955 -50.25,460.27389 l 0,-319.59116 c 0,-101.415658 0,-152.12349 17.25952,-206.708254 C -11.298747,-125.62307 35.648581,-172.57037 95.246064,-194.2621 c 54.585006,-17.25959 105.292796,-17.25959 206.708396,-17.25959 l 0,0"
       id="path5"
       style="fill:none;stroke:#000000;stroke-width:4;stroke-miterlimit:4;stroke-dasharray:none;stroke-opacity:1" />
  </g>
  <g
     inkscape:groupmode="layer"
     id="layer4"
     inkscape:label="FULL MASK to BG"
     style="display:none">
    <g
       id="g3108"
       transform="matrix(0.5649724,0,0,0.5649724,445.54508,-1009.2323)"
       style="fill:#ffffff">
      <path
         style="fill:#ffffff;fill-opacity:1"
         d="m -255.18484,3598.5738 c -65.89075,-0.4253 -133.31625,-3.6429 -171.28383,-8.1738 c -35.62761,-4.2516 -75.24646,-12.6237 -101.97363,-21.5486 c -19.91256,-6.6493 -47.54459,-19.4411 -66.12352,-30.6108 c -37.44793,-22.5137 -72.20796,-52.2487 -98.54251,-84.2969 c -24.29731,-29.5689 -41.20817,-56.8511 -55.47181,-89.4924 c -6.61929,-15.1478 -8.38704,-19.8689 -11.92879,-31.8579 c -16.20259,-54.8465 -23.54268,-107.7838 -26.58122,-191.706 c -1.42838,-39.4507 -1.67596,-120.9647 -1.45114,-477.7704 c 0.16145,-256.2384 0.41117,-371.6315 0.83443,-385.5878 c 4.03548,-133.0627 14.45033,-200.8155 39.80624,-258.9554 c 22.87778,-52.4577 63.32922,-104.9173 108.81811,-141.1212 c 12.25925,-9.757 31.66981,-22.9097 46.90669,-31.7844 c 24.79601,-14.4423 54.99637,-27.5472 78.82329,-34.2039 c 41.36425,-11.5562 93.35603,-18.869 158.31851,-22.2681 c 28.5354,-1.493 42.80966,-1.8693 92.94472,-2.45 c 66.71195,-0.7727 774.97059,-0.3507 803.30789,0.4786 c 74.58713,2.1828 111.22328,5.1416 152.96045,12.3533 c 34.90069,6.0305 66.10255,14.5431 92.14805,25.1403 c 28.90007,11.7586 67.93807,35.6951 94.27249,57.8041 c 24.08118,20.2172 52.39634,51.696 69.50417,77.2697 c 27.40876,40.9722 44.92544,81.5642 54.48975,126.2709 c 2.0427,9.5481 7.5352,40.5742 9.5433,53.9079 c 4.7447,31.5043 7.3924,66.4897 8.9033,117.6415 c 0.8272,28.0023 1.2273,742.0895 0.4567,814.9924 c -0.6825,64.5731 -1.8558,98.6886 -4.564,132.7029 c -5.9213,74.3703 -21.87168,136.2374 -47.80384,185.4176 c -7.83137,14.852 -18.80155,31.9295 -30.54535,47.5505 c -23.00313,30.5976 -46.50391,54.389 -74.58963,75.5123 c -48.63111,36.5753 -94.65909,56.7768 -158.32303,69.4872 c -51.86283,10.3544 -93.05381,13.1537 -222.7503,15.1381 c -27.97184,0.4279 -676.86617,0.5685 -740.10549,0.1603 z"
         id="path3124"
         inkscape:connector-curvature="0" />
      <path
         style="fill:#ffffff;fill-opacity:1"
         d="m -255.18484,3598.5738 c -65.89075,-0.4253 -133.31625,-3.6429 -171.28383,-8.1738 c -35.62761,-4.2516 -75.24646,-12.6237 -101.97363,-21.5486 c -19.91256,-6.6493 -47.54459,-19.4411 -66.12352,-30.6108 c -37.44793,-22.5137 -72.20796,-52.2487 -98.54251,-84.2969 c -24.29731,-29.5689 -41.20817,-56.8511 -55.47181,-89.4924 c -6.61929,-15.1478 -8.38704,-19.8689 -11.92879,-31.8579 c -16.20259,-54.8465 -23.54268,-107.7838 -26.58122,-191.706 c -1.42838,-39.4507 -1.67596,-120.9647 -1.45114,-477.7704 c 0.16145,-256.2384 0.41117,-371.6315 0.83443,-385.5878 c 4.03548,-133.0627 14.45033,-200.8155 39.80624,-258.9554 c 22.87778,-52.4577 63.32922,-104.9173 108.81811,-141.1212 c 12.25925,-9.757 31.66981,-22.9097 46.90669,-31.7844 c 24.79601,-14.4423 54.99637,-27.5472 78.82329,-34.2039 c 41.36425,-11.5562 93.35603,-18.869 158.31851,-22.2681 c 28.5354,-1.493 42.80966,-1.8693 92.94472,-2.45 c 66.71195,-0.7727 774.97059,-0.3507 803.30789,0.4786 c 74.58713,2.1828 111.22328,5.1416 152.96045,12.3533 c 34.90069,6.0305 66.10255,14.5431 92.14805,25.1403 c 28.90007,11.7586 67.93807,35.6951 94.27249,57.8041 c 24.08118,20.2172 52.39634,51.696 69.50417,77.2697 c 27.40876,40.9722 44.92544,81.5642 54.48975,126.2709 c 2.0427,9.5481 7.5352,40.5742 9.5433,53.9079 c 4.7447,31.5043 7.3924,66.4897 8.9033,117.6415 c 0.8272,28.0023 1.2273,742.0895 0.4567,814.9924 c -0.6825,64.5731 -1.8558,98.6886 -4.564,132.7029 c -5.9213,74.3703 -21.87168,136.2374 -47.80384,185.4176 c -7.83137,14.852 -18.80155,31.9295 -30.54535,47.5505 c -23.00313,30.5976 -46.50391,54.389 -74.58963,75.5123 c -48.63111,36.5753 -94.65909,56.7768 -158.32303,69.4872 c -51.86283,10.3544 -93.05381,13.1537 -222.7503,15.1381 c -27.97184,0.4279 -676.86617,0.5685 -740.10549,0.1603 z"
         id="path3122"
         inkscape:connector-curvature="0" />
      <path
         style="fill:#ffffff;fill-opacity:1"
         d="m -255.18484,3598.5738 c -65.89075,-0.4253 -133.31625,-3.6429 -171.28383,-8.1738 c -35.62761,-4.2516 -75.24646,-12.6237 -101.97363,-21.5486 c -19.91256,-6.6493 -47.54459,-19.4411 -66.12352,-30.6108 c -37.44793,-22.5137 -72.20796,-52.2487 -98.54251,-84.2969 c -24.29731,-29.5689 -41.20817,-56.8511 -55.47181,-89.4924 c -6.61929,-15.1478 -8.38704,-19.8689 -11.92879,-31.8579 c -16.20259,-54.8465 -23.54268,-107.7838 -26.58122,-191.706 c -1.42838,-39.4507 -1.67596,-120.9647 -1.45114,-477.7704 c 0.16145,-256.2384 0.41117,-371.6315 0.83443,-385.5878 c 4.03548,-133.0627 14.45033,-200.8155 39.80624,-258.9554 c 22.87778,-52.4577 63.32922,-104.9173 108.81811,-141.1212 c 12.25925,-9.757 31.66981,-22.9097 46.90669,-31.7844 c 24.79601,-14.4423 54.99637,-27.5472 78.82329,-34.2039 c 41.36425,-11.5562 93.35603,-18.869 158.31851,-22.2681 c 28.5354,-1.493 42.80966,-1.8693 92.94472,-2.45 c 66.71195,-0.7727 774.97059,-0.3507 803.30789,0.4786 c 74.58713,2.1828 111.22328,5.1416 152.96045,12.3533 c 34.90069,6.0305 66.10255,14.5431 92.14805,25.1403 c 28.90007,11.7586 67.93807,35.6951 94.27249,57.8041 c 24.08118,20.2172 52.39634,51.696 69.50417,77.2697 c 27.40876,40.9722 44.92544,81.5642 54.48975,126.2709 c 2.0427,9.5481 7.5352,40.5742 9.5433,53.9079 c 4.7447,31.5043 7.3924,66.4897 8.9033,117.6415 c 0.8272,28.0023 1.2273,742.0895 0.4567,814.9924 c -0.6825,64.5731 -1.8558,98.6886 -4.564,132.7029 c -5.9213,74.3703 -21.87168,136.2374 -47.80384,185.4176 c -7.83137,14.852 -18.80155,31.9295 -30.54535,47.5505 c -23.00313,30.5976 -46.50391,54.389 -74.58963,75.5123 c -48.63111,36.5753 -94.65909,56.7768 -158.32303,69.4872 c -51.86283,10.3544 -93.05381,13.1537 -222.7503,15.1381 c -27.97184,0.4279 -676.86617,0.5685 -740.10549,0.1603 z"
         id="path3120"
         inkscape:connector-curvature="0" />
      <path
         style="fill:#ffffff;fill-opacity:1"
         d="m -255.18484,3598.5738 c -65.89075,-0.4253 -133.31625,-3.6429 -171.28383,-8.1738 c -35.62761,-4.2516 -75.24646,-12.6237 -101.97363,-21.5486 c -19.91256,-6.6493 -47.54459,-19.4411 -66.12352,-30.6108 c -37.44793,-22.5137 -72.20796,-52.2487 -98.54251,-84.2969 c -24.29731,-29.5689 -41.20817,-56.8511 -55.47181,-89.4924 c -6.61929,-15.1478 -8.38704,-19.8689 -11.92879,-31.8579 c -16.20259,-54.8465 -23.54268,-107.7838 -26.58122,-191.706 c -1.42838,-39.4507 -1.67596,-120.9647 -1.45114,-477.7704 c 0.16145,-256.2384 0.41117,-371.6315 0.83443,-385.5878 c 4.03548,-133.0627 14.45033,-200.8155 39.80624,-258.9554 c 22.87778,-52.4577 63.32922,-104.9173 108.81811,-141.1212 c 12.25925,-9.757 31.66981,-22.9097 46.90669,-31.7844 c 24.79601,-14.4423 54.99637,-27.5472 78.82329,-34.2039 c 41.36425,-11.5562 93.35603,-18.869 158.31851,-22.2681 c 28.5354,-1.493 42.80966,-1.8693 92.94472,-2.45 c 66.71195,-0.7727 774.97059,-0.3507 803.30789,0.4786 c 74.58713,2.1828 111.22328,5.1416 152.96045,12.3533 c 34.90069,6.0305 66.10255,14.5431 92.14805,25.1403 c 28.90007,11.7586 67.93807,35.6951 94.27249,57.8041 c 24.08118,20.2172 52.39634,51.696 69.50417,77.2697 c 27.40876,40.9722 44.92544,81.5642 54.48975,126.2709 c 2.0427,9.5481 7.5352,40.5742 9.5433,53.9079 c 4.7447,31.5043 7.3924,66.4897 8.9033,117.6415 c 0.8272,28.0023 1.2273,742.0895 0.4567,814.9924 c -0.6825,64.5731 -1.8558,98.6886 -4.564,132.7029 c -5.9213,74.3703 -21.87168,136.2374 -47.80384,185.4176 c -7.83137,14.852 -18.80155,31.9295 -30.54535,47.5505 c -23.00313,30.5976 -46.50391,54.389 -74.58963,75.5123 c -48.63111,36.5753 -94.65909,56.7768 -158.32303,69.4872 c -51.86283,10.3544 -93.05381,13.1537 -222.7503,15.1381 c -27.97184,0.4279 -676.86617,0.5685 -740.10549,0.1603 z"
         id="path3118"
         inkscape:connector-curvature="0" />
      <path
         style="fill:#ffffff;fill-opacity:1"
         d="m -255.18484,3598.5738 c -65.89075,-0.4253 -133.31625,-3.6429 -171.28383,-8.1738 c -35.62761,-4.2516 -75.24646,-12.6237 -101.97363,-21.5486 c -19.91256,-6.6493 -47.54459,-19.4411 -66.12352,-30.6108 c -37.44793,-22.5137 -72.20796,-52.2487 -98.54251,-84.2969 c -24.29731,-29.5689 -41.20817,-56.8511 -55.47181,-89.4924 c -6.61929,-15.1478 -8.38704,-19.8689 -11.92879,-31.8579 c -16.20259,-54.8465 -23.54268,-107.7838 -26.58122,-191.706 c -1.42838,-39.4507 -1.67596,-120.9647 -1.45114,-477.7704 c 0.16145,-256.2384 0.41117,-371.6315 0.83443,-385.5878 c 4.03548,-133.0627 14.45033,-200.8155 39.80624,-258.9554 c 22.87778,-52.4577 63.32922,-104.9173 108.81811,-141.1212 c 12.25925,-9.757 31.66981,-22.9097 46.90669,-31.7844 c 24.79601,-14.4423 54.99637,-27.5472 78.82329,-34.2039 c 41.36425,-11.5562 93.35603,-18.869 158.31851,-22.2681 c 28.5354,-1.493 42.80966,-1.8693 92.94472,-2.45 c 66.71195,-0.7727 774.97059,-0.3507 803.30789,0.4786 c 74.58713,2.1828 111.22328,5.1416 152.96045,12.3533 c 34.90069,6.0305 66.10255,14.5431 92.14805,25.1403 c 28.90007,11.7586 67.93807,35.6951 94.27249,57.8041 c 24.08118,20.2172 52.39634,51.696 69.50417,77.2697 c 27.40876,40.9722 44.92544,81.5642 54.48975,126.2709 c 2.0427,9.5481 7.5352,40.5742 9.5433,53.9079 c 4.7447,31.5043 7.3924,66.4897 8.9033,117.6415 c 0.8272,28.0023 1.2273,742.0895 0.4567,814.9924 c -0.6825,64.5731 -1.8558,98.6886 -4.564,132.7029 c -5.9213,74.3703 -21.87168,136.2374 -47.80384,185.4176 c -7.83137,14.852 -18.80155,31.9295 -30.54535,47.5505 c -23.00313,30.5976 -46.50391,54.389 -74.58963,75.5123 c -48.63111,36.5753 -94.65909,56.7768 -158.32303,69.4872 c -51.86283,10.3544 -93.05381,13.1537 -222.7503,15.1381 c -27.97184,0.4279 -676.86617,0.5685 -740.10549,0.1603 z"
         id="path3116"
         inkscape:connector-curvature="0" />
      <path
         style="fill:#ffffff;fill-opacity:1"
         d="m -255.18484,3598.5738 c -65.89075,-0.4253 -133.31625,-3.6429 -171.28383,-8.1738 c -35.62761,-4.2516 -75.24646,-12.6237 -101.97363,-21.5486 c -19.91256,-6.6493 -47.54459,-19.4411 -66.12352,-30.6108 c -37.44793,-22.5137 -72.20796,-52.2487 -98.54251,-84.2969 c -24.29731,-29.5689 -41.20817,-56.8511 -55.47181,-89.4924 c -6.61929,-15.1478 -8.38704,-19.8689 -11.92879,-31.8579 c -16.20259,-54.8465 -23.54268,-107.7838 -26.58122,-191.706 c -1.42838,-39.4507 -1.67596,-120.9647 -1.45114,-477.7704 c 0.16145,-256.2384 0.41117,-371.6315 0.83443,-385.5878 c 4.03548,-133.0627 14.45033,-200.8155 39.80624,-258.9554 c 22.87778,-52.4577 63.32922,-104.9173 108.81811,-141.1212 c 12.25925,-9.757 31.66981,-22.9097 46.90669,-31.7844 c 24.79601,-14.4423 54.99637,-27.5472 78.82329,-34.2039 c 41.36425,-11.5562 93.35603,-18.869 158.31851,-22.2681 c 28.5354,-1.493 42.80966,-1.8693 92.94472,-2.45 c 66.71195,-0.7727 774.97059,-0.3507 803.30789,0.4786 c 74.58713,2.1828 111.22328,5.1416 152.96045,12.3533 c 34.90069,6.0305 66.10255,14.5431 92.14805,25.1403 c 28.90007,11.7586 67.93807,35.6951 94.27249,57.8041 c 24.08118,20.2172 52.39634,51.696 69.50417,77.2697 c 27.40876,40.9722 44.92544,81.5642 54.48975,126.2709 c 2.0427,9.5481 7.5352,40.5742 9.5433,53.9079 c 4.7447,31.5043 7.3924,66.4897 8.9033,117.6415 c 0.8272,28.0023 1.2273,742.0895 0.4567,814.9924 c -0.6825,64.5731 -1.8558,98.6886 -4.564,132.7029 c -5.9213,74.3703 -21.87168,136.2374 -47.80384,185.4176 c -7.83137,14.852 -18.80155,31.9295 -30.54535,47.5505 c -23.00313,30.5976 -46.50391,54.389 -74.58963,75.5123 c -48.63111,36.5753 -94.65909,56.7768 -158.32303,69.4872 c -51.86283,10.3544 -93.05381,13.1537 -222.7503,15.1381 c -27.97184,0.4279 -676.86617,0.5685 -740.10549,0.1603 z"
         id="path3114"
         inkscape:connector-curvature="0" />
      <path
         style="fill:#ffffff;fill-opacity:1"
         d="m -255.18484,3598.5738 c -65.89075,-0.4253 -133.31625,-3.6429 -171.28383,-8.1738 c -35.62761,-4.2516 -75.24646,-12.6237 -101.97363,-21.5486 c -19.91256,-6.6493 -47.54459,-19.4411 -66.12352,-30.6108 c -37.44793,-22.5137 -72.20796,-52.2487 -98.54251,-84.2969 c -24.29731,-29.5689 -41.20817,-56.8511 -55.47181,-89.4924 c -6.61929,-15.1478 -8.38704,-19.8689 -11.92879,-31.8579 c -16.20259,-54.8465 -23.54268,-107.7838 -26.58122,-191.706 c -1.42838,-39.4507 -1.67596,-120.9647 -1.45114,-477.7704 c 0.16145,-256.2384 0.41117,-371.6315 0.83443,-385.5878 c 4.03548,-133.0627 14.45033,-200.8155 39.80624,-258.9554 c 22.87778,-52.4577 63.32922,-104.9173 108.81811,-141.1212 c 12.25925,-9.757 31.66981,-22.9097 46.90669,-31.7844 c 24.79601,-14.4423 54.99637,-27.5472 78.82329,-34.2039 c 41.36425,-11.5562 93.35603,-18.869 158.31851,-22.2681 c 28.5354,-1.493 42.80966,-1.8693 92.94472,-2.45 c 66.71195,-0.7727 774.97059,-0.3507 803.30789,0.4786 c 74.58713,2.1828 111.22328,5.1416 152.96045,12.3533 c 34.90069,6.0305 66.10255,14.5431 92.14805,25.1403 c 28.90007,11.7586 67.93807,35.6951 94.27249,57.8041 c 24.08118,20.2172 52.39634,51.696 69.50417,77.2697 c 27.40876,40.9722 44.92544,81.5642 54.48975,126.2709 c 2.0427,9.5481 7.5352,40.5742 9.5433,53.9079 c 4.7447,31.5043 7.3924,66.4897 8.9033,117.6415 c 0.8272,28.0023 1.2273,742.0895 0.4567,814.9924 c -0.6825,64.5731 -1.8558,98.6886 -4.564,132.7029 c -5.9213,74.3703 -21.87168,136.2374 -47.80384,185.4176 c -7.83137,14.852 -18.80155,31.9295 -30.54535,47.5505 c -23.00313,30.5976 -46.50391,54.389 -74.58963,75.5123 c -48.63111,36.5753 -94.65909,56.7768 -158.32303,69.4872 c -51.86283,10.3544 -93.05381,13.1537 -222.7503,15.1381 c -27.97184,0.4279 -676.86617,0.5685 -740.10549,0.1603 z"
         id="path3112"
         inkscape:connector-curvature="0" />
      <path
         style="fill:#ffffff;fill-opacity:1"
         d="m -255.18484,3598.5738 c -65.89075,-0.4253 -133.31625,-3.6429 -171.28383,-8.1738 c -35.62761,-4.2516 -75.24646,-12.6237 -101.97363,-21.5486 c -19.91256,-6.6493 -47.54459,-19.4411 -66.12352,-30.6108 c -37.44793,-22.5137 -72.20796,-52.2487 -98.54251,-84.2969 c -24.29731,-29.5689 -41.20817,-56.8511 -55.47181,-89.4924 c -6.61929,-15.1478 -8.38704,-19.8689 -11.92879,-31.8579 c -16.20259,-54.8465 -23.54268,-107.7838 -26.58122,-191.706 c -1.42838,-39.4507 -1.67596,-120.9647 -1.45114,-477.7704 c 0.16145,-256.2384 0.41117,-371.6315 0.83443,-385.5878 c 4.03548,-133.0627 14.45033,-200.8155 39.80624,-258.9554 c 22.87778,-52.4577 63.32922,-104.9173 108.81811,-141.1212 c 12.25925,-9.757 31.66981,-22.9097 46.90669,-31.7844 c 24.79601,-14.4423 54.99637,-27.5472 78.82329,-34.2039 c 41.36425,-11.5562 93.35603,-18.869 158.31851,-22.2681 c 28.5354,-1.493 42.80966,-1.8693 92.94472,-2.45 c 66.71195,-0.7727 774.97059,-0.3507 803.30789,0.4786 c 74.58713,2.1828 111.22328,5.1416 152.96045,12.3533 c 34.90069,6.0305 66.10255,14.5431 92.14805,25.1403 c 28.90007,11.7586 67.93807,35.6951 94.27249,57.8041 c 24.08118,20.2172 52.39634,51.696 69.50417,77.2697 c 27.40876,40.9722 44.92544,81.5642 54.48975,126.2709 c 2.0427,9.5481 7.5352,40.5742 9.5433,53.9079 c 4.7447,31.5043 7.3924,66.4897 8.9033,117.6415 c 0.8272,28.0023 1.2273,742.0895 0.4567,814.9924 c -0.6825,64.5731 -1.8558,98.6886 -4.564,132.7029 c -5.9213,74.3703 -21.87168,136.2374 -47.80384,185.4176 c -7.83137,14.852 -18.80155,31.9295 -30.54535,47.5505 c -23.00313,30.5976 -46.50391,54.389 -74.58963,75.5123 c -48.63111,36.5753 -94.65909,56.7768 -158.32303,69.4872 c -51.86283,10.3544 -93.05381,13.1537 -222.7503,15.1381 c -27.97184,0.4279 -676.86617,0.5685 -740.10549,0.1603 z"
         id="path3110"
         inkscape:connector-curvature="0" />
    </g>
  </g>
  <g
     inkscape:groupmode="layer"
     id="layer2"
     inkscape:label="GUIDES"
     style="display:none"
     transform="translate(0,-2.2054443)"
     sodipodi:insensitive="true">
    <path
       style="color:#000000;display:inline;overflow:visible;visibility:visible;fill:none;stroke:#000000;stroke-width:2;stroke-linecap:butt;stroke-linejoin:miter;stroke-miterlimit:4;stroke-dasharray:none;stroke-dashoffset:0;stroke-opacity:1;marker:none;enable-background:accumulate"
       d="m 0.99801512,321.03518 l 0,386.27669"
       id="path4024"
       inkscape:connector-curvature="0" />
    <circle
       style="color:#000000;display:inline;overflow:visible;visibility:visible;fill:none;stroke:#000000;stroke-width:1.00571477;stroke-linecap:butt;stroke-linejoin:miter;stroke-miterlimit:4;stroke-dasharray:none;stroke-dashoffset:0;stroke-opacity:1;marker:none;enable-background:accumulate"
       id="path3129"
       transform="matrix(1.988799,0,0,1.988471,-407.91018,-80.585593)"
       cx="462.32144"
       cy="298.86218"
       r="138" />
    <circle
       style="color:#000000;display:inline;overflow:visible;visibility:visible;fill:none;stroke:#000000;stroke-width:0.62086099;stroke-linecap:butt;stroke-linejoin:miter;stroke-miterlimit:4;stroke-dasharray:none;stroke-dashoffset:0;stroke-opacity:1;marker:none;enable-background:accumulate"
       id="path3129-9"
       transform="matrix(3.2215081,0,0,3.2211587,-977.38931,-448.55899)"
       cx="462.32144"
       cy="298.86218"
       r="138" />
    <path
       style="color:#000000;display:inline;overflow:visible;visibility:visible;fill:none;stroke:#000000;stroke-width:2;stroke-linecap:butt;stroke-linejoin:miter;stroke-miterlimit:4;stroke-dasharray:none;stroke-dashoffset:0;stroke-opacity:1;marker:none;enable-background:accumulate"
       d="M 67.351921,69.489974 L 956.5625,958.70544"
       id="path4011"
       inkscape:connector-curvature="0"
       sodipodi:nodetypes="cc" />
    <path
       style="color:#000000;display:inline;overflow:visible;visibility:visible;fill:none;stroke:#000000;stroke-width:2;stroke-linecap:butt;stroke-linejoin:miter;stroke-miterlimit:4;stroke-dasharray:none;stroke-dashoffset:0;stroke-opacity:1;marker:none;enable-background:accumulate"
       d="m 0.99801467,707.31189 l 1022.00298533,0"
       id="path4028"
       inkscape:connector-curvature="0" />
    <path
       style="color:#000000;display:inline;overflow:visible;visibility:visible;fill:none;stroke:#000000;stroke-width:2;stroke-linecap:butt;stroke-linejoin:miter;stroke-miterlimit:4;stroke-dasharray:none;stroke-dashoffset:0;stroke-opacity:1;marker:none;enable-background:accumulate"
       d="m 0.99801467,513.69318 l 1022.00298533,0"
       id="path4030"
       inkscape:connector-curvature="0" />
    <path
       style="color:#000000;display:inline;overflow:visible;visibility:visible;fill:none;stroke:#000000;stroke-width:2;stroke-linecap:butt;stroke-linejoin:miter;stroke-miterlimit:4;stroke-dasharray:none;stroke-dashoffset:0;stroke-opacity:1;marker:none;enable-background:accumulate"
       d="m 0.99801467,321.0352 l 1022.00298533,0"
       id="path4032"
       inkscape:connector-curvature="0" />
    <path
       style="color:#000000;display:inline;overflow:visible;visibility:visible;fill:none;stroke:#000000;stroke-width:2;stroke-linecap:butt;stroke-linejoin:miter;stroke-miterlimit:4;stroke-dasharray:none;stroke-dashoffset:0;stroke-opacity:1;marker:none;enable-background:accumulate"
       d="m 319.08193,1026.2054 l 0,-1023.9999557"
       id="path4034"
       inkscape:connector-curvature="0"
       sodipodi:nodetypes="cc" />
    <path
       style="color:#000000;display:inline;overflow:visible;visibility:visible;fill:none;stroke:#000000;stroke-width:2;stroke-linecap:butt;stroke-linejoin:miter;stroke-miterlimit:4;stroke-dasharray:none;stroke-dashoffset:0;stroke-opacity:1;marker:none;enable-background:accumulate"
       d="m 511.68014,2.2054443 l 0,1023.9999557"
       id="path4036"
       inkscape:connector-curvature="0"
       sodipodi:nodetypes="cc" />
    <path
       style="color:#000000;display:inline;overflow:visible;visibility:visible;fill:none;stroke:#000000;stroke-width:2;stroke-linecap:butt;stroke-linejoin:miter;stroke-miterlimit:4;stroke-dasharray:none;stroke-dashoffset:0;stroke-opacity:1;marker:none;enable-background:accumulate"
       d="m 706.1875,1026.2054 l 0,-1023.9999557"
       id="path4038"
       inkscape:connector-curvature="0"
       sodipodi:nodetypes="cc" />
    <path
       style="color:#000000;display:inline;overflow:visible;visibility:visible;fill:none;stroke:#000000;stroke-width:2;stroke-linecap:butt;stroke-linejoin:miter;stroke-miterlimit:4;stroke-dasharray:none;stroke-dashoffset:0;stroke-opacity:1;marker:none;enable-background:accumulate"
       d="M 67.351921,958.70544 L 956.5625,69.489974"
       id="path4001"
       inkscape:connector-curvature="0"
       sodipodi:nodetypes="cc" />
    <path
       style="color:#000000;display:inline;overflow:visible;visibility:visible;fill:none;stroke:#000000;stroke-width:2;stroke-linecap:butt;stroke-linejoin:miter;stroke-miterlimit:4;stroke-dasharray:none;stroke-dashoffset:0;stroke-opacity:1;marker:none;enable-background:accumulate"
       d="m 956.5625,69.489974 l 0,889.215466"
       id="path4003"
       inkscape:connector-curvature="0"
       sodipodi:nodetypes="cc" />
    <path
       style="color:#000000;display:inline;overflow:visible;visibility:visible;fill:none;stroke:#000000;stroke-width:2;stroke-linecap:butt;stroke-linejoin:miter;stroke-miterlimit:4;stroke-dasharray:none;stroke-dashoffset:0;stroke-opacity:1;marker:none;enable-background:accumulate"
       d="m 67.351921,69.489974 l 889.210579,0"
       id="path4009"
       inkscape:connector-curvature="0"
       sodipodi:nodetypes="cc" />
    <path
       style="color:#000000;display:inline;overflow:visible;visibility:visible;fill:none;stroke:#000000;stroke-width:2;stroke-linecap:butt;stroke-linejoin:miter;stroke-miterlimit:4;stroke-dasharray:none;stroke-dashoffset:0;stroke-opacity:1;marker:none;enable-background:accumulate"
       d="m 67.351921,958.70544 l 0,-889.215466"
       id="path4007"
       inkscape:connector-curvature="0"
       sodipodi:nodetypes="cc" />
    <path
       style="color:#000000;display:inline;overflow:visible;visibility:visible;fill:none;stroke:#000000;stroke-width:2;stroke-linecap:butt;stroke-linejoin:miter;stroke-miterlimit:4;stroke-dasharray:none;stroke-dashoffset:0;stroke-opacity:1;marker:none;enable-background:accumulate"
       d="m 956.5625,958.70544 l -889.210579,-3e-5"
       id="path4005"
       inkscape:connector-curvature="0"
       sodipodi:nodetypes="cc" />
    <circle
       style="color:#000000;display:inline;overflow:visible;visibility:visible;fill:none;stroke:#000000;stroke-width:1.42908275;stroke-linecap:butt;stroke-linejoin:miter;stroke-miterlimit:4;stroke-dasharray:none;stroke-dashoffset:0;stroke-opacity:1;marker:none;enable-background:accumulate"
       id="path3129-7"
       transform="matrix(1.4025564,0,0,1.3964479,-135.79717,96.569794)"
       cx="462.32144"
       cy="298.86218"
       r="138" />
  </g>
</svg>
