<?xml version="1.0" encoding="UTF-8" standalone="no"?>
<!-- Created with Inkscape (http://www.inkscape.org/) -->

<svg
   xmlns:dc="http://purl.org/dc/elements/1.1/"
   xmlns:cc="http://creativecommons.org/ns#"
   xmlns:rdf="http://www.w3.org/1999/02/22-rdf-syntax-ns#"
   xmlns:svg="http://www.w3.org/2000/svg"
   xmlns="http://www.w3.org/2000/svg"
   xmlns:sodipodi="http://sodipodi.sourceforge.net/DTD/sodipodi-0.dtd"
   xmlns:inkscape="http://www.inkscape.org/namespaces/inkscape"
   width="400"
   height="400"
   viewBox="0 0 400 400"
   id="svg2"
   version="1.1"
   inkscape:version="0.91 r13725"
   sodipodi:docname="Email Logo.svg"
   inkscape:export-filename="/Users/ratface/Sites/bracingeffect.github.io/images/email-logo.png"
   inkscape:export-xdpi="9"
   inkscape:export-ydpi="9">
  <defs
     id="defs4" />
  <sodipodi:namedview
     id="base"
     pagecolor="#808080"
     bordercolor="#666666"
     borderopacity="1.0"
     inkscape:pageopacity="0"
     inkscape:pageshadow="2"
     inkscape:zoom="1"
     inkscape:cx="106.47548"
     inkscape:cy="240.57406"
     inkscape:document-units="px"
     inkscape:current-layer="layer1"
     showgrid="false"
     showguides="true"
     inkscape:guide-bbox="true"
     units="px"
     inkscape:window-width="1440"
     inkscape:window-height="851"
     inkscape:window-x="0"
     inkscape:window-y="1"
     inkscape:window-maximized="1"
     inkscape:snap-bbox="true"
     inkscape:bbox-paths="true"
     inkscape:bbox-nodes="true"
     inkscape:snap-bbox-edge-midpoints="true"
     inkscape:snap-bbox-midpoints="true"
     inkscape:object-paths="true"
     inkscape:snap-intersection-paths="true"
     inkscape:object-nodes="true"
     inkscape:snap-smooth-nodes="true"
     inkscape:snap-midpoints="true" />
  <metadata
     id="metadata7">
    <rdf:RDF>
      <cc:Work
         rdf:about="">
        <dc:format>image/svg+xml</dc:format>
        <dc:type
           rdf:resource="http://purl.org/dc/dcmitype/StillImage" />
        <dc:title />
      </cc:Work>
    </rdf:RDF>
  </metadata>
  <g
     inkscape:label="Logo"
     inkscape:groupmode="layer"
     id="layer1"
     transform="translate(0,-652.36221)"
     style="display:inline">
    <path
       style="fill:#0080ff;fill-opacity:1;fill-rule:evenodd;stroke:none;stroke-width:1px;stroke-linecap:butt;stroke-linejoin:miter;stroke-opacity:1"
       d="m 0,719.02888 l 199.99999,200 L 400,719.02888 l -400,0 z m 0,32 L 0,953.69554 L 101.33333,852.36222 L 0,751.02888 Z m 400,0 L 298.66667,852.36222 L 400,953.69554 l 0,-202.66666 z M 117.33333,868.36222 L 0,985.69554 l 400,0 L 282.66667,868.36222 l -82.66668,82.66662 l -82.66666,-82.66662 z"
       id="path4323"
       inkscape:export-filename="/Users/ratface/Sites/bracingeffect.github.io/Images/email.png"
       inkscape:export-xdpi="18"
       inkscape:export-ydpi="18"
       inkscape:connector-curvature="0" />
  </g>
  <g
     inkscape:label="Encircled"
     inkscape:groupmode="layer"
     id="g4139"
     transform="translate(0,-652.36221)"
     style="display:none">
    <path
       style="opacity:1;fill:#0080ff;fill-opacity:1;fill-rule:nonzero;stroke:none;stroke-width:10.34300041;stroke-miterlimit:4;stroke-dasharray:none;stroke-opacity:1"
       d="M 200,-300 A 200,200 0 0 0 0,-100 A 200,200 0 0 0 200,100 A 200,200 0 0 0 400,-100 A 200,200 0 0 0 200,-300 Z M 80,-180 l 240,0 L 200,-60 L 80,-180 Z m 0,19.19922 L 140.80078,-100 L 80,-39.199219 l 0,-121.601561 z m 240,0 l 0,121.601561 L 259.19922,-100 L 320,-160.80078 Z M 150.40039,-90.400391 L 200,-40.800781 l 49.59961,-49.59961 L 320,-20 l -240,0 l 70.40039,-70.400391 z"
       transform="translate(0,952.36221)"
       id="path4145"
       inkscape:export-filename="/Users/ratface/Sites/bracingeffect.github.io/images/email.png"
       inkscape:export-xdpi="9"
       inkscape:export-ydpi="9"
       inkscape:connector-curvature="0" />
  </g>
</svg>
