<?xml version="1.0" encoding="UTF-8" standalone="no"?>
<!-- Created with Inkscape (http://www.inkscape.org/) -->

<svg
   xmlns:dc="http://purl.org/dc/elements/1.1/"
   xmlns:cc="http://creativecommons.org/ns#"
   xmlns:rdf="http://www.w3.org/1999/02/22-rdf-syntax-ns#"
   xmlns:svg="http://www.w3.org/2000/svg"
   xmlns="http://www.w3.org/2000/svg"
   xmlns:sodipodi="http://sodipodi.sourceforge.net/DTD/sodipodi-0.dtd"
   xmlns:inkscape="http://www.inkscape.org/namespaces/inkscape"
   width="150"
   height="100"
   viewBox="0 0 150 100"
   id="svg2"
   version="1.1"
   inkscape:version="0.91 r13725"
   sodipodi:docname="Envelope.svg"
   inkscape:export-filename="/Users/ratface/Sites/bracingeffect.github.io/images/envelope_2x.png"
   inkscape:export-xdpi="36"
   inkscape:export-ydpi="36">
  <defs
     id="defs4" />
  <sodipodi:namedview
     id="base"
     pagecolor="#808080"
     bordercolor="#666666"
     borderopacity="1.0"
     inkscape:pageopacity="0"
     inkscape:pageshadow="2"
     inkscape:zoom="1"
     inkscape:cx="163.16727"
     inkscape:cy="93.951733"
     inkscape:document-units="px"
     inkscape:current-layer="g4139"
     showgrid="false"
     showguides="true"
     inkscape:guide-bbox="true"
     units="px"
     inkscape:window-width="1440"
     inkscape:window-height="851"
     inkscape:window-x="0"
     inkscape:window-y="1"
     inkscape:window-maximized="1"
     inkscape:snap-bbox="true"
     inkscape:bbox-paths="true"
     inkscape:bbox-nodes="true"
     inkscape:snap-bbox-edge-midpoints="true"
     inkscape:snap-bbox-midpoints="true"
     inkscape:object-paths="true"
     inkscape:snap-intersection-paths="true"
     inkscape:object-nodes="true"
     inkscape:snap-smooth-nodes="true"
     inkscape:snap-midpoints="true" />
  <metadata
     id="metadata7">
    <rdf:RDF>
      <cc:Work
         rdf:about="">
        <dc:format>image/svg+xml</dc:format>
        <dc:type
           rdf:resource="http://purl.org/dc/dcmitype/StillImage" />
        <dc:title />
      </cc:Work>
    </rdf:RDF>
  </metadata>
  <g
     inkscape:label="Light"
     inkscape:groupmode="layer"
     id="layer1"
     transform="translate(0,-952.36221)"
     style="display:none">
    <path
       style="fill:#ffffff;fill-opacity:1;fill-rule:evenodd;stroke:none;stroke-width:1px;stroke-linecap:butt;stroke-linejoin:miter;stroke-opacity:1"
       d="M 0,0 L 75,75 L 150,0 L 0,0 Z M 0,12 L 0,88 L 38,50 L 0,12 Z m 150,0 l -38,38 l 38,38 l 0,-76 z M 44,56 L 0,100 l 150,0 L 106,56 L 75,87 L 44,56 Z"
       transform="translate(0,952.36221)"
       id="path4323"
       inkscape:export-filename="/Users/ratface/Sites/bracingeffect.github.io/Images/envelope.png"
       inkscape:export-xdpi="19.799999"
       inkscape:export-ydpi="19.799999"
       inkscape:connector-curvature="0" />
  </g>
  <g
     transform="translate(0,-952.36221)"
     id="g4134"
     inkscape:groupmode="layer"
     inkscape:label="Dark"
     style="display:none">
    <path
       inkscape:export-ydpi="19.799999"
       inkscape:export-xdpi="19.799999"
       inkscape:export-filename="/Users/ratface/Sites/bracingeffect.github.io/Images/envelope-dark.png"
       id="path4136"
       transform="translate(0,952.36221)"
       d="M 0,0 L 75,75 L 150,0 L 0,0 Z M 0,12 L 0,88 L 38,50 L 0,12 Z m 150,0 l -38,38 l 38,38 l 0,-76 z M 44,56 L 0,100 l 150,0 L 106,56 L 75,87 L 44,56 Z"
       style="fill:#000000;fill-opacity:1;fill-rule:evenodd;stroke:none;stroke-width:1px;stroke-linecap:butt;stroke-linejoin:miter;stroke-opacity:1"
       inkscape:connector-curvature="0" />
  </g>
  <g
     style="display:none"
     transform="translate(0,-952.36221)"
     id="g4136"
     inkscape:groupmode="layer"
     inkscape:label="Shadowed">
    <path
       sodipodi:nodetypes="ccccc"
       inkscape:connector-curvature="0"
       id="path4157"
       d="M 10.000011,962.36222 L 10,1052.3622 l 140,0 l 0,-89.99998 z"
       style="opacity:0.3;fill:#000000;fill-opacity:1;fill-rule:evenodd;stroke:none;stroke-width:1px;stroke-linecap:butt;stroke-linejoin:miter;stroke-opacity:1"
       inkscape:export-filename="/Users/ratface/Sites/bracingeffect.github.io/images/envelope_2x.png"
       inkscape:export-xdpi="39.600002"
       inkscape:export-ydpi="39.600002" />
    <path
       style="fill:#ffffff;fill-opacity:1;fill-rule:evenodd;stroke:none;stroke-width:1px;stroke-linecap:butt;stroke-linejoin:miter;stroke-opacity:1"
       d="M 140,0 L 0,0 L 70,69.99999 Z M 0,10.800781 L 0,79.199219 L 34.199219,45 Z m 140,0 L 105.80078,45 L 140,79.199219 Z M 140,90 L 100.40039,50.400391 L 70,80.79999 L 39.599609,50.400391 L 0,90 Z"
       transform="translate(0,952.36221)"
       id="path4138"
       inkscape:connector-curvature="0"
       sodipodi:nodetypes="cccccccccccccccccc"
       inkscape:export-filename="/Users/ratface/Sites/bracingeffect.github.io/images/envelope_2x.png"
       inkscape:export-xdpi="39.600002"
       inkscape:export-ydpi="39.600002" />
  </g>
  <g
     inkscape:label="Encircled"
     inkscape:groupmode="layer"
     id="g4139"
     transform="translate(0,-952.36221)"
     style="display:inline">
    <path
       style="opacity:1;fill:#ffffff;fill-opacity:1;fill-rule:nonzero;stroke:none;stroke-width:10.34300041;stroke-miterlimit:4;stroke-dasharray:none;stroke-opacity:1"
       d="M 200 -300 A 200 200 0 0 0 0 -100 A 200 200 0 0 0 200 100 A 200 200 0 0 0 400 -100 A 200 200 0 0 0 200 -300 z M 80 -180 L 320 -180 L 200 -60 L 80 -180 z M 80 -160.80078 L 140.80078 -100 L 80 -39.199219 L 80 -160.80078 z M 320 -160.80078 L 320 -39.199219 L 259.19922 -100 L 320 -160.80078 z M 150.40039 -90.400391 L 200 -40.800781 L 249.59961 -90.400391 L 320 -20 L 80 -20 L 150.40039 -90.400391 z "
       transform="translate(0,952.36221)"
       id="path4145"
       inkscape:export-filename="/Users/ratface/Sites/bracingeffect.github.io/images/envelope.png"
       inkscape:export-xdpi="9"
       inkscape:export-ydpi="9" />
  </g>
</svg>
