<?xml version="1.0" encoding="UTF-8" standalone="no"?>
<!-- Created with Inkscape (http://www.inkscape.org/) -->

<svg
   xmlns:dc="http://purl.org/dc/elements/1.1/"
   xmlns:cc="http://creativecommons.org/ns#"
   xmlns:rdf="http://www.w3.org/1999/02/22-rdf-syntax-ns#"
   xmlns:svg="http://www.w3.org/2000/svg"
   xmlns="http://www.w3.org/2000/svg"
   xmlns:sodipodi="http://sodipodi.sourceforge.net/DTD/sodipodi-0.dtd"
   xmlns:inkscape="http://www.inkscape.org/namespaces/inkscape"
   width="1000"
   height="1000"
   id="svg2"
   version="1.1"
   inkscape:version="0.91 r13725"
   sodipodi:docname="Freelance Logo.svg"
   inkscape:export-filename="/Users/ratface/Sites/bracingeffect.github.io/images/freelance-logo.png"
   inkscape:export-xdpi="9"
   inkscape:export-ydpi="9">
  <defs
     id="defs4">
    <clipPath
       clipPathUnits="userSpaceOnUse"
       id="clipPath4638">
      <path
         id="path4640"
         d="m 891.02585,365.60286 l 0,590.75932 l -859.025124,0 l 0,-590.75932 z"
         style="color:#000000;font-style:normal;font-variant:normal;font-weight:normal;font-stretch:normal;font-size:medium;line-height:normal;font-family:sans-serif;text-indent:0;text-align:start;text-decoration:none;text-decoration-line:none;text-decoration-style:solid;text-decoration-color:#000000;letter-spacing:normal;word-spacing:normal;text-transform:none;direction:ltr;block-progression:tb;writing-mode:lr-tb;baseline-shift:baseline;text-anchor:start;white-space:normal;clip-rule:nonzero;display:inline;overflow:visible;visibility:visible;opacity:1;isolation:auto;mix-blend-mode:normal;color-interpolation:sRGB;color-interpolation-filters:linearRGB;solid-color:#000000;solid-opacity:1;fill:#00ff00;fill-opacity:0.49289102;fill-rule:nonzero;stroke:#ffffff;stroke-width:8;stroke-linecap:butt;stroke-linejoin:miter;stroke-miterlimit:4;stroke-dasharray:none;stroke-dashoffset:0;stroke-opacity:1;color-rendering:auto;image-rendering:auto;shape-rendering:auto;text-rendering:auto;enable-background:accumulate"
         inkscape:connector-curvature="0"
         sodipodi:nodetypes="ccccc" />
    </clipPath>
    <clipPath
       clipPathUnits="userSpaceOnUse"
       id="clipPath4981">
      <path
         id="path4983"
         d="m 891.02585,365.60286 l 0,590.75932 l -859.025124,0 l 0,-590.75932 z"
         style="color:#000000;font-style:normal;font-variant:normal;font-weight:normal;font-stretch:normal;font-size:medium;line-height:normal;font-family:sans-serif;text-indent:0;text-align:start;text-decoration:none;text-decoration-line:none;text-decoration-style:solid;text-decoration-color:#000000;letter-spacing:normal;word-spacing:normal;text-transform:none;direction:ltr;block-progression:tb;writing-mode:lr-tb;baseline-shift:baseline;text-anchor:start;white-space:normal;clip-rule:nonzero;display:inline;overflow:visible;visibility:visible;opacity:1;isolation:auto;mix-blend-mode:normal;color-interpolation:sRGB;color-interpolation-filters:linearRGB;solid-color:#000000;solid-opacity:1;fill:#00ff00;fill-opacity:0.49289102;fill-rule:nonzero;stroke:#ffffff;stroke-width:8;stroke-linecap:butt;stroke-linejoin:miter;stroke-miterlimit:4;stroke-dasharray:none;stroke-dashoffset:0;stroke-opacity:1;color-rendering:auto;image-rendering:auto;shape-rendering:auto;text-rendering:auto;enable-background:accumulate"
         inkscape:connector-curvature="0"
         sodipodi:nodetypes="ccccc" />
    </clipPath>
    <clipPath
       clipPathUnits="userSpaceOnUse"
       id="clipPath5045">
      <path
         sodipodi:nodetypes="ccccc"
         inkscape:connector-curvature="0"
         style="color:#000000;font-style:normal;font-variant:normal;font-weight:normal;font-stretch:normal;font-size:medium;line-height:normal;font-family:sans-serif;text-indent:0;text-align:start;text-decoration:none;text-decoration-line:none;text-decoration-style:solid;text-decoration-color:#000000;letter-spacing:normal;word-spacing:normal;text-transform:none;direction:ltr;block-progression:tb;writing-mode:lr-tb;baseline-shift:baseline;text-anchor:start;white-space:normal;clip-rule:nonzero;display:inline;overflow:visible;visibility:visible;opacity:1;isolation:auto;mix-blend-mode:normal;color-interpolation:sRGB;color-interpolation-filters:linearRGB;solid-color:#000000;solid-opacity:1;fill:#00ff00;fill-opacity:0.49289102;fill-rule:nonzero;stroke:#ffffff;stroke-width:10;stroke-linecap:butt;stroke-linejoin:miter;stroke-miterlimit:4;stroke-dasharray:none;stroke-dashoffset:0;stroke-opacity:1;color-rendering:auto;image-rendering:auto;shape-rendering:auto;text-rendering:auto;enable-background:accumulate"
         d="m 869.293,382.44918 l 0,563.913 l -837.293,0 l 0,-563.913 z"
         id="path5047" />
    </clipPath>
    <clipPath
       clipPathUnits="userSpaceOnUse"
       id="clipPath5090">
      <path
         id="path5092"
         d="m 869.293,382.44918 l 0,563.913 l -837.293,0 l 0,-563.913 z"
         style="color:#000000;font-style:normal;font-variant:normal;font-weight:normal;font-stretch:normal;font-size:medium;line-height:normal;font-family:sans-serif;text-indent:0;text-align:start;text-decoration:none;text-decoration-line:none;text-decoration-style:solid;text-decoration-color:#000000;letter-spacing:normal;word-spacing:normal;text-transform:none;direction:ltr;block-progression:tb;writing-mode:lr-tb;baseline-shift:baseline;text-anchor:start;white-space:normal;clip-rule:nonzero;display:inline;overflow:visible;visibility:visible;opacity:1;isolation:auto;mix-blend-mode:normal;color-interpolation:sRGB;color-interpolation-filters:linearRGB;solid-color:#000000;solid-opacity:1;fill:#00ff00;fill-opacity:0.49289102;fill-rule:nonzero;stroke:#ffffff;stroke-width:8;stroke-linecap:butt;stroke-linejoin:miter;stroke-miterlimit:4;stroke-dasharray:none;stroke-dashoffset:0;stroke-opacity:1;color-rendering:auto;image-rendering:auto;shape-rendering:auto;text-rendering:auto;enable-background:accumulate"
         inkscape:connector-curvature="0"
         sodipodi:nodetypes="ccccc" />
    </clipPath>
    <clipPath
       clipPathUnits="userSpaceOnUse"
       id="clipPath4207">
      <path
         id="path4209"
         d="m 863.59647,171.84181 l 88.21544,556.9703 L 124.82737,859.79359 L 36.611941,302.8233 Z"
         style="color:#000000;font-style:normal;font-variant:normal;font-weight:normal;font-stretch:normal;font-size:medium;line-height:normal;font-family:sans-serif;text-indent:0;text-align:start;text-decoration:none;text-decoration-line:none;text-decoration-style:solid;text-decoration-color:#000000;letter-spacing:normal;word-spacing:normal;text-transform:none;direction:ltr;block-progression:tb;writing-mode:lr-tb;baseline-shift:baseline;text-anchor:start;white-space:normal;clip-rule:nonzero;display:inline;overflow:visible;visibility:visible;opacity:1;isolation:auto;mix-blend-mode:normal;color-interpolation:sRGB;color-interpolation-filters:linearRGB;solid-color:#000000;solid-opacity:1;fill:#008080;fill-opacity:0.49289102;fill-rule:nonzero;stroke:#ffffff;stroke-width:8;stroke-linecap:butt;stroke-linejoin:miter;stroke-miterlimit:4;stroke-dasharray:none;stroke-dashoffset:0;stroke-opacity:1;color-rendering:auto;image-rendering:auto;shape-rendering:auto;text-rendering:auto;enable-background:accumulate"
         inkscape:connector-curvature="0"
         sodipodi:nodetypes="ccccc" />
    </clipPath>
  </defs>
  <sodipodi:namedview
     id="base"
     pagecolor="#808080"
     bordercolor="#666666"
     borderopacity="1.0"
     inkscape:pageopacity="0"
     inkscape:pageshadow="2"
     inkscape:zoom="0.31884766"
     inkscape:cx="-14.534541"
     inkscape:cy="616.12957"
     inkscape:document-units="px"
     inkscape:current-layer="g4650"
     showgrid="false"
     inkscape:window-width="1440"
     inkscape:window-height="855"
     inkscape:window-x="-1"
     inkscape:window-y="0"
     inkscape:window-maximized="0"
     showguides="true"
     inkscape:guide-bbox="true"
     inkscape:snap-center="true"
     inkscape:object-nodes="true"
     inkscape:object-paths="true"
     inkscape:snap-intersection-paths="true"
     inkscape:snap-global="false"
     inkscape:snap-page="false"
     inkscape:snap-bbox="false"
     inkscape:snap-bbox-midpoints="true"
     inkscape:snap-midpoints="true"
     inkscape:snap-smooth-nodes="true" />
  <metadata
     id="metadata7">
    <rdf:RDF>
      <cc:Work
         rdf:about="">
        <dc:format>image/svg+xml</dc:format>
        <dc:type
           rdf:resource="http://purl.org/dc/dcmitype/StillImage" />
        <dc:title />
      </cc:Work>
    </rdf:RDF>
  </metadata>
  <g
     inkscape:groupmode="layer"
     id="layer2"
     inkscape:label="Scratchpad"
     style="display:none"
     transform="translate(0,-24)">
    <path
       id="path4969"
       style="opacity:1;fill:none;fill-opacity:0.50196078;fill-rule:nonzero;stroke:#ffffff;stroke-width:8;stroke-linecap:round;stroke-linejoin:round;stroke-miterlimit:4;stroke-dasharray:none;stroke-opacity:1"
       d="m 725.47075,289.24468 a 50.5,50.5 0 0 1 -50.5,50.5 a 50.5,50.5 0 0 1 -50.5,-50.5 a 50.5,50.5 0 0 1 50.5,-50.5 a 50.5,50.5 0 0 1 50.5,50.5 z m 124.9079,-34.08328 l -14.6328,-37.8176 l -59.8403,-2.8679 l -19.68,-20.5139 l 1.4097,-63.1144 l -37.4412,-14.3298 l -40.1416,45.7448 l -29.1469,3.7004 l -48.7182,-39.4807 l -33.53298,20.6279 l 10.5533,60.706 l -15.5998,23.2849 l -61.862,12.5686 l -5.0428,39.1252 l 54.6292,30.1671 l 7.5955,24.6696 l -26.0178,60.3083 l 25.9956,27.4997 l 57.69858,-24.8688 l 26.2525,10.3912 l 26.017,57.2679 l 39.8159,-3.2679 l 16.9464,-60.9797 l 24.1346,-13.9316 l 61.2062,15.1165 l 22.2804,-32.8126 l -37.0582,-50.9262 l 4.2009,-26.6296 z M 466.49259,566.82193 a 101,101 0 0 1 -101,101 a 101,101 0 0 1 -101,-101 a 101,101 0 0 1 101,-100.99998 a 101,101 0 0 1 101,100.99998 z M 290.89986,364.1175 l -54.70514,-33.4331 l -31.72364,20.4548 l 7.63364,59.8232 l -19.84742,26.4717 l -63.15655,0.5279 l -15.22639,33.5983 l 40.22102,49.61983 l -4.7631,30.6545 l -52.660549,34.412 l 5.960499,37.7754 l 60.32654,18.76 l 12.68527,27.7967 l -25.23849,57.4883 l 25.35247,28.7915 l 59.71526,-16.3965 l 26.43227,16.6235 l 9.26625,60.5864 l 36.90651,12.4623 l 41.82724,-47.6323 l 31,0.044 l 44.38641,46.852 l 33.85291,-10.3409 l 11.1353,-62.6801 l 25.1364,-15.9139 l 60.5659,16.7345 l 24.066,-28.3651 l -24.6429,-58.2463 l 12.435,-27.8548 l 60.32498,-18.695 l 5.2142,-35.6319 l -51.26228,-36.0821 l -5.5868,-31.1525 l 39.64638,-46.84903 l -14.4743,-36.3578 l -63.14948,-0.5279 l -19.5177,-22.7052 l 7.2651,-63.5987 l -31.8699,-19.6682 l -52.5963,32.2759 l -30.76084,-8.3777 L 384.7316,298.963 l -38.25248,-0.5429 l -27.37501,56.6907 z"
       inkscape:connector-curvature="0" />
  </g>
  <g
     style="display:none"
     transform="translate(0,-52.36218)"
     id="g4340"
     inkscape:groupmode="layer"
     inkscape:label="Logo Unrotated">
    <g
       id="g5094">
      <path
         style="opacity:1;fill:#0080ff;fill-opacity:1;fill-rule:nonzero;stroke:none;stroke-width:6;stroke-linecap:butt;stroke-linejoin:round;stroke-miterlimit:4;stroke-dasharray:none;stroke-opacity:1"
         inkscape:transform-center-x="-413.83215"
         inkscape:transform-center-y="-421.86944"
         d="m 0,350.44918 l 901.293,0 l 0,701.91302 l -901.2929975177305,0 z"
         id="path5059"
         inkscape:connector-curvature="0"
         sodipodi:nodetypes="ccccc" />
      <path
         style="color:#000000;font-style:normal;font-variant:normal;font-weight:normal;font-stretch:normal;font-size:medium;line-height:normal;font-family:sans-serif;text-indent:0;text-align:start;text-decoration:none;text-decoration-line:none;text-decoration-style:solid;text-decoration-color:#000000;letter-spacing:normal;word-spacing:normal;text-transform:none;direction:ltr;block-progression:tb;writing-mode:lr-tb;baseline-shift:baseline;text-anchor:start;white-space:normal;clip-rule:nonzero;display:inline;overflow:visible;visibility:visible;opacity:1;isolation:auto;mix-blend-mode:normal;color-interpolation:sRGB;color-interpolation-filters:linearRGB;solid-color:#000000;solid-opacity:1;fill:none;fill-opacity:0.49289102;fill-rule:nonzero;stroke:#ffffff;stroke-width:8;stroke-linecap:butt;stroke-linejoin:miter;stroke-miterlimit:4;stroke-dasharray:none;stroke-dashoffset:0;stroke-opacity:1;color-rendering:auto;image-rendering:auto;shape-rendering:auto;text-rendering:auto;enable-background:accumulate"
         d="m 869.293,946.36217 l 0,74.00003 l -837.293,0 l 0,-74.00001"
         id="path5061"
         inkscape:connector-curvature="0"
         sodipodi:nodetypes="cccc" />
      <path
         id="path5063"
         d="m 869.293,382.44918 l 0,563.913 l -837.293,0 l 0,-563.913 z"
         style="color:#000000;font-style:normal;font-variant:normal;font-weight:normal;font-stretch:normal;font-size:medium;line-height:normal;font-family:sans-serif;text-indent:0;text-align:start;text-decoration:none;text-decoration-line:none;text-decoration-style:solid;text-decoration-color:#000000;letter-spacing:normal;word-spacing:normal;text-transform:none;direction:ltr;block-progression:tb;writing-mode:lr-tb;baseline-shift:baseline;text-anchor:start;white-space:normal;clip-rule:nonzero;display:inline;overflow:visible;visibility:visible;opacity:1;isolation:auto;mix-blend-mode:normal;color-interpolation:sRGB;color-interpolation-filters:linearRGB;solid-color:#000000;solid-opacity:1;fill:none;fill-opacity:0.49289102;fill-rule:nonzero;stroke:#ffffff;stroke-width:8;stroke-linecap:butt;stroke-linejoin:miter;stroke-miterlimit:4;stroke-dasharray:none;stroke-dashoffset:0;stroke-opacity:1;color-rendering:auto;image-rendering:auto;shape-rendering:auto;text-rendering:auto;enable-background:accumulate"
         inkscape:connector-curvature="0"
         sodipodi:nodetypes="ccccc" />
      <text
         transform="scale(0.98661138,1.0135703)"
         sodipodi:linespacing="89.999998%"
         id="text5065"
         y="992.38849"
         x="242.59389"
         style="font-style:normal;font-variant:normal;font-weight:normal;font-stretch:normal;font-size:391.91210938px;line-height:89.99999762%;font-family:'Courier New';-inkscape-font-specification:'Courier New';text-align:start;writing-mode:lr-tb;text-anchor:start;opacity:1;fill:none;fill-opacity:1;fill-rule:nonzero;stroke:#ffffff;stroke-width:8;stroke-linecap:butt;stroke-linejoin:miter;stroke-miterlimit:4;stroke-dasharray:none;stroke-opacity:1"
         xml:space="preserve"><tspan
           style="font-style:normal;font-variant:normal;font-weight:bold;font-stretch:normal;font-size:73.48352051px;font-family:'Courier New';-inkscape-font-specification:'Courier New Bold';fill:#ffffff;fill-opacity:1;stroke:none"
           y="992.38849"
           x="242.59389"
           id="tspan5067"
           sodipodi:role="line">Bracing Effect</tspan></text>
      <path
         id="path5069"
         style="display:inline;opacity:1;fill:none;fill-opacity:0.50196078;fill-rule:nonzero;stroke:#ffffff;stroke-width:7.99999952;stroke-linecap:round;stroke-linejoin:round;stroke-miterlimit:4;stroke-dasharray:none;stroke-opacity:1"
         d="m 277.44725,558.50546 l -51.28848,-31.34423 l -29.74231,19.17681 l 7.15688,56.08549 l -18.60782,24.81775 l -59.21204,0.49492 l -14.27541,31.4991 l 37.70897,46.51961 l -4.46561,28.73922 l -49.371577,32.26196 l 5.588227,35.41522 l 56.55877,17.58787 l 11.893,26.05998 l -23.66219,53.89647 l 23.76905,26.99262 l 55.98568,-15.37204 l 24.78142,15.58487 l 8.6875,56.801 l 34.60149,11.68362 l 39.21486,-44.65622 l 29.06386,0.0413 l 41.6142,43.92466 l 31.73859,-9.69485 l 10.43983,-58.76379 l 23.56647,-14.91961 l 56.7832,15.68895 l 22.56292,-26.59289 l -23.10379,-54.60711 l 11.65835,-26.11445 l 56.55731,-17.52694 l 4.88855,-33.40565 l -48.06064,-33.8277 l -5.23787,-29.20612 l 37.17022,-43.92191 l -13.57029,-34.0862 l -59.2054,-0.49491 l -18.29871,-21.2866 l 6.81136,-59.62509 l -29.87943,-18.43934 l -49.31134,30.25933 l -28.83964,-7.85427 l -24.69682,-52.8745 l -35.86336,-0.50898 l -25.66527,53.1487 z m 164.62587,190.03957 a 94.691928,94.689578 0 0 1 -94.69193,94.68959 a 94.691928,94.689578 0 0 1 -94.69192,-94.68959 a 94.691928,94.689578 0 0 1 94.69192,-94.68956 a 94.691928,94.689578 0 0 1 94.69193,94.68956 z M 805.94319,453.38684 l -13.7189,-35.45478 l -56.10289,-2.68871 l -18.45087,-19.23221 l 1.32166,-59.17104 l -35.10277,-13.43449 l -37.63451,42.88669 l -27.3265,3.4692 l -45.67544,-37.01396 l -31.43864,19.33909 l 9.89418,56.91311 l -14.62549,21.83008 l -57.99835,11.78331 l -4.72784,36.68069 l 51.21727,28.28228 l 7.12112,23.12825 l -24.39284,56.54027 l 24.37202,25.78154 l 54.09495,-23.31501 l 24.61286,9.74195 l 24.39208,53.68986 l 37.32916,-3.06374 l 15.88799,-57.16971 l 22.62724,-13.06116 l 57.3835,14.17203 l 20.88886,-30.7625 l -34.7437,-47.74436 l 3.93854,-24.96581 z m -117.10664,31.95379 a 47.345964,47.34479 0 0 1 -47.34595,47.34478 a 47.345964,47.34479 0 0 1 -47.34597,-47.34478 a 47.345964,47.34479 0 0 1 47.34597,-47.34479 a 47.345964,47.34479 0 0 1 47.34595,47.34479 z"
         inkscape:connector-curvature="0"
         clip-path="url(#clipPath5090)" />
    </g>
  </g>
  <g
     inkscape:label="Logo"
     inkscape:groupmode="layer"
     id="g4650"
     transform="translate(0,-52.36218)"
     style="display:inline">
    <g
       style="display:inline"
       id="g5102"
       transform="matrix(0.98768834,-0.15643447,0.15643447,0.98768834,-54.822321,-69.911395)">
      <path
         sodipodi:nodetypes="ccccc"
         inkscape:connector-curvature="0"
         id="path5104"
         d="m 0,350.44918 l 901.293,0 l 0,701.91302 l -901.2929975177305,0 z"
         inkscape:transform-center-y="-421.86944"
         inkscape:transform-center-x="-413.83215"
         style="opacity:1;fill:#0080ff;fill-opacity:1;fill-rule:nonzero;stroke:none;stroke-width:6;stroke-linecap:butt;stroke-linejoin:round;stroke-miterlimit:4;stroke-dasharray:none;stroke-opacity:1" />
      <path
         sodipodi:nodetypes="cccc"
         inkscape:connector-curvature="0"
         id="path5106"
         d="m 869.293,946.36217 l 0,74.00003 l -837.293,0 l 0,-74.00001"
         style="color:#000000;font-style:normal;font-variant:normal;font-weight:normal;font-stretch:normal;font-size:medium;line-height:normal;font-family:sans-serif;text-indent:0;text-align:start;text-decoration:none;text-decoration-line:none;text-decoration-style:solid;text-decoration-color:#000000;letter-spacing:normal;word-spacing:normal;text-transform:none;direction:ltr;block-progression:tb;writing-mode:lr-tb;baseline-shift:baseline;text-anchor:start;white-space:normal;clip-rule:nonzero;display:inline;overflow:visible;visibility:visible;opacity:1;isolation:auto;mix-blend-mode:normal;color-interpolation:sRGB;color-interpolation-filters:linearRGB;solid-color:#000000;solid-opacity:1;fill:none;fill-opacity:0.49289102;fill-rule:nonzero;stroke:#ffffff;stroke-width:8;stroke-linecap:butt;stroke-linejoin:miter;stroke-miterlimit:4;stroke-dasharray:none;stroke-dashoffset:0;stroke-opacity:1;color-rendering:auto;image-rendering:auto;shape-rendering:auto;text-rendering:auto;enable-background:accumulate" />
      <path
         sodipodi:nodetypes="ccccc"
         inkscape:connector-curvature="0"
         style="color:#000000;font-style:normal;font-variant:normal;font-weight:normal;font-stretch:normal;font-size:medium;line-height:normal;font-family:sans-serif;text-indent:0;text-align:start;text-decoration:none;text-decoration-line:none;text-decoration-style:solid;text-decoration-color:#000000;letter-spacing:normal;word-spacing:normal;text-transform:none;direction:ltr;block-progression:tb;writing-mode:lr-tb;baseline-shift:baseline;text-anchor:start;white-space:normal;clip-rule:nonzero;display:inline;overflow:visible;visibility:visible;opacity:1;isolation:auto;mix-blend-mode:normal;color-interpolation:sRGB;color-interpolation-filters:linearRGB;solid-color:#000000;solid-opacity:1;fill:none;fill-opacity:0.49289102;fill-rule:nonzero;stroke:#ffffff;stroke-width:8;stroke-linecap:butt;stroke-linejoin:miter;stroke-miterlimit:4;stroke-dasharray:none;stroke-dashoffset:0;stroke-opacity:1;color-rendering:auto;image-rendering:auto;shape-rendering:auto;text-rendering:auto;enable-background:accumulate"
         d="m 869.293,382.44918 l 0,563.913 l -837.293,0 l 0,-563.913 z"
         id="path5108" />
      <text
         xml:space="preserve"
         style="font-style:normal;font-variant:normal;font-weight:normal;font-stretch:normal;font-size:391.91210938px;line-height:89.99999762%;font-family:'Courier New';-inkscape-font-specification:'Courier New';text-align:start;writing-mode:lr-tb;text-anchor:start;opacity:1;fill:none;fill-opacity:1;fill-rule:nonzero;stroke:#ffffff;stroke-width:8;stroke-linecap:butt;stroke-linejoin:miter;stroke-miterlimit:4;stroke-dasharray:none;stroke-opacity:1"
         x="242.59389"
         y="992.38849"
         id="text5110"
         sodipodi:linespacing="89.999998%"
         transform="scale(0.98661138,1.0135703)"><tspan
           sodipodi:role="line"
           id="tspan5112"
           x="242.59389"
           y="992.38849"
           style="font-style:normal;font-variant:normal;font-weight:bold;font-stretch:normal;font-size:73.48352051px;font-family:'Courier New';-inkscape-font-specification:'Courier New Bold';fill:#ffffff;fill-opacity:1;stroke:none">Bracing Effect</tspan></text>
      <path
         clip-path="url(#clipPath5090)"
         inkscape:connector-curvature="0"
         d="m 277.44725,558.50546 l -51.28848,-31.34423 l -29.74231,19.17681 l 7.15688,56.08549 l -18.60782,24.81775 l -59.21204,0.49492 l -14.27541,31.4991 l 37.70897,46.51961 l -4.46561,28.73922 l -49.371577,32.26196 l 5.588227,35.41522 l 56.55877,17.58787 l 11.893,26.05998 l -23.66219,53.89647 l 23.76905,26.99262 l 55.98568,-15.37204 l 24.78142,15.58487 l 8.6875,56.801 l 34.60149,11.68362 l 39.21486,-44.65622 l 29.06386,0.0413 l 41.6142,43.92466 l 31.73859,-9.69485 l 10.43983,-58.76379 l 23.56647,-14.91961 l 56.7832,15.68895 l 22.56292,-26.59289 l -23.10379,-54.60711 l 11.65835,-26.11445 l 56.55731,-17.52694 l 4.88855,-33.40565 l -48.06064,-33.8277 l -5.23787,-29.20612 l 37.17022,-43.92191 l -13.57029,-34.0862 l -59.2054,-0.49491 l -18.29871,-21.2866 l 6.81136,-59.62509 l -29.87943,-18.43934 l -49.31134,30.25933 l -28.83964,-7.85427 l -24.69682,-52.8745 l -35.86336,-0.50898 l -25.66527,53.1487 z m 164.62587,190.03957 a 94.691928,94.689578 0 0 1 -94.69193,94.68959 a 94.691928,94.689578 0 0 1 -94.69192,-94.68959 a 94.691928,94.689578 0 0 1 94.69192,-94.68956 a 94.691928,94.689578 0 0 1 94.69193,94.68956 z M 805.94319,453.38684 l -13.7189,-35.45478 l -56.10289,-2.68871 l -18.45087,-19.23221 l 1.32166,-59.17104 l -35.10277,-13.43449 l -37.63451,42.88669 l -27.3265,3.4692 l -45.67544,-37.01396 l -31.43864,19.33909 l 9.89418,56.91311 l -14.62549,21.83008 l -57.99835,11.78331 l -4.72784,36.68069 l 51.21727,28.28228 l 7.12112,23.12825 l -24.39284,56.54027 l 24.37202,25.78154 l 54.09495,-23.31501 l 24.61286,9.74195 l 24.39208,53.68986 l 37.32916,-3.06374 l 15.88799,-57.16971 l 22.62724,-13.06116 l 57.3835,14.17203 l 20.88886,-30.7625 l -34.7437,-47.74436 l 3.93854,-24.96581 z m -117.10664,31.95379 a 47.345964,47.34479 0 0 1 -47.34595,47.34478 a 47.345964,47.34479 0 0 1 -47.34597,-47.34478 a 47.345964,47.34479 0 0 1 47.34597,-47.34479 a 47.345964,47.34479 0 0 1 47.34595,47.34479 z"
         style="display:inline;opacity:1;fill:none;fill-opacity:0.50196078;fill-rule:nonzero;stroke:#ffffff;stroke-width:7.99999952;stroke-linecap:round;stroke-linejoin:round;stroke-miterlimit:4;stroke-dasharray:none;stroke-opacity:1"
         id="path5114" />
    </g>
  </g>
</svg>
