<?xml version="1.0" encoding="UTF-8" standalone="no"?>
<!-- Created with Inkscape (http://www.inkscape.org/) -->

<svg
   xmlns:dc="http://purl.org/dc/elements/1.1/"
   xmlns:cc="http://creativecommons.org/ns#"
   xmlns:rdf="http://www.w3.org/1999/02/22-rdf-syntax-ns#"
   xmlns:svg="http://www.w3.org/2000/svg"
   xmlns="http://www.w3.org/2000/svg"
   xmlns:sodipodi="http://sodipodi.sourceforge.net/DTD/sodipodi-0.dtd"
   xmlns:inkscape="http://www.inkscape.org/namespaces/inkscape"
   width="400"
   height="400"
   viewBox="0 0 400 400"
   id="svg2"
   version="1.1"
   inkscape:version="0.91 r13725"
   sodipodi:docname="GitHub Logo.svg"
   inkscape:export-filename="/Users/ratface/Sites/bracingeffect.github.io/images/github-logo.png"
   inkscape:export-xdpi="9"
   inkscape:export-ydpi="9">
  <defs
     id="defs4" />
  <sodipodi:namedview
     id="base"
     pagecolor="#808080"
     bordercolor="#666666"
     borderopacity="1.0"
     inkscape:pageopacity="0"
     inkscape:pageshadow="2"
     inkscape:zoom="0.70710678"
     inkscape:cx="261.4404"
     inkscape:cy="46.465252"
     inkscape:document-units="px"
     inkscape:current-layer="layer1"
     showgrid="false"
     showguides="true"
     inkscape:guide-bbox="true"
     units="px"
     inkscape:window-width="1440"
     inkscape:window-height="851"
     inkscape:window-x="0"
     inkscape:window-y="1"
     inkscape:window-maximized="1"
     inkscape:snap-bbox="true"
     inkscape:bbox-paths="true"
     inkscape:bbox-nodes="true"
     inkscape:snap-bbox-edge-midpoints="true"
     inkscape:snap-bbox-midpoints="true"
     inkscape:object-paths="true"
     inkscape:snap-intersection-paths="true"
     inkscape:object-nodes="true"
     inkscape:snap-smooth-nodes="true"
     inkscape:snap-midpoints="true" />
  <metadata
     id="metadata7">
    <rdf:RDF>
      <cc:Work
         rdf:about="">
        <dc:format>image/svg+xml</dc:format>
        <dc:type
           rdf:resource="http://purl.org/dc/dcmitype/StillImage" />
        <dc:title />
      </cc:Work>
    </rdf:RDF>
  </metadata>
  <g
     inkscape:groupmode="layer"
     id="layer1"
     inkscape:label="Logo">
    <path
       style="display:inline;fill:#0080ff;fill-opacity:1"
       inkscape:connector-curvature="0"
       id="XMLID_1_"
       display="inline"
       d="m -53.533681,210.94609 c 22.997826,-5.74283 54.26733378,-13.56454 109.051834,-15.01934 c -1.51384,-3.02769 -2.88109,-6.16228 -4.09155,-9.3946 c -21.318039,-0.18528 -86.9723,2.84241 -109.462116,8.39894 c -0.127261,0.0397 -0.263677,0.0489 -0.400096,0.0489 c -0.752341,0 -1.445635,-0.51717 -1.63092,-1.27868 c -0.214811,-0.88875 0.331885,-1.80602 1.229807,-2.03102 c 22.285188,-5.50766 86.356376,-8.56489 109.051835,-8.50583 c -5.10757,-15.01934 -7.36358,-32.22648 -7.36358,-51.43511 c 0,-34.121075 10.62543,-46.992322 24.90159,-65.175769 c -10.9176,-38.88661 3.91645,-65.4679806 3.91645,-65.4679806 c 0,0 22.93979,-4.755338 66.307847,26.2983536 c 23.50583,-10.068552 86.17517,-10.90743 115.82394,-2.235646 C 272.00414,13.116954 305.28533,-3.9527536 318.72262,0.82192342 c 3.63241,5.85889398 11.46531,22.91943158 4.74617,60.41941858 c 4.57003,8.222815 28.26217,25.742492 28.35888,75.262648 c -0.39093,18.26183 -2.28553,33.68128 -5.80087,46.72763 c 56.54268,-0.47847 89.80453,4.18928 112.71378,8.40811 c 0.89895,0.18528 1.50469,1.05469 1.3479,1.9628 c -0.15575,0.8012 -0.85924,1.37743 -1.64008,1.37743 c -0.11705,0 -0.21481,-0.0104 -0.33189,-0.0192 c -22.87158,-4.23816 -56.19044,-8.8866 -113.06601,-8.36943 c -0.99669,3.31073 -2.10942,6.45549 -3.3209,9.45365 c 19.35625,0.64443 72.51899,2.71515 115.87788,15.97631 c 0.89896,0.27386 1.38659,1.21047 1.11376,2.10941 c -0.2148,0.71265 -0.87859,1.18094 -1.6014,1.18094 c -0.15577,0 -0.33188,-0.0192 -0.48765,-0.0774 C 412.66756,201.79685 358.35136,199.95111 340.286,199.35454 c -15.72281,34.54154 -47.96864,47.43111 -100.09704,52.79218 c 16.89459,10.63458 21.73849,23.97312 21.73849,60.0682 c 0,36.09304 -0.48765,40.93694 -0.37057,49.23611 c 0.17612,13.62461 20.13608,20.14626 19.39493,24.53101 c -0.74216,4.37662 -16.69912,3.67213 -24.15941,1.06591 c -21.13276,-7.36257 -19.02437,-24.94232 -19.02437,-24.94232 l -0.70246,-48.2598 c 0,0 1.44564,-25.97665 -8.14443,-25.97665 c 0,5.22363 0,60.31152 0,78.9928 c 0,17.16743 12.01203,22.38292 12.01203,28.73048 c 0,10.90844 -21.9523,-1.03434 -28.71116,-7.84206 c -10.31694,-10.35157 -9.14415,-32.30284 -8.89065,-49.66574 c 0.23415,-16.76836 -0.15577,-53.43762 -0.15577,-53.43762 l -7.00114,0.14761 c 0,0 2.87091,80.10656 -3.69146,94.70442 c -8.4855,18.74033 -34.08138,25.18663 -34.08138,16.65027 c 0,-5.74284 6.30785,-3.91544 9.79468,-16.78567 c 2.97781,-10.94814 1.96281,-92.6174 1.96281,-92.6174 c 0,0 -8.20245,4.85408 -8.20245,20.14626 c 0,7.00114 -0.19547,46.9913 -0.19547,58.89642 c 0,14.97046 -21.26001,23.49463 -31.47515,23.49463 c -5.1758,0 -11.61091,-0.25248 -11.61091,-2.99612 c 0,-6.92379 19.4438,-10.98786 19.4438,-25.39128 c 0,-12.48946 -0.27386,-44.6172 -0.27386,-44.6172 c 0,0 -9.80486,1.67775 -23.78884,1.67775 c -35.253137,0 -46.405917,-22.49898 -51.708957,-35.08721 c -6.90444,-16.39576 -15.85924,-24.10039 -25.370912,-30.25349 c -5.839553,-3.77901 -7.187456,-8.24216 -0.429618,-9.51167 c 31.21046,-5.87824 39.18895,35.39059 60.0285,41.96211 c 14.872737,4.69832 33.993817,2.66629 43.505487,-3.4858 c 1.26034,-12.6086 10.3424,-23.50584 17.91061,-29.24766 C 104.98435,247.24478 73.558063,228.83736 57.269213,199.24662 c -55.4492982,1.32856 -86.913253,9.19913 -109.97929,14.96028 c -1.679787,0.42046 -3.319871,0.82973 -4.901926,1.23083 c -0.136419,0.0285 -0.273857,0.0388 -0.410276,0.0388 c -0.752342,0 -1.435455,-0.50801 -1.630921,-1.26952 c -0.22499,-0.89792 0.331886,-1.8162 1.230827,-2.04119 c 1.588163,-0.39093 3.219084,-0.79001 4.888692,-1.21963 z" />
  </g>
  <g
     inkscape:label="Encircled"
     inkscape:groupmode="layer"
     id="g4139"
     transform="translate(0,-652.36221)"
     style="display:none">
    <path
       d="m 200,652.36221 c -110.5,0 -200,89.5 -200,200 c 0,88.5 57.25,163.24999 136.75,189.74999 c 10,1.75 13.75,-4.25 13.75,-9.5 c 0,-4.75 -0.25,-20.5 -0.25,-37.24999 C 100,1004.6122 87,983.11221 83,971.86221 c -2.25,-5.75 -12,-23.5 -20.5,-28.25 c -7,-3.75 -17,-13 -0.25,-13.25 c 15.75,-0.25 27,14.5 30.75,20.5 c 18,30.25 46.75,21.75 58.25,16.5 c 1.75,-13 7,-21.75 12.75,-26.75 c -44.5,-5 -91,-22.25 -91,-98.75 c 0,-21.75 7.75,-39.75 20.5,-53.75 c -2,-5 -9,-25.5 2,-53 c 0,0 16.75,-5.25 55,20.5 c 16,-4.5 33,-6.75 50,-6.75 c 17,0 34,2.25 50,6.75 c 38.25,-26 55,-20.5 55,-20.5 c 11,27.5 4,48 2,53 c 12.75,14 20.5,31.75 20.5,53.75 c 0,76.75 -46.75,93.75 -91.25,98.75 c 7.25,6.25 13.5,18.25 13.5,37 c 0,26.74999 -0.25,48.24999 -0.25,54.99999 c 0,5.25 3.75,11.5 13.75,9.5 A 200.325,200.325 0 0 0 400,852.36221 c 0,-110.5 -89.5,-200 -200,-200 z"
       id="path16"
       inkscape:connector-curvature="0"
       style="fill:#0080ff;fill-opacity:1" />
  </g>
</svg>
