<?xml version="1.0" encoding="UTF-8" standalone="no"?>
<!-- Created with Inkscape (http://www.inkscape.org/) -->

<svg
   xmlns:dc="http://purl.org/dc/elements/1.1/"
   xmlns:cc="http://creativecommons.org/ns#"
   xmlns:rdf="http://www.w3.org/1999/02/22-rdf-syntax-ns#"
   xmlns:svg="http://www.w3.org/2000/svg"
   xmlns="http://www.w3.org/2000/svg"
   xmlns:sodipodi="http://sodipodi.sourceforge.net/DTD/sodipodi-0.dtd"
   xmlns:inkscape="http://www.inkscape.org/namespaces/inkscape"
   width="100"
   height="166"
   id="svg2"
   version="1.1"
   inkscape:version="0.91 r13725"
   sodipodi:docname="Parsnip Logo Dark.svg">
  <defs
     id="defs4" />
  <sodipodi:namedview
     id="base"
     pagecolor="#ffffff"
     bordercolor="#666666"
     borderopacity="1.0"
     inkscape:pageopacity="0.0"
     inkscape:pageshadow="2"
     inkscape:zoom="4.0270103"
     inkscape:cx="50.000044"
     inkscape:cy="81.077519"
     inkscape:document-units="px"
     inkscape:current-layer="layer1"
     showgrid="false"
     inkscape:window-width="1440"
     inkscape:window-height="855"
     inkscape:window-x="0"
     inkscape:window-y="0"
     inkscape:window-maximized="0"
     showguides="true"
     inkscape:guide-bbox="true" />
  <metadata
     id="metadata7">
    <rdf:RDF>
      <cc:Work
         rdf:about="">
        <dc:format>image/svg+xml</dc:format>
        <dc:type
           rdf:resource="http://purl.org/dc/dcmitype/StillImage" />
        <dc:title />
      </cc:Work>
    </rdf:RDF>
  </metadata>
  <g
     inkscape:label="Layer 1"
     inkscape:groupmode="layer"
     id="layer1"
     transform="translate(0,-886.36218)">
    <path
       transform="matrix(0.20951132,-0.1953283,0.1953283,0.20951132,-336.42257,684.4138)"
       inkscape:connector-curvature="0"
       style="fill:#309000;fill-opacity:1;stroke:none"
       d="m 387.34375,1408.7188 c 0,0 -7.07588,3.6911 -9.0625,10.2812 c -1.7647,5.8539 0.93555,11.757 1.59375,13.0625 c -3.99666,0.9776 -7.95033,1.6248 -11.65625,1.7813 c -38.7926,1.6371 -95.65785,-5.8617 -113.34375,22.2812 c 12.634,-7.9891 32.8751,-11.5854 53.3125,-10.6562 c 11.3334,-2.9729 52.4862,-0.8787 70.1875,-3.6563 c 3.95921,-0.6213 10.17391,-3.9442 16.78125,-8.1563 c 0.31924,2.2379 1.70985,9.5718 7.03125,13.9376 c 6.32734,5.1908 15.78125,4.1562 15.78125,4.1562 c 0,0 -0.57891,-9.7778 -6.90625,-14.9688 c -4.89081,-4.0123 -11.74177,-4.1311 -14.625,-3.9687 c 13.59861,-8.8337 28.34375,-20.9062 28.34375,-20.9063 c 0,0 -21.89662,13.9227 -42.8125,19.5938 c 2.32357,-1.5059 6.19814,-4.5678 7.5625,-9.0938 c 1.98662,-6.5898 -2.1875,-13.6874 -2.1875,-13.6874 z M 484.5,1431.25 c 0,0 -12.00441,4.9223 -15.78125,15.0938 c -3.24169,8.7298 0.61649,18.4405 1.78125,21.0312 c -17.60498,2.1071 -32.60944,3.8174 -37.3125,3.5 c -54.9796,-2.2742 -158.8779,-56.5368 -201.125,11.5312 c 16.2973,-12.6223 42.388,-15.1306 51.125,-15.4062 c 41.6814,-11.4844 102.48925,11.8505 136.34375,14.7812 c 6.75797,0.5854 15.13498,-0.5586 24.6875,-2.5937 c -0.63921,2.0748 -1.81381,7.1355 0.1875,11.6563 c 2.57756,5.8222 9.5,8.4062 9.5,8.4062 c 0,0 3.01506,-6.99 0.4375,-12.8125 c -1.85262,-4.1849 -6.0383,-6.6128 -8.28125,-7.6563 c 10.87148,-2.4043 23.19338,-5.8576 36.4375,-9.2187 c -0.24324,2.3132 -0.75451,10.7834 3.90625,17 c 5.43969,7.2555 15.84375,8.625 15.84375,8.625 c 0,0 2.00219,-10.682 -3.4375,-17.9375 c -4.19266,-5.5922 -11.52664,-7.5019 -14.6875,-8.0938 c 10.69934,-2.692 21.94748,-5.294 33.5,-7.1874 c -13.91727,1.3839 -30.16799,3.3827 -44.9375,5.1562 c 3.41223,-1.9143 10.57362,-6.6839 13.40625,-14.3125 C 489.87059,1442.6411 484.5,1431.25 484.5,1431.25 Z m -200.65625,38.9375 c -1.03729,0.022 -2.04308,0.061 -3,0.125 c -27.0103,1.7997 -58.6478,11.6992 -60.125,39.0937 c -0.5247,9.731 -1.6468,16.9662 0.3125,19.375 c 1.9592,2.4098 9.1951,4.9806 13.8125,4.9063 c 4.6174,-0.074 12.53825,-2.2463 13.84375,-4.9063 c 1.3055,-2.6594 -0.1754,-10.9575 1.375,-16.25 c 4.5485,-15.5246 21.6763,-20.8912 33.125,-22.7187 c 26.6806,-4.0601 80.8383,8.6927 124.9375,18.4375 c 31.79659,7.0262 59.65482,9.9289 90.46875,10.5312 c -0.69085,2.2838 -2.71275,10.2989 0.71875,16.875 c 4.03909,7.7413 14.125,10.4688 14.125,10.4688 c 0,0 3.13284,-9.6341 -0.90625,-17.375 c -2.91727,-5.5909 -8.7459,-8.6279 -11.78125,-9.9062 c 10.84059,0.1731 22.06167,0.055 33.96875,-0.25 c -0.17064,2.2692 -0.8824,16.4316 7.34375,25.7187 c 8.9549,10.1098 25.125,10.4063 25.125,10.4063 c 0,-5e-4 1.11115,-15.609 -7.84375,-25.7188 c -6.38222,-7.2053 -16.12453,-9.651 -21.21875,-10.4688 c 12.51688,-0.3563 25.7613,-0.9329 40.15625,-1.625 c -15.95321,-0.4067 -33.50386,-1.454 -51.375,-3 c 3.72227,-0.5881 11.79742,-2.5244 16.90625,-8.4687 c 6.81176,-7.9257 5.75,-20 5.75,-20 c 0,0 -12.50074,0.4493 -19.3125,8.375 c -6.14721,7.1524 -5.57879,17.8645 -5.40625,19.9063 c -16.27214,-1.4407 -32.76353,-3.2797 -48.53125,-5.4376 c 1.93289,-0.744 4.76758,-2.2245 6.34375,-4.875 c 2.54805,-4.2835 0.84375,-9.9997 0.84375,-10 c 0,7e-4 -5.63945,1.3723 -8.1875,5.6563 c -1.90179,3.1975 -1.54861,7.1213 -1.25,8.9063 c -27.5696,-3.8424 -52.74284,-8.6066 -70.3125,-13.8438 c -18.4046,-5.4861 -87.7502,-24.6041 -119.90625,-23.9375 z m -66.03125,45 c -18.84648,0.066 -42.02126,8.0338 -48.78125,33.875 c 11.82411,23.7655 43.84375,20.8125 43.84375,20.8125 c 0,0 -34.00205,4.4274 -44.90625,-15.6875 c -0.55518,3.4029 -0.875,7.0691 -0.875,11.0313 c 0,43.7373 10.4375,98.8747 10.4375,98.875 c 0,25.2364 3.07148,52.101 6.15625,72.9374 c 9.40582,18.6376 32.09375,22.4063 32.09375,22.4063 c 0,0 -20.65245,-1.6763 -30.5625,-12.4687 c 6.77767,40.9612 21.75,100.4374 21.75,100.4374 c 0,0 3.28552,9.806 6.90625,26.2813 c 9.32577,9.176 19.9375,9.125 19.9375,9.125 c 0,0 -11.18069,1.1151 -18.375,-1.625 c 1.32683,6.6512 2.64629,14.0947 3.8125,22.25 c 3.36584,23.5371 23.78125,70.1875 23.78125,70.1875 c 0,-61.4076 5.68614,-72.4585 11.9375,-102.2188 c 4.95176,-23.5725 6.63802,-47.7609 7.21875,-60.8124 c -6.40989,3.8407 -14.25,3.7812 -14.25,3.7812 c 0,0 7.94817,-1.9708 14.4375,-8.4688 c 0.0419,-1.2912 0.076,-2.5022 0.0937,-3.3124 c -7.68646,4.3614 -21.34375,5.4687 -21.34375,5.4687 c 0,0 14.99039,-2.6199 22.5,-12.0937 c 2.29722,-9.8599 8.21199,-36.7876 14.03125,-76.4688 c -9.58561,5.8701 -22.71875,4.125 -22.71875,4.125 c 0,0 13.28614,0.8569 23.46875,-9.4062 c 0.40409,-2.8444 0.82039,-5.6996 1.21875,-8.6563 c -18.51658,12.4241 -44.9375,7.5313 -44.9375,7.5313 c 0,0 26.59269,2.8174 45.71875,-13.2813 c 4.79934,-37.2167 5.28451,-69.318 5.3125,-79.4375 c -7.1947,2.3934 -17.625,1.3125 -17.625,1.3125 c 0,0 10.96623,-2.0557 18,-5.875 c 1.50935,-4.2093 7.375,-22.7017 7.375,-55.0313 c 0,-33.12 -27.83707,-44.6139 -38.25,-45.2812 c 7.24902,3.4428 12.5625,5.2622 12.5625,12.7188 c 0,8.1721 -15.14859,14.7812 -32.71875,14.7812 c -17.57016,0 -32.85328,-6.0878 -32.75,-14.7812 c 0.10328,-8.6946 8.25833,-11.4113 15.5,-13.0313 z m 0.6875,1.25 c 0,0 -12.36195,3.1429 -12.53125,9.7813 c -0.1692,6.638 11.8879,11.4991 23.5,11.4062 c -16.257,-4.9235 -16.6039,-9.4771 -16.625,-13.5625 c -0.0211,-4.0854 5.65625,-7.625 5.65625,-7.625 z"
       id="path3406" />
  </g>
</svg>
