<?xml version="1.0" encoding="UTF-8" standalone="no"?>
<!-- Created with Inkscape (http://www.inkscape.org/) -->

<svg
   xmlns:dc="http://purl.org/dc/elements/1.1/"
   xmlns:cc="http://creativecommons.org/ns#"
   xmlns:rdf="http://www.w3.org/1999/02/22-rdf-syntax-ns#"
   xmlns:svg="http://www.w3.org/2000/svg"
   xmlns="http://www.w3.org/2000/svg"
   xmlns:sodipodi="http://sodipodi.sourceforge.net/DTD/sodipodi-0.dtd"
   xmlns:inkscape="http://www.inkscape.org/namespaces/inkscape"
   width="100"
   height="163"
   id="svg2"
   version="1.1"
   inkscape:version="0.91 r13725"
   sodipodi:docname="Parsnip.svg"
   inkscape:export-filename="/Users/ratface/Sites/bracingeffect.github.io/images/parsnip-logo_2x.png"
   inkscape:export-xdpi="180"
   inkscape:export-ydpi="180">
  <defs
     id="defs4" />
  <sodipodi:namedview
     id="base"
     pagecolor="#808080"
     bordercolor="#666666"
     borderopacity="1.0"
     inkscape:pageopacity="0"
     inkscape:pageshadow="2"
     inkscape:zoom="2.8475263"
     inkscape:cx="24.387718"
     inkscape:cy="68.830269"
     inkscape:document-units="px"
     inkscape:current-layer="layer1"
     showgrid="false"
     inkscape:window-width="1440"
     inkscape:window-height="855"
     inkscape:window-x="0"
     inkscape:window-y="23"
     inkscape:window-maximized="0"
     showguides="true"
     inkscape:guide-bbox="true" />
  <metadata
     id="metadata7">
    <rdf:RDF>
      <cc:Work
         rdf:about="">
        <dc:format>image/svg+xml</dc:format>
        <dc:type
           rdf:resource="http://purl.org/dc/dcmitype/StillImage" />
        <dc:title />
      </cc:Work>
    </rdf:RDF>
  </metadata>
  <g
     inkscape:label="Logo"
     inkscape:groupmode="layer"
     id="layer1"
     transform="translate(0,-889.36218)"
     style="display:inline">
    <path
       inkscape:connector-curvature="0"
       style="fill:#ffffff;fill-opacity:1;stroke:none"
       d="m 19.892979,905.81962 c 0,0 -0.761501,2.15545 0.109513,3.92419 c 0.773707,1.57116 2.492483,2.28049 2.885384,2.42544 c -0.646392,0.98548 -1.348314,1.89334 -2.094178,2.65 c -7.807717,7.92028 -21.18635804,17.45659 -19.3946495,26.8074 c 1.0864687,-4.14158 4.6247491,-8.84871 9.0881145,-12.64603 c 1.793784,-2.83659 10.824818,-10.43614 13.990897,-14.47564 c 0.708142,-0.90352 1.361136,-2.81361 1.922706,-4.98669 c 0.504009,0.40651 2.227876,1.67141 4.195534,1.54668 c 2.33956,-0.14838 4.118174,-2.21175 4.118174,-2.21175 c 0,0 -2.031169,-1.93549 -4.370768,-1.78715 c -1.808396,0.11469 -3.266954,1.42799 -3.839302,2.02519 c 1.123591,-4.50696 1.854764,-9.91642 1.854744,-9.91645 c 0,0 -1.868092,7.194 -5.14248,12.46762 c 0.19267,-0.76936 0.40636,-2.16768 -0.191847,-3.38242 c -0.870955,-1.76869 -3.131842,-2.44039 -3.131842,-2.44039 z M 44.649294,891.5628 c 0,0 -1.553595,3.37608 -0.358104,6.24484 c 1.026006,2.46219 3.731113,3.74308 4.48118,4.05835 c -3.276866,3.88021 -6.0864,7.16934 -7.133742,8.02148 c -11.963064,10.2626 -44.3299554,19.18825 -39.8855943,41.70132 c 0.9489764,-5.82784 5.9253314,-11.44961 7.7019993,-13.21393 c 6.489497,-10.54767 23.787396,-17.53624 31.452746,-23.53497 c 1.530216,-1.19737 3.061839,-3.07332 4.665687,-5.36558 c 0.271346,0.55955 1.013752,1.84926 2.316089,2.40551 c 1.677268,0.71634 3.632326,-0.0944 3.632326,-0.0944 c 0,0 -0.733655,-2.05341 -2.410982,-2.76982 c -1.205575,-0.51491 -2.556759,-0.206 -3.230508,0.0135 c 1.80807,-2.62723 3.715121,-5.75755 5.833396,-9.04869 c 0.400872,0.53215 1.948225,2.40662 4.138984,2.79869 c 2.556882,0.45758 5.004152,-1.2877 5.004152,-1.2877 c 0,0 -1.667015,-2.62908 -4.223897,-3.08667 c -1.970724,-0.35268 -3.880294,0.67975 -4.658145,1.17314 c 1.715809,-2.65388 3.564177,-5.39611 5.614726,-8.04934 c -2.64551,3.00838 -5.659798,6.60138 -8.407763,9.85785 c 0.340984,-1.06757 0.909738,-3.46568 0.01313,-5.61725 c -1.195471,-2.86875 -4.545675,-4.20628 -4.545675,-4.20628 z m -34.43416,47.35169 c -0.213027,0.20722 -0.4161336,0.41185 -0.6041181,0.61217 c -5.3074313,5.65294 -10.00219318,13.90669 -4.9607622,19.93469 c 1.7908091,2.14124 2.9689558,3.87628 3.8499581,3.99824 c 0.8811767,0.12219 2.8993292,-0.75257 3.8522142,-1.67005 c 0.952943,-0.91741 2.18814,-2.9197 1.942083,-3.732 c -0.245939,-0.81217 -2.177058,-2.26146 -2.886007,-3.67313 c -2.079431,-4.14103 0.460788,-8.61094 2.502458,-11.23008 c 4.796835,-6.06211 18.634469,-13.96879 29.777186,-20.54096 c 8.034161,-4.73871 14.437755,-9.57206 21.011269,-15.4647 c 0.301349,0.61342 1.443314,2.68761 3.446751,3.39511 c 2.35833,0.83294 5.0042,-0.56568 5.0042,-0.56568 c 0,0 -1.225447,-2.63039 -3.583699,-3.46325 c -1.703262,-0.60153 -3.517638,-0.0993 -4.403266,0.22576 c 2.305038,-2.08121 4.632913,-4.29775 7.068005,-6.68744 c 0.407488,0.50875 3.024684,3.61496 6.562189,3.95392 c 3.850883,0.36897 7.296617,-2.72739 7.296617,-2.72739 c -9.8e-5,-1e-4 -2.816081,-3.4873 -6.666964,-3.85627 c -2.744546,-0.26297 -5.263385,1.12758 -6.490421,1.95129 c 2.552832,-2.51955 5.215062,-5.22737 8.09578,-8.18411 c -3.421818,3.0309 -7.303445,6.23962 -11.349629,9.40646 c 0.664985,-0.85028 1.978607,-2.83326 1.887874,-5.07656 c -0.120972,-2.99105 -2.701876,-5.31337 -2.701876,-5.31337 c 0,0 -2.531285,2.53589 -2.410312,5.52694 c 0.109156,2.69923 2.320622,4.83251 2.755593,5.22659 c -3.690607,2.87656 -7.504949,5.71251 -11.229964,8.34029 c 0.259638,-0.53343 0.564355,-1.39731 0.376862,-2.26049 c -0.302843,-1.39514 -1.776449,-2.25985 -1.776508,-2.25992 c 1.37e-4,1.5e-4 -0.913479,1.38906 -0.610538,2.78431 c 0.226116,1.04139 1.06654,1.79448 1.477763,2.11013 c -6.526672,4.5801 -12.731334,8.49899 -17.43535,10.83359 c -4.927563,2.44554 -23.190538,11.98526 -29.797388,18.40591 z m -5.0445211,22.32578 c -3.9356592,3.69508 -7.2347011,9.89111 -3.6034779,16.62555 c 7.1193596,2.66956 13.251032,-4.20347 13.251032,-4.20347 c 0,0 -6.2590177,7.56916 -12.4725802,5.48476 c 0.5483662,0.82138 1.1974729,1.65196 1.9714027,2.48209 c 8.5431325,9.16346 21.4998015,18.6766 21.4998605,18.6767 c 4.929383,5.2873 10.820309,10.3158 15.536542,14.0787 c 5.611076,2.0676 11.100588,-1.5744 11.100588,-1.5744 c 0,0 -4.654351,3.6828 -8.838679,3.3574 c 9.42088,7.2579 24.175137,16.7943 24.175137,16.7943 c 0,0 2.603743,1.4128 6.58042,4.1573 c 3.746187,0.1009 5.959502,-1.9826 5.959502,-1.9826 c 0,0 -2.12467,2.4175 -4.167179,3.2487 c 1.577154,1.1344 3.307522,2.4361 5.144817,3.917 c 5.302643,4.2738 18.692042,10.0599 18.692042,10.0599 c -11.994638,-12.8656 -12.961881,-16.2916 -17.465179,-23.7477 c -3.566927,-5.906 -7.938315,-11.3031 -10.365973,-14.151 c -0.592747,2.0567 -2.246961,3.5757 -2.246961,3.5757 c 0,0 1.280279,-1.9654 1.370624,-4.5944 c -0.24343,-0.2787 -0.472828,-0.5391 -0.627375,-0.7123 c -0.758495,2.4152 -3.403565,5.3148 -3.403565,5.3148 c 0,0 2.628916,-3.4769 2.351763,-6.9286 c -1.444624,-2.5145 -5.465155,-9.3115 -11.996815,-18.76182 c -0.861697,3.1022 -3.954106,5.30185 -3.954106,5.30185 c 0,0 2.950973,-2.41563 3.079671,-6.55481 c -0.47093,-0.67487 -0.941412,-1.35438 -1.435478,-2.05165 c -1.452655,6.2198 -7.943839,10.35545 -7.943839,10.35545 c 0,0 6.121788,-4.60402 6.984382,-11.71274 C 48.08323,978.96021 41.914587,972.13986 39.943826,970.01424 c -1.039872,1.90677 -3.436269,3.71764 -3.436269,3.71764 c 0,0 1.896013,-2.5727 2.62365,-4.74678 c -0.505969,-1.17672 -2.889138,-6.19681 -9.204024,-12.97023 c -6.469273,-6.93902 -14.546538,-3.90975 -16.858508,-2.01562 c 2.191228,-0.69463 3.659843,-1.35132 5.116328,0.21092 c 1.596242,1.71215 -0.286615,6.05578 -3.967762,9.48773 c -3.681147,3.43195 -8.0722536,5.14171 -9.7486823,3.30017 c -1.6766631,-1.84179 -0.4987362,-4.00388 0.7020438,-5.75779 z m 0.3881995,0.1276 c 0,0 -1.9760712,3.07311 -0.7148741,4.497 c 1.26114,1.42379 4.7367493,0.0871 7.1514697,-2.20049 c -4.3677244,2.14393 -5.3298508,1.25766 -6.1322658,0.40584 C 5.0607273,963.2184 5.5588124,961.36787 5.5588124,961.36787 Z"
       id="path3406" />
  </g>
  <g
     transform="translate(0,-889.36218)"
     id="g4134"
     inkscape:groupmode="layer"
     inkscape:label="Logo With Shadow"
     style="display:none">
    <g
       id="g4137"
       inkscape:export-filename="/Users/ratface/Sites/bracingeffect.github.io/images/parsnip-logo_2x.png"
       inkscape:export-xdpi="180"
       inkscape:export-ydpi="180">
      <path
         id="path4138"
         d="m 23.898287,906.1941 c 0,0 -0.723425,2.04767 0.104038,3.72798 c 0.735022,1.49259 2.367859,2.16646 2.741115,2.30416 c -0.614073,0.93621 -1.280899,1.79867 -1.989469,2.5175 C 17.33664,922.26801 4.6269304,931.3275 6.3290535,940.21078 c 1.0321453,-3.93451 4.3935115,-8.40628 8.6337095,-12.01374 c 1.704094,-2.69476 10.283577,-9.91433 13.291352,-13.75186 c 0.672734,-0.85834 1.293078,-2.67292 1.82657,-4.73735 c 0.478809,0.38618 2.116483,1.58785 3.985758,1.46935 c 2.222581,-0.14096 3.912265,-2.10117 3.912265,-2.10117 c 0,0 -1.929611,-1.83871 -4.15223,-1.69779 c -1.717976,0.10896 -3.103606,1.35659 -3.647337,1.92393 c 1.067412,-4.28161 1.762026,-9.4206 1.762007,-9.42062 c 0,0 -1.774688,6.83429 -4.885356,11.84423 c 0.183036,-0.73089 0.386042,-2.05929 -0.182254,-3.2133 c -0.827408,-1.68025 -2.975251,-2.31836 -2.975251,-2.31836 z m 23.5185,-13.54399 c 0,0 -1.475916,3.20728 -0.340199,5.93261 c 0.974706,2.33907 3.544557,3.55592 4.257121,3.85543 c -3.113023,3.6862 -5.78208,6.81086 -6.777055,7.6204 C 33.191743,919.80802 2.4431964,928.28739 6.6653394,949.6748 c 0.9015276,-5.53644 5.6290646,-10.87712 7.3168996,-12.55323 c 6.165022,-10.02029 22.598026,-16.65943 29.880108,-22.35822 c 1.453706,-1.1375 2.908748,-2.91965 4.432404,-5.0973 c 0.257778,0.53158 0.963063,1.7568 2.200284,2.28523 c 1.593405,0.68053 3.45071,-0.0897 3.45071,-0.0897 c 0,0 -0.696973,-1.95074 -2.290434,-2.63133 c -1.145295,-0.48917 -2.428921,-0.19571 -3.068982,0.0128 c 1.717667,-2.49588 3.529365,-5.46968 5.541726,-8.59627 c 0.380828,0.50555 1.850814,2.28629 3.932036,2.65876 c 2.429037,0.43471 4.753944,-1.22331 4.753944,-1.22331 c 0,0 -1.583665,-2.49763 -4.012702,-2.93234 c -1.872189,-0.33505 -3.68628,0.64576 -4.425239,1.11449 c 1.630019,-2.5212 3.385969,-5.12631 5.333991,-7.64687 c -2.513236,2.85796 -5.376809,6.2713 -7.987375,9.36495 c 0.323934,-1.01419 0.864251,-3.2924 0.01247,-5.33639 c -1.135698,-2.72531 -4.318391,-3.99597 -4.318391,-3.99597 z m -32.712452,44.98411 c -0.202376,0.19686 -0.395327,0.39126 -0.573912,0.58157 c -5.0420602,5.37028 -9.502084,13.21135 -4.7127245,18.93795 c 1.7012685,2.03418 2.8205075,3.68246 3.6574605,3.79833 c 0.837118,0.11608 2.754363,-0.71494 3.659603,-1.58655 c 0.905296,-0.87154 2.078733,-2.77371 1.844979,-3.5454 c -0.233642,-0.77156 -2.068205,-2.14838 -2.741706,-3.48948 c -1.97546,-3.93398 0.437748,-8.18039 2.377334,-10.66857 c 4.556994,-5.75901 17.702746,-13.27035 28.288327,-19.51391 c 7.632453,-4.50177 13.715868,-9.09346 19.960706,-14.69147 c 0.286282,0.58275 1.371149,2.55323 3.274413,3.22535 c 2.240414,0.7913 4.753991,-0.53739 4.753991,-0.53739 c 0,0 -1.164175,-2.49887 -3.404514,-3.29008 c -1.618099,-0.57146 -3.341756,-0.0944 -4.183103,0.21446 c 2.189785,-1.97715 4.401267,-4.08286 6.714605,-6.35306 c 0.387114,0.48331 2.873449,3.43421 6.234079,3.75622 c 3.658339,0.35052 6.931786,-2.59102 6.931786,-2.59102 c -9.3e-5,-10e-5 -2.675277,-3.31294 -6.333615,-3.66346 c -2.60732,-0.24981 -5.000216,1.07121 -6.165901,1.85373 c 2.425191,-2.39358 4.954309,-4.966 7.690992,-7.77491 c -3.250727,2.87936 -6.938273,5.92765 -10.782148,8.93614 c 0.631736,-0.80777 1.879676,-2.6916 1.79348,-4.82273 c -0.114924,-2.8415 -2.566782,-5.0477 -2.566782,-5.0477 c 0,0 -2.404721,2.40909 -2.289797,5.25059 c 0.103698,2.56427 2.204592,4.59089 2.617814,4.96526 c -3.506077,2.73274 -7.129702,5.42689 -10.668466,7.92327 c 0.246657,-0.50675 0.536137,-1.32743 0.358019,-2.14745 c -0.287701,-1.32539 -1.687627,-2.14687 -1.687682,-2.14693 c 1.3e-4,1.4e-4 -0.867806,1.31961 -0.580012,2.6451 c 0.21481,0.98931 1.013213,1.70475 1.403875,2.00462 c -6.200339,4.35109 -12.094768,8.07404 -16.563583,10.29191 c -4.681184,2.32326 -22.03101,11.386 -28.307518,17.48561 z m -4.7922952,21.20949 c -3.7388763,3.51033 -6.8729662,9.39656 -3.4233041,15.79428 c 6.7633913,2.53608 12.5884803,-3.9933 12.5884803,-3.9933 c 0,0 -5.946067,7.1907 -11.8489511,5.21052 c 0.5209479,0.78032 1.1375993,1.56937 1.8728326,2.35799 c 8.1159755,8.70528 20.4248115,17.74285 20.4248665,17.74285 c 4.682914,5.02295 10.279295,9.79995 14.759716,13.37475 c 5.330523,1.9642 10.545559,-1.4957 10.545559,-1.4957 c 0,0 -4.421633,3.4987 -8.396746,3.1895 c 8.949836,6.8951 22.966381,15.9547 22.966381,15.9547 c 0,0 2.473556,1.3421 6.251399,3.9494 c 3.558877,0.096 5.661527,-1.8835 5.661527,-1.8835 c 0,0 -2.018437,2.2968 -3.95882,3.0863 c 1.498296,1.0777 3.142146,2.3143 4.887576,3.7211 c 5.037511,4.0602 17.757444,9.557 17.757444,9.557 c -11.39491,-12.2223 -12.313791,-15.477 -16.591924,-22.5604 c -3.38858,-5.6106 -7.5414,-10.7378 -9.847674,-13.4434 c -0.56311,1.9539 -2.134613,3.3968 -2.134613,3.3968 c 0,0 1.216264,-1.8671 1.302092,-4.3646 c -0.231258,-0.2648 -0.449186,-0.5121 -0.596006,-0.6767 c -0.72057,2.2944 -3.233387,5.0491 -3.233387,5.0491 c 0,0 2.49747,-3.3031 2.234175,-6.5822 c -1.372393,-2.3888 -5.191897,-8.84585 -11.396974,-17.8237 c -0.818613,2.94708 -3.756401,5.03675 -3.756401,5.03675 c 0,0 2.803425,-2.29485 2.925688,-6.22707 c -0.447384,-0.64112 -0.894342,-1.28666 -1.363705,-1.94907 c -1.380022,5.90881 -7.546647,9.83774 -7.546647,9.83774 c 0,0 5.815699,-4.37388 6.635163,-11.12717 c -5.950761,-8.29802 -11.810972,-14.77736 -13.683195,-16.7967 c -0.987878,1.81144 -3.264455,3.53177 -3.264455,3.53177 c 0,0 1.801212,-2.44408 2.492468,-4.50945 c -0.480671,-1.11788 -2.744682,-5.88697 -8.743824,-12.32172 c -6.145809,-6.59206 -13.819211,-3.71426 -16.015582,-1.91483 c 2.081667,-0.65991 3.47685,-1.28376 4.860511,0.20037 c 1.51643,1.62654 -0.272284,5.75299 -3.769374,9.01334 c -3.49709,3.26035 -7.668641,4.88463 -9.2612478,3.13517 c -1.5928299,-1.74971 -0.4737994,-3.80369 0.6669416,-5.46991 z m 0.3687892,0.12122 c 0,0 -1.8772674,2.91946 -0.6791301,4.27215 c 1.1980831,1.3526 4.4999121,0.0828 6.7938961,-2.09046 c -4.149338,2.03673 -5.063358,1.19477 -5.825652,0.38555 c -0.7622946,-0.80923 -0.289114,-2.56724 -0.289114,-2.56724 z"
         style="opacity:0.3;fill:#000000;fill-opacity:1;stroke:none"
         inkscape:connector-curvature="0" />
      <path
         inkscape:connector-curvature="0"
         style="fill:#000000;fill-opacity:1;stroke:none"
         d="m 18.898332,901.19404 c 0,0 -0.723425,2.04767 0.104038,3.72798 c 0.735022,1.49259 2.367859,2.16646 2.741115,2.30416 c -0.614073,0.93621 -1.280899,1.79867 -1.989469,2.5175 c -7.417331,7.52427 -20.1270408,16.58376 -18.4249177,25.46704 C 2.3612436,931.27621 5.72261,926.80444 9.9628075,923.19698 C 11.666902,920.50222 20.246385,913.28265 23.25416,909.44512 c 0.672734,-0.85834 1.293078,-2.67292 1.82657,-4.73735 c 0.478809,0.38618 2.116483,1.58785 3.985758,1.46935 c 2.222581,-0.14096 3.912265,-2.10117 3.912265,-2.10117 c 0,0 -1.929611,-1.83871 -4.15223,-1.69779 c -1.717976,0.10896 -3.103606,1.35659 -3.647337,1.92393 c 1.067412,-4.28161 1.762026,-9.4206 1.762007,-9.42062 c 0,0 -1.774688,6.83429 -4.885356,11.84423 c 0.183036,-0.73089 0.386042,-2.05929 -0.182254,-3.2133 c -0.827408,-1.68025 -2.975251,-2.31836 -2.975251,-2.31836 z m 23.5185,-13.54399 c 0,0 -1.475916,3.20728 -0.340199,5.93261 c 0.974706,2.33907 3.544557,3.55592 4.257121,3.85543 c -3.113023,3.6862 -5.78208,6.81086 -6.777055,7.6204 c -11.364911,9.74947 -42.1134578,18.22884 -37.8913148,39.61625 c 0.9015276,-5.53644 5.629065,-10.87712 7.3168995,-12.55323 C 15.147306,922.10122 31.58031,915.46208 38.862392,909.76329 c 1.453706,-1.1375 2.908748,-2.91965 4.432404,-5.0973 c 0.257778,0.53158 0.963063,1.7568 2.200284,2.28523 c 1.593405,0.68053 3.45071,-0.0897 3.45071,-0.0897 c 0,0 -0.696973,-1.95074 -2.290434,-2.63133 c -1.145295,-0.48917 -2.428921,-0.19571 -3.068982,0.0128 c 1.717667,-2.49588 3.529365,-5.46968 5.541726,-8.59627 c 0.380828,0.50555 1.850814,2.28629 3.932036,2.65876 c 2.429037,0.43471 4.753944,-1.22331 4.753944,-1.22331 c 0,0 -1.583665,-2.49763 -4.012702,-2.93234 c -1.872189,-0.33505 -3.68628,0.64576 -4.425239,1.11449 c 1.630019,-2.5212 3.385969,-5.12631 5.333991,-7.64687 c -2.513236,2.85796 -5.376809,6.2713 -7.987375,9.36495 c 0.323934,-1.01419 0.864251,-3.2924 0.01247,-5.33639 c -1.135698,-2.72531 -4.318391,-3.99597 -4.318391,-3.99597 z M 9.7043794,932.63416 c -0.2023754,0.19686 -0.3953267,0.39126 -0.573912,0.58157 c -5.0420598,5.37028 -9.50208357,13.21135 -4.7127241,18.93795 c 1.7012687,2.03418 2.820508,3.68246 3.6574602,3.79833 c 0.8371179,0.11608 2.7543635,-0.71494 3.6596035,-1.58655 c 0.905296,-0.87154 2.078733,-2.77371 1.844979,-3.5454 c -0.233642,-0.77156 -2.068205,-2.14838 -2.741706,-3.48948 c -1.9754603,-3.93398 0.437748,-8.18039 2.377334,-10.66857 C 17.772408,930.903 30.91816,923.39166 41.503741,917.1481 c 7.632453,-4.50177 13.715868,-9.09346 19.960706,-14.69147 c 0.286282,0.58275 1.371149,2.55323 3.274413,3.22535 c 2.240414,0.7913 4.753991,-0.53739 4.753991,-0.53739 c 0,0 -1.164175,-2.49887 -3.404514,-3.29008 c -1.618099,-0.57146 -3.341756,-0.0944 -4.183103,0.21446 c 2.189785,-1.97715 4.401267,-4.08286 6.714605,-6.35306 c 0.387114,0.48331 2.873449,3.43421 6.234079,3.75622 c 3.658339,0.35052 6.931786,-2.59102 6.931786,-2.59102 c -9.3e-5,-1e-4 -2.675277,-3.31294 -6.333615,-3.66346 c -2.60732,-0.24981 -5.000216,1.07121 -6.165901,1.85373 c 2.425191,-2.39358 4.954309,-4.966 7.690992,-7.77491 c -3.250727,2.87936 -6.938273,5.92765 -10.782148,8.93614 c 0.631736,-0.80777 1.879676,-2.6916 1.79348,-4.82273 c -0.114924,-2.8415 -2.566782,-5.0477 -2.566782,-5.0477 c 0,0 -2.404721,2.40909 -2.289797,5.25059 c 0.103698,2.56427 2.204592,4.59089 2.617814,4.96526 c -3.506077,2.73274 -7.129702,5.42689 -10.668466,7.92327 c 0.246657,-0.50675 0.536137,-1.32743 0.358019,-2.14745 c -0.287701,-1.32539 -1.687627,-2.14687 -1.687682,-2.14693 c 1.3e-4,1.4e-4 -0.867806,1.31961 -0.580012,2.6451 c 0.21481,0.98931 1.013213,1.70475 1.403875,2.00462 c -6.200339,4.35109 -12.094768,8.07404 -16.563583,10.29191 c -4.681184,2.32326 -22.03101,11.386 -28.3075186,17.48561 z m -4.7922948,21.20949 c -3.7388763,3.51033 -6.8729662,9.39656 -3.4233041,15.79428 c 6.7633917,2.53608 12.5884805,-3.9933 12.5884805,-3.9933 c 0,0 -5.9460668,7.1907 -11.8489513,5.21052 c 0.5209479,0.78032 1.1375993,1.56937 1.8728326,2.35799 c 8.1159757,8.70528 20.4248117,17.74287 20.4248667,17.74287 c 4.682914,5.02304 10.279295,9.79999 14.759716,13.37479 c 5.330523,1.9642 10.545559,-1.4957 10.545559,-1.4957 c 0,0 -4.421633,3.4987 -8.396746,3.1895 c 8.949836,6.8951 22.966381,15.9547 22.966381,15.9547 c 0,0 2.473556,1.342 6.251399,3.9494 c 3.558877,0.096 5.661527,-1.8835 5.661527,-1.8835 c 0,0 -2.018437,2.2968 -3.95882,3.0863 c 1.498296,1.0777 3.142146,2.3143 4.887576,3.7211 c 5.037511,4.0601 17.757444,9.5569 17.757444,9.5569 c -11.39491,-12.2222 -12.313791,-15.477 -16.591924,-22.5603 c -3.38858,-5.6107 -7.5414,-10.7379 -9.847674,-13.4434 c -0.56311,1.9539 -2.134613,3.3968 -2.134613,3.3968 c 0,0 1.216264,-1.8671 1.302092,-4.3646 c -0.231258,-0.2648 -0.449186,-0.5121 -0.596006,-0.6767 c -0.72057,2.2944 -3.233387,5.0491 -3.233387,5.0491 c 0,0 2.49747,-3.3031 2.234175,-6.5822 c -1.372393,-2.38875 -5.191897,-8.84589 -11.396974,-17.82376 c -0.818613,2.94708 -3.756401,5.03675 -3.756401,5.03675 c 0,0 2.803425,-2.29485 2.925688,-6.22707 c -0.447384,-0.64112 -0.894342,-1.28666 -1.363705,-1.94907 c -1.380022,5.90881 -7.546647,9.83776 -7.546647,9.83776 c 0,0 5.815699,-4.3739 6.635163,-11.12719 C 45.679071,970.6776 39.81886,964.19826 37.946637,962.17892 c -0.987878,1.81144 -3.264455,3.53177 -3.264455,3.53177 c 0,0 1.801212,-2.44408 2.492468,-4.50945 c -0.480671,-1.11788 -2.744682,-5.88697 -8.743824,-12.32172 c -6.145809,-6.59206 -13.819211,-3.71426 -16.015582,-1.91483 c 2.081667,-0.65991 3.47685,-1.28376 4.860511,0.20037 c 1.51643,1.62654 -0.272284,5.75299 -3.769374,9.01334 c -3.49709,3.26035 -7.6686407,4.88463 -9.261248,3.13517 c -1.5928299,-1.74971 -0.4737994,-3.80369 0.6669416,-5.46991 z m 0.3687894,0.12122 c 0,0 -1.8772676,2.91946 -0.6791303,4.27215 c 1.1980829,1.3526 4.4999118,0.0828 6.7938963,-2.09046 c -4.1493383,2.03673 -5.0633584,1.19477 -5.8256526,0.38555 C 4.8076932,955.72288 5.280874,953.96487 5.280874,953.96487 Z"
         id="path4136" />
    </g>
  </g>
</svg>
