<?xml version="1.0" encoding="UTF-8" standalone="no"?>
<!-- Created with Inkscape (http://www.inkscape.org/) -->

<svg
   xmlns:dc="http://purl.org/dc/elements/1.1/"
   xmlns:cc="http://creativecommons.org/ns#"
   xmlns:rdf="http://www.w3.org/1999/02/22-rdf-syntax-ns#"
   xmlns:svg="http://www.w3.org/2000/svg"
   xmlns="http://www.w3.org/2000/svg"
   xmlns:sodipodi="http://sodipodi.sourceforge.net/DTD/sodipodi-0.dtd"
   xmlns:inkscape="http://www.inkscape.org/namespaces/inkscape"
   width="100"
   height="166"
   id="svg2"
   version="1.1"
   inkscape:version="0.91 r13725"
   sodipodi:docname="Parsnip.svg"
   inkscape:export-filename="/Users/ratface/Sites/bracingeffect.github.io/images/parsnip-logo.png"
   inkscape:export-xdpi="90"
   inkscape:export-ydpi="90">
  <defs
     id="defs4" />
  <sodipodi:namedview
     id="base"
     pagecolor="#808080"
     bordercolor="#666666"
     borderopacity="1.0"
     inkscape:pageopacity="0"
     inkscape:pageshadow="2"
     inkscape:zoom="2.8475263"
     inkscape:cx="33.51845"
     inkscape:cy="82.877549"
     inkscape:document-units="px"
     inkscape:current-layer="g4134"
     showgrid="false"
     inkscape:window-width="1440"
     inkscape:window-height="855"
     inkscape:window-x="0"
     inkscape:window-y="23"
     inkscape:window-maximized="0"
     showguides="true"
     inkscape:guide-bbox="true" />
  <metadata
     id="metadata7">
    <rdf:RDF>
      <cc:Work
         rdf:about="">
        <dc:format>image/svg+xml</dc:format>
        <dc:type
           rdf:resource="http://purl.org/dc/dcmitype/StillImage" />
        <dc:title />
      </cc:Work>
    </rdf:RDF>
  </metadata>
  <g
     inkscape:label="Logo"
     inkscape:groupmode="layer"
     id="layer1"
     transform="translate(0,-886.36218)"
     style="display:none">
    <path
       transform="matrix(0.20951132,-0.1953283,0.1953283,0.20951132,-336.42257,684.4138)"
       inkscape:connector-curvature="0"
       style="fill:#000000;fill-opacity:1;stroke:none"
       d="m 387.34375,1408.7188 c 0,0 -7.07588,3.6911 -9.0625,10.2812 c -1.7647,5.8539 0.93555,11.757 1.59375,13.0625 c -3.99666,0.9776 -7.95033,1.6248 -11.65625,1.7813 c -38.7926,1.6371 -95.65785,-5.8617 -113.34375,22.2812 c 12.634,-7.9891 32.8751,-11.5854 53.3125,-10.6562 c 11.3334,-2.9729 52.4862,-0.8787 70.1875,-3.6563 c 3.95921,-0.6213 10.17391,-3.9442 16.78125,-8.1563 c 0.31924,2.2379 1.70985,9.5718 7.03125,13.9376 c 6.32734,5.1908 15.78125,4.1562 15.78125,4.1562 c 0,0 -0.57891,-9.7778 -6.90625,-14.9688 c -4.89081,-4.0123 -11.74177,-4.1311 -14.625,-3.9687 c 13.59861,-8.8337 28.34375,-20.9062 28.34375,-20.9063 c 0,0 -21.89662,13.9227 -42.8125,19.5938 c 2.32357,-1.5059 6.19814,-4.5678 7.5625,-9.0938 c 1.98662,-6.5898 -2.1875,-13.6874 -2.1875,-13.6874 z M 484.5,1431.25 c 0,0 -12.00441,4.9223 -15.78125,15.0938 c -3.24169,8.7298 0.61649,18.4405 1.78125,21.0312 c -17.60498,2.1071 -32.60944,3.8174 -37.3125,3.5 c -54.9796,-2.2742 -158.8779,-56.5368 -201.125,11.5312 c 16.2973,-12.6223 42.388,-15.1306 51.125,-15.4062 c 41.6814,-11.4844 102.48925,11.8505 136.34375,14.7812 c 6.75797,0.5854 15.13498,-0.5586 24.6875,-2.5937 c -0.63921,2.0748 -1.81381,7.1355 0.1875,11.6563 c 2.57756,5.8222 9.5,8.4062 9.5,8.4062 c 0,0 3.01506,-6.99 0.4375,-12.8125 c -1.85262,-4.1849 -6.0383,-6.6128 -8.28125,-7.6563 c 10.87148,-2.4043 23.19338,-5.8576 36.4375,-9.2187 c -0.24324,2.3132 -0.75451,10.7834 3.90625,17 c 5.43969,7.2555 15.84375,8.625 15.84375,8.625 c 0,0 2.00219,-10.682 -3.4375,-17.9375 c -4.19266,-5.5922 -11.52664,-7.5019 -14.6875,-8.0938 c 10.69934,-2.692 21.94748,-5.294 33.5,-7.1874 c -13.91727,1.3839 -30.16799,3.3827 -44.9375,5.1562 c 3.41223,-1.9143 10.57362,-6.6839 13.40625,-14.3125 C 489.87059,1442.6411 484.5,1431.25 484.5,1431.25 Z m -200.65625,38.9375 c -1.03729,0.022 -2.04308,0.061 -3,0.125 c -27.0103,1.7997 -58.6478,11.6992 -60.125,39.0937 c -0.5247,9.731 -1.6468,16.9662 0.3125,19.375 c 1.9592,2.4098 9.1951,4.9806 13.8125,4.9063 c 4.6174,-0.074 12.53825,-2.2463 13.84375,-4.9063 c 1.3055,-2.6594 -0.1754,-10.9575 1.375,-16.25 c 4.5485,-15.5246 21.6763,-20.8912 33.125,-22.7187 c 26.6806,-4.0601 80.8383,8.6927 124.9375,18.4375 c 31.79659,7.0262 59.65482,9.9289 90.46875,10.5312 c -0.69085,2.2838 -2.71275,10.2989 0.71875,16.875 c 4.03909,7.7413 14.125,10.4688 14.125,10.4688 c 0,0 3.13284,-9.6341 -0.90625,-17.375 c -2.91727,-5.5909 -8.7459,-8.6279 -11.78125,-9.9062 c 10.84059,0.1731 22.06167,0.055 33.96875,-0.25 c -0.17064,2.2692 -0.8824,16.4316 7.34375,25.7187 c 8.9549,10.1098 25.125,10.4063 25.125,10.4063 c 0,-5e-4 1.11115,-15.609 -7.84375,-25.7188 c -6.38222,-7.2053 -16.12453,-9.651 -21.21875,-10.4688 c 12.51688,-0.3563 25.7613,-0.9329 40.15625,-1.625 c -15.95321,-0.4067 -33.50386,-1.454 -51.375,-3 c 3.72227,-0.5881 11.79742,-2.5244 16.90625,-8.4687 c 6.81176,-7.9257 5.75,-20 5.75,-20 c 0,0 -12.50074,0.4493 -19.3125,8.375 c -6.14721,7.1524 -5.57879,17.8645 -5.40625,19.9063 c -16.27214,-1.4407 -32.76353,-3.2797 -48.53125,-5.4376 c 1.93289,-0.744 4.76758,-2.2245 6.34375,-4.875 c 2.54805,-4.2835 0.84375,-9.9997 0.84375,-10 c 0,7e-4 -5.63945,1.3723 -8.1875,5.6563 c -1.90179,3.1975 -1.54861,7.1213 -1.25,8.9063 c -27.5696,-3.8424 -52.74284,-8.6066 -70.3125,-13.8438 c -18.4046,-5.4861 -87.7502,-24.6041 -119.90625,-23.9375 z m -66.03125,45 c -18.84648,0.066 -42.02126,8.0338 -48.78125,33.875 c 11.82411,23.7655 43.84375,20.8125 43.84375,20.8125 c 0,0 -34.00205,4.4274 -44.90625,-15.6875 c -0.55518,3.4029 -0.875,7.0691 -0.875,11.0313 c 0,43.7373 10.4375,98.8747 10.4375,98.875 c 0,25.2364 3.07148,52.101 6.15625,72.9374 c 9.40582,18.6376 32.09375,22.4063 32.09375,22.4063 c 0,0 -20.65245,-1.6763 -30.5625,-12.4687 c 6.77767,40.9612 21.75,100.4374 21.75,100.4374 c 0,0 3.28552,9.806 6.90625,26.2813 c 9.32577,9.176 19.9375,9.125 19.9375,9.125 c 0,0 -11.18069,1.1151 -18.375,-1.625 c 1.32683,6.6512 2.64629,14.0947 3.8125,22.25 c 3.36584,23.5371 23.78125,70.1875 23.78125,70.1875 c 0,-61.4076 5.68614,-72.4585 11.9375,-102.2188 c 4.95176,-23.5725 6.63802,-47.7609 7.21875,-60.8124 c -6.40989,3.8407 -14.25,3.7812 -14.25,3.7812 c 0,0 7.94817,-1.9708 14.4375,-8.4688 c 0.0419,-1.2912 0.076,-2.5022 0.0937,-3.3124 c -7.68646,4.3614 -21.34375,5.4687 -21.34375,5.4687 c 0,0 14.99039,-2.6199 22.5,-12.0937 c 2.29722,-9.8599 8.21199,-36.7876 14.03125,-76.4688 c -9.58561,5.8701 -22.71875,4.125 -22.71875,4.125 c 0,0 13.28614,0.8569 23.46875,-9.4062 c 0.40409,-2.8444 0.82039,-5.6996 1.21875,-8.6563 c -18.51658,12.4241 -44.9375,7.5313 -44.9375,7.5313 c 0,0 26.59269,2.8174 45.71875,-13.2813 c 4.79934,-37.2167 5.28451,-69.318 5.3125,-79.4375 c -7.1947,2.3934 -17.625,1.3125 -17.625,1.3125 c 0,0 10.96623,-2.0557 18,-5.875 c 1.50935,-4.2093 7.375,-22.7017 7.375,-55.0313 c 0,-33.12 -27.83707,-44.6139 -38.25,-45.2812 c 7.24902,3.4428 12.5625,5.2622 12.5625,12.7188 c 0,8.1721 -15.14859,14.7812 -32.71875,14.7812 c -17.57016,0 -32.85328,-6.0878 -32.75,-14.7812 c 0.10328,-8.6946 8.25833,-11.4113 15.5,-13.0313 z m 0.6875,1.25 c 0,0 -12.36195,3.1429 -12.53125,9.7813 c -0.1692,6.638 11.8879,11.4991 23.5,11.4062 c -16.257,-4.9235 -16.6039,-9.4771 -16.625,-13.5625 c -0.0211,-4.0854 5.65625,-7.625 5.65625,-7.625 z"
       id="path3406" />
  </g>
  <g
     transform="translate(0,-886.36218)"
     id="g4134"
     inkscape:groupmode="layer"
     inkscape:label="Logo With Shadow"
     style="display:inline">
    <g
       id="g4137"
       inkscape:export-filename="/Users/ratface/Sites/bracingeffect.github.io/images/parsnip-logo_2x.png"
       inkscape:export-xdpi="180"
       inkscape:export-ydpi="180">
      <path
         id="path4138"
         d="m 23.898287,906.1941 c 0,0 -0.723425,2.04767 0.104038,3.72798 c 0.735022,1.49259 2.367859,2.16646 2.741115,2.30416 c -0.614073,0.93621 -1.280899,1.79867 -1.989469,2.5175 C 17.33664,922.26801 4.6269304,931.3275 6.3290535,940.21078 c 1.0321453,-3.93451 4.3935115,-8.40628 8.6337095,-12.01374 c 1.704094,-2.69476 10.283577,-9.91433 13.291352,-13.75186 c 0.672734,-0.85834 1.293078,-2.67292 1.82657,-4.73735 c 0.478809,0.38618 2.116483,1.58785 3.985758,1.46935 c 2.222581,-0.14096 3.912265,-2.10117 3.912265,-2.10117 c 0,0 -1.929611,-1.83871 -4.15223,-1.69779 c -1.717976,0.10896 -3.103606,1.35659 -3.647337,1.92393 c 1.067412,-4.28161 1.762026,-9.4206 1.762007,-9.42062 c 0,0 -1.774688,6.83429 -4.885356,11.84423 c 0.183036,-0.73089 0.386042,-2.05929 -0.182254,-3.2133 c -0.827408,-1.68025 -2.975251,-2.31836 -2.975251,-2.31836 z m 23.5185,-13.54399 c 0,0 -1.475916,3.20728 -0.340199,5.93261 c 0.974706,2.33907 3.544557,3.55592 4.257121,3.85543 c -3.113023,3.6862 -5.78208,6.81086 -6.777055,7.6204 C 33.191743,919.80802 2.4431964,928.28739 6.6653394,949.6748 c 0.9015276,-5.53644 5.6290646,-10.87712 7.3168996,-12.55323 c 6.165022,-10.02029 22.598026,-16.65943 29.880108,-22.35822 c 1.453706,-1.1375 2.908748,-2.91965 4.432404,-5.0973 c 0.257778,0.53158 0.963063,1.7568 2.200284,2.28523 c 1.593405,0.68053 3.45071,-0.0897 3.45071,-0.0897 c 0,0 -0.696973,-1.95074 -2.290434,-2.63133 c -1.145295,-0.48917 -2.428921,-0.19571 -3.068982,0.0128 c 1.717667,-2.49588 3.529365,-5.46968 5.541726,-8.59627 c 0.380828,0.50555 1.850814,2.28629 3.932036,2.65876 c 2.429037,0.43471 4.753944,-1.22331 4.753944,-1.22331 c 0,0 -1.583665,-2.49763 -4.012702,-2.93234 c -1.872189,-0.33505 -3.68628,0.64576 -4.425239,1.11449 c 1.630019,-2.5212 3.385969,-5.12631 5.333991,-7.64687 c -2.513236,2.85796 -5.376809,6.2713 -7.987375,9.36495 c 0.323934,-1.01419 0.864251,-3.2924 0.01247,-5.33639 c -1.135698,-2.72531 -4.318391,-3.99597 -4.318391,-3.99597 z m -32.712452,44.98411 c -0.202376,0.19686 -0.395327,0.39126 -0.573912,0.58157 c -5.0420602,5.37028 -9.502084,13.21135 -4.7127245,18.93795 c 1.7012685,2.03418 2.8205075,3.68246 3.6574605,3.79833 c 0.837118,0.11608 2.754363,-0.71494 3.659603,-1.58655 c 0.905296,-0.87154 2.078733,-2.77371 1.844979,-3.5454 c -0.233642,-0.77156 -2.068205,-2.14838 -2.741706,-3.48948 c -1.97546,-3.93398 0.437748,-8.18039 2.377334,-10.66857 c 4.556994,-5.75901 17.702746,-13.27035 28.288327,-19.51391 c 7.632453,-4.50177 13.715868,-9.09346 19.960706,-14.69147 c 0.286282,0.58275 1.371149,2.55323 3.274413,3.22535 c 2.240414,0.7913 4.753991,-0.53739 4.753991,-0.53739 c 0,0 -1.164175,-2.49887 -3.404514,-3.29008 c -1.618099,-0.57146 -3.341756,-0.0944 -4.183103,0.21446 c 2.189785,-1.97715 4.401267,-4.08286 6.714605,-6.35306 c 0.387114,0.48331 2.873449,3.43421 6.234079,3.75622 c 3.658339,0.35052 6.931786,-2.59102 6.931786,-2.59102 c -9.3e-5,-10e-5 -2.675277,-3.31294 -6.333615,-3.66346 c -2.60732,-0.24981 -5.000216,1.07121 -6.165901,1.85373 c 2.425191,-2.39358 4.954309,-4.966 7.690992,-7.77491 c -3.250727,2.87936 -6.938273,5.92765 -10.782148,8.93614 c 0.631736,-0.80777 1.879676,-2.6916 1.79348,-4.82273 c -0.114924,-2.8415 -2.566782,-5.0477 -2.566782,-5.0477 c 0,0 -2.404721,2.40909 -2.289797,5.25059 c 0.103698,2.56427 2.204592,4.59089 2.617814,4.96526 c -3.506077,2.73274 -7.129702,5.42689 -10.668466,7.92327 c 0.246657,-0.50675 0.536137,-1.32743 0.358019,-2.14745 c -0.287701,-1.32539 -1.687627,-2.14687 -1.687682,-2.14693 c 1.3e-4,1.4e-4 -0.867806,1.31961 -0.580012,2.6451 c 0.21481,0.98931 1.013213,1.70475 1.403875,2.00462 c -6.200339,4.35109 -12.094768,8.07404 -16.563583,10.29191 c -4.681184,2.32326 -22.03101,11.386 -28.307518,17.48561 z m -4.7922952,21.20949 c -3.7388763,3.51033 -6.8729662,9.39656 -3.4233041,15.79428 c 6.7633913,2.53608 12.5884803,-3.9933 12.5884803,-3.9933 c 0,0 -5.946067,7.1907 -11.8489511,5.21052 c 0.5209479,0.78032 1.1375993,1.56937 1.8728326,2.35799 c 8.1159755,8.70528 20.4248115,17.74285 20.4248665,17.74285 c 4.682914,5.02295 10.279295,9.79995 14.759716,13.37475 c 5.330523,1.9642 10.545559,-1.4957 10.545559,-1.4957 c 0,0 -4.421633,3.4987 -8.396746,3.1895 c 8.949836,6.8951 22.966381,15.9547 22.966381,15.9547 c 0,0 2.473556,1.3421 6.251399,3.9494 c 3.558877,0.096 5.661527,-1.8835 5.661527,-1.8835 c 0,0 -2.018437,2.2968 -3.95882,3.0863 c 1.498296,1.0777 3.142146,2.3143 4.887576,3.7211 c 5.037511,4.0602 17.757444,9.557 17.757444,9.557 c -11.39491,-12.2223 -12.313791,-15.477 -16.591924,-22.5604 c -3.38858,-5.6106 -7.5414,-10.7378 -9.847674,-13.4434 c -0.56311,1.9539 -2.134613,3.3968 -2.134613,3.3968 c 0,0 1.216264,-1.8671 1.302092,-4.3646 c -0.231258,-0.2648 -0.449186,-0.5121 -0.596006,-0.6767 c -0.72057,2.2944 -3.233387,5.0491 -3.233387,5.0491 c 0,0 2.49747,-3.3031 2.234175,-6.5822 c -1.372393,-2.3888 -5.191897,-8.84585 -11.396974,-17.8237 c -0.818613,2.94708 -3.756401,5.03675 -3.756401,5.03675 c 0,0 2.803425,-2.29485 2.925688,-6.22707 c -0.447384,-0.64112 -0.894342,-1.28666 -1.363705,-1.94907 c -1.380022,5.90881 -7.546647,9.83774 -7.546647,9.83774 c 0,0 5.815699,-4.37388 6.635163,-11.12717 c -5.950761,-8.29802 -11.810972,-14.77736 -13.683195,-16.7967 c -0.987878,1.81144 -3.264455,3.53177 -3.264455,3.53177 c 0,0 1.801212,-2.44408 2.492468,-4.50945 c -0.480671,-1.11788 -2.744682,-5.88697 -8.743824,-12.32172 c -6.145809,-6.59206 -13.819211,-3.71426 -16.015582,-1.91483 c 2.081667,-0.65991 3.47685,-1.28376 4.860511,0.20037 c 1.51643,1.62654 -0.272284,5.75299 -3.769374,9.01334 c -3.49709,3.26035 -7.668641,4.88463 -9.2612478,3.13517 c -1.5928299,-1.74971 -0.4737994,-3.80369 0.6669416,-5.46991 z m 0.3687892,0.12122 c 0,0 -1.8772674,2.91946 -0.6791301,4.27215 c 1.1980831,1.3526 4.4999121,0.0828 6.7938961,-2.09046 c -4.149338,2.03673 -5.063358,1.19477 -5.825652,0.38555 c -0.7622946,-0.80923 -0.289114,-2.56724 -0.289114,-2.56724 z"
         style="opacity:0.3;fill:#000000;fill-opacity:1;stroke:none"
         inkscape:connector-curvature="0" />
      <path
         inkscape:connector-curvature="0"
         style="fill:#000000;fill-opacity:1;stroke:none"
         d="m 18.898332,901.19404 c 0,0 -0.723425,2.04767 0.104038,3.72798 c 0.735022,1.49259 2.367859,2.16646 2.741115,2.30416 c -0.614073,0.93621 -1.280899,1.79867 -1.989469,2.5175 c -7.417331,7.52427 -20.1270408,16.58376 -18.4249177,25.46704 C 2.3612436,931.27621 5.72261,926.80444 9.9628075,923.19698 C 11.666902,920.50222 20.246385,913.28265 23.25416,909.44512 c 0.672734,-0.85834 1.293078,-2.67292 1.82657,-4.73735 c 0.478809,0.38618 2.116483,1.58785 3.985758,1.46935 c 2.222581,-0.14096 3.912265,-2.10117 3.912265,-2.10117 c 0,0 -1.929611,-1.83871 -4.15223,-1.69779 c -1.717976,0.10896 -3.103606,1.35659 -3.647337,1.92393 c 1.067412,-4.28161 1.762026,-9.4206 1.762007,-9.42062 c 0,0 -1.774688,6.83429 -4.885356,11.84423 c 0.183036,-0.73089 0.386042,-2.05929 -0.182254,-3.2133 c -0.827408,-1.68025 -2.975251,-2.31836 -2.975251,-2.31836 z m 23.5185,-13.54399 c 0,0 -1.475916,3.20728 -0.340199,5.93261 c 0.974706,2.33907 3.544557,3.55592 4.257121,3.85543 c -3.113023,3.6862 -5.78208,6.81086 -6.777055,7.6204 c -11.364911,9.74947 -42.1134578,18.22884 -37.8913148,39.61625 c 0.9015276,-5.53644 5.629065,-10.87712 7.3168995,-12.55323 C 15.147306,922.10122 31.58031,915.46208 38.862392,909.76329 c 1.453706,-1.1375 2.908748,-2.91965 4.432404,-5.0973 c 0.257778,0.53158 0.963063,1.7568 2.200284,2.28523 c 1.593405,0.68053 3.45071,-0.0897 3.45071,-0.0897 c 0,0 -0.696973,-1.95074 -2.290434,-2.63133 c -1.145295,-0.48917 -2.428921,-0.19571 -3.068982,0.0128 c 1.717667,-2.49588 3.529365,-5.46968 5.541726,-8.59627 c 0.380828,0.50555 1.850814,2.28629 3.932036,2.65876 c 2.429037,0.43471 4.753944,-1.22331 4.753944,-1.22331 c 0,0 -1.583665,-2.49763 -4.012702,-2.93234 c -1.872189,-0.33505 -3.68628,0.64576 -4.425239,1.11449 c 1.630019,-2.5212 3.385969,-5.12631 5.333991,-7.64687 c -2.513236,2.85796 -5.376809,6.2713 -7.987375,9.36495 c 0.323934,-1.01419 0.864251,-3.2924 0.01247,-5.33639 c -1.135698,-2.72531 -4.318391,-3.99597 -4.318391,-3.99597 z M 9.7043794,932.63416 c -0.2023754,0.19686 -0.3953267,0.39126 -0.573912,0.58157 c -5.0420598,5.37028 -9.50208357,13.21135 -4.7127241,18.93795 c 1.7012687,2.03418 2.820508,3.68246 3.6574602,3.79833 c 0.8371179,0.11608 2.7543635,-0.71494 3.6596035,-1.58655 c 0.905296,-0.87154 2.078733,-2.77371 1.844979,-3.5454 c -0.233642,-0.77156 -2.068205,-2.14838 -2.741706,-3.48948 c -1.9754603,-3.93398 0.437748,-8.18039 2.377334,-10.66857 C 17.772408,930.903 30.91816,923.39166 41.503741,917.1481 c 7.632453,-4.50177 13.715868,-9.09346 19.960706,-14.69147 c 0.286282,0.58275 1.371149,2.55323 3.274413,3.22535 c 2.240414,0.7913 4.753991,-0.53739 4.753991,-0.53739 c 0,0 -1.164175,-2.49887 -3.404514,-3.29008 c -1.618099,-0.57146 -3.341756,-0.0944 -4.183103,0.21446 c 2.189785,-1.97715 4.401267,-4.08286 6.714605,-6.35306 c 0.387114,0.48331 2.873449,3.43421 6.234079,3.75622 c 3.658339,0.35052 6.931786,-2.59102 6.931786,-2.59102 c -9.3e-5,-1e-4 -2.675277,-3.31294 -6.333615,-3.66346 c -2.60732,-0.24981 -5.000216,1.07121 -6.165901,1.85373 c 2.425191,-2.39358 4.954309,-4.966 7.690992,-7.77491 c -3.250727,2.87936 -6.938273,5.92765 -10.782148,8.93614 c 0.631736,-0.80777 1.879676,-2.6916 1.79348,-4.82273 c -0.114924,-2.8415 -2.566782,-5.0477 -2.566782,-5.0477 c 0,0 -2.404721,2.40909 -2.289797,5.25059 c 0.103698,2.56427 2.204592,4.59089 2.617814,4.96526 c -3.506077,2.73274 -7.129702,5.42689 -10.668466,7.92327 c 0.246657,-0.50675 0.536137,-1.32743 0.358019,-2.14745 c -0.287701,-1.32539 -1.687627,-2.14687 -1.687682,-2.14693 c 1.3e-4,1.4e-4 -0.867806,1.31961 -0.580012,2.6451 c 0.21481,0.98931 1.013213,1.70475 1.403875,2.00462 c -6.200339,4.35109 -12.094768,8.07404 -16.563583,10.29191 c -4.681184,2.32326 -22.03101,11.386 -28.3075186,17.48561 z m -4.7922948,21.20949 c -3.7388763,3.51033 -6.8729662,9.39656 -3.4233041,15.79428 c 6.7633917,2.53608 12.5884805,-3.9933 12.5884805,-3.9933 c 0,0 -5.9460668,7.1907 -11.8489513,5.21052 c 0.5209479,0.78032 1.1375993,1.56937 1.8728326,2.35799 c 8.1159757,8.70528 20.4248117,17.74287 20.4248667,17.74287 c 4.682914,5.02304 10.279295,9.79999 14.759716,13.37479 c 5.330523,1.9642 10.545559,-1.4957 10.545559,-1.4957 c 0,0 -4.421633,3.4987 -8.396746,3.1895 c 8.949836,6.8951 22.966381,15.9547 22.966381,15.9547 c 0,0 2.473556,1.342 6.251399,3.9494 c 3.558877,0.096 5.661527,-1.8835 5.661527,-1.8835 c 0,0 -2.018437,2.2968 -3.95882,3.0863 c 1.498296,1.0777 3.142146,2.3143 4.887576,3.7211 c 5.037511,4.0601 17.757444,9.5569 17.757444,9.5569 c -11.39491,-12.2222 -12.313791,-15.477 -16.591924,-22.5603 c -3.38858,-5.6107 -7.5414,-10.7379 -9.847674,-13.4434 c -0.56311,1.9539 -2.134613,3.3968 -2.134613,3.3968 c 0,0 1.216264,-1.8671 1.302092,-4.3646 c -0.231258,-0.2648 -0.449186,-0.5121 -0.596006,-0.6767 c -0.72057,2.2944 -3.233387,5.0491 -3.233387,5.0491 c 0,0 2.49747,-3.3031 2.234175,-6.5822 c -1.372393,-2.38875 -5.191897,-8.84589 -11.396974,-17.82376 c -0.818613,2.94708 -3.756401,5.03675 -3.756401,5.03675 c 0,0 2.803425,-2.29485 2.925688,-6.22707 c -0.447384,-0.64112 -0.894342,-1.28666 -1.363705,-1.94907 c -1.380022,5.90881 -7.546647,9.83776 -7.546647,9.83776 c 0,0 5.815699,-4.3739 6.635163,-11.12719 C 45.679071,970.6776 39.81886,964.19826 37.946637,962.17892 c -0.987878,1.81144 -3.264455,3.53177 -3.264455,3.53177 c 0,0 1.801212,-2.44408 2.492468,-4.50945 c -0.480671,-1.11788 -2.744682,-5.88697 -8.743824,-12.32172 c -6.145809,-6.59206 -13.819211,-3.71426 -16.015582,-1.91483 c 2.081667,-0.65991 3.47685,-1.28376 4.860511,0.20037 c 1.51643,1.62654 -0.272284,5.75299 -3.769374,9.01334 c -3.49709,3.26035 -7.6686407,4.88463 -9.261248,3.13517 c -1.5928299,-1.74971 -0.4737994,-3.80369 0.6669416,-5.46991 z m 0.3687894,0.12122 c 0,0 -1.8772676,2.91946 -0.6791303,4.27215 c 1.1980829,1.3526 4.4999118,0.0828 6.7938963,-2.09046 c -4.1493383,2.03673 -5.0633584,1.19477 -5.8256526,0.38555 C 4.8076932,955.72288 5.280874,953.96487 5.280874,953.96487 Z"
         id="path4136" />
    </g>
  </g>
</svg>
