<?xml version="1.0" encoding="UTF-8" standalone="no"?>
<!-- Created with Inkscape (http://www.inkscape.org/) -->

<svg
   xmlns:dc="http://purl.org/dc/elements/1.1/"
   xmlns:cc="http://creativecommons.org/ns#"
   xmlns:rdf="http://www.w3.org/1999/02/22-rdf-syntax-ns#"
   xmlns:svg="http://www.w3.org/2000/svg"
   xmlns="http://www.w3.org/2000/svg"
   xmlns:xlink="http://www.w3.org/1999/xlink"
   xmlns:sodipodi="http://sodipodi.sourceforge.net/DTD/sodipodi-0.dtd"
   xmlns:inkscape="http://www.inkscape.org/namespaces/inkscape"
   width="150"
   height="150"
   id="svg2"
   version="1.1"
   inkscape:version="0.91 r13725"
   sodipodi:docname="Parsnip.svg"
   inkscape:export-filename="/Users/ratface/Sites/bracingeffect.github.io/images/parsnip-logo_2x.png"
   inkscape:export-xdpi="180"
   inkscape:export-ydpi="180">
  <defs
     id="defs4">
    <linearGradient
       inkscape:collect="always"
       id="linearGradient4143">
      <stop
         style="stop-color:#204000;stop-opacity:1"
         offset="0"
         id="stop4145" />
      <stop
         style="stop-color:#a2d100;stop-opacity:1"
         offset="1"
         id="stop4147" />
    </linearGradient>
    <linearGradient
       inkscape:collect="always"
       xlink:href="#linearGradient4143"
       id="linearGradient4149"
       x1="74.694672"
       y1="905.72107"
       x2="74.694672"
       y2="1050.0569"
       gradientUnits="userSpaceOnUse" />
  </defs>
  <sodipodi:namedview
     id="base"
     pagecolor="#808080"
     bordercolor="#666666"
     borderopacity="1.0"
     inkscape:pageopacity="0"
     inkscape:pageshadow="2"
     inkscape:zoom="2.8475263"
     inkscape:cx="113.58795"
     inkscape:cy="68.830269"
     inkscape:document-units="px"
     inkscape:current-layer="layer1"
     showgrid="false"
     inkscape:window-width="1440"
     inkscape:window-height="855"
     inkscape:window-x="17"
     inkscape:window-y="43"
     inkscape:window-maximized="0"
     showguides="true"
     inkscape:guide-bbox="true" />
  <metadata
     id="metadata7">
    <rdf:RDF>
      <cc:Work
         rdf:about="">
        <dc:format>image/svg+xml</dc:format>
        <dc:type
           rdf:resource="http://purl.org/dc/dcmitype/StillImage" />
        <dc:title />
      </cc:Work>
    </rdf:RDF>
  </metadata>
  <g
     inkscape:label="Logo"
     inkscape:groupmode="layer"
     id="layer1"
     transform="translate(0,-902.36218)"
     style="display:inline">
    <circle
       style="opacity:1;fill:#ffffff;fill-opacity:1;fill-rule:nonzero;stroke:none;stroke-width:10.34300041;stroke-miterlimit:4;stroke-dasharray:none;stroke-opacity:1"
       id="path4139"
       cx="75"
       cy="977.36218"
       r="75" />
    <circle
       r="73"
       cy="977.36218"
       cx="75"
       id="circle4141"
       style="opacity:1;fill:url(#linearGradient4149);fill-opacity:1;fill-rule:nonzero;stroke:none;stroke-width:10.34300041;stroke-miterlimit:4;stroke-dasharray:none;stroke-opacity:1" />
    <path
       inkscape:connector-curvature="0"
       style="fill:#ffffff;fill-opacity:1;stroke:none"
       d="m 45.975227,922.38858 c 0,0 -0.601103,1.70145 0.08645,3.09763 c 0.61074,1.24023 1.967485,1.80015 2.277628,1.91457 c -0.510242,0.77789 -1.064317,1.49454 -1.653076,2.09181 c -6.163158,6.25201 -16.723815,13.77968 -15.309499,21.16088 c 0.857626,-3.26921 3.65063,-6.98487 7.173864,-9.98235 c 1.415944,-2.23911 8.544751,-8.23795 11.04395,-11.42659 c 0.558983,-0.71322 1.074435,-2.22098 1.51772,-3.93633 c 0.397848,0.32088 1.758614,1.31936 3.311816,1.2209 c 1.846773,-0.11712 3.250751,-1.7459 3.250751,-1.7459 c 0,0 -1.603337,-1.5278 -3.450141,-1.41071 c -1.427486,0.0905 -2.578824,1.12722 -3.030618,1.59863 c 0.886927,-3.55765 1.464092,-7.82771 1.464074,-7.82772 c 0,0 -1.474609,5.67871 -4.059303,9.84154 c 0.152086,-0.60732 0.320766,-1.7111 -0.15144,-2.67 c -0.687501,-1.39614 -2.472171,-1.92636 -2.472171,-1.92636 z m 19.54182,-11.25385 c 0,0 -1.226357,2.66497 -0.282675,4.92948 c 0.809893,1.94355 2.945217,2.95465 3.537295,3.20352 c -2.586649,3.0629 -4.804404,5.65924 -5.63114,6.33189 c -9.443249,8.10095 -34.992608,15.14657 -31.484378,32.91765 c 0.749093,-4.60031 4.677264,-9.03796 6.079702,-10.43065 c 5.122602,-8.32598 18.776993,-13.84252 24.827767,-18.57773 c 1.207903,-0.94517 2.416915,-2.42597 3.682938,-4.23541 c 0.214193,0.4417 0.800225,1.45974 1.828246,1.89883 c 1.32398,0.56545 2.867239,-0.0744 2.867239,-0.0744 c 0,0 -0.579123,-1.62092 -1.90315,-2.18642 c -0.951641,-0.40644 -2.01822,-0.1626 -2.550057,0.0106 c 1.427232,-2.07382 2.932594,-4.54479 4.604691,-7.14272 c 0.316433,0.42006 1.537865,1.89971 3.267178,2.2092 c 2.018318,0.36121 3.950112,-1.01646 3.950112,-1.01646 c 0,0 -1.315887,-2.07533 -3.334205,-2.43653 c -1.555623,-0.27838 -3.062975,0.53657 -3.676988,0.92606 c 1.354405,-2.0949 2.813445,-4.25953 4.432081,-6.3539 c -2.088278,2.37472 -4.467659,5.21091 -6.636811,7.78147 c 0.269162,-0.84272 0.718118,-2.73571 0.01034,-4.43409 c -0.943663,-2.26448 -3.588204,-3.3203 -3.588204,-3.3203 z m -27.181196,37.37786 c -0.168155,0.16358 -0.328475,0.32511 -0.476873,0.48322 c -4.18951,4.46226 -7.895398,10.9775 -3.915854,15.7358 c 1.413603,1.69021 2.343595,3.0598 3.039027,3.15607 c 0.695579,0.0965 2.288639,-0.59405 3.040812,-1.31828 c 0.752227,-0.72417 1.727249,-2.30472 1.533017,-2.94592 c -0.194139,-0.6411 -1.718499,-1.78513 -2.278123,-2.89945 c -1.641434,-3.26878 0.36374,-6.79719 1.975357,-8.86465 c 3.786467,-4.78524 14.70944,-11.02651 23.505136,-16.21437 c 6.3419,-3.74058 11.396686,-7.55586 16.585603,-12.2073 c 0.237875,0.4842 1.139304,2.12149 2.720752,2.67997 c 1.861587,0.6575 3.95015,-0.44653 3.95015,-0.44653 c 0,0 -0.967328,-2.07633 -2.828855,-2.73378 c -1.344499,-0.47481 -2.776707,-0.0782 -3.475793,0.17821 c 1.819522,-1.64284 3.657068,-3.39248 5.57925,-5.27883 c 0.32166,0.4016 2.387586,2.85353 5.179977,3.12109 c 3.03976,0.29125 5.759697,-2.1529 5.759697,-2.1529 c -6.8e-5,-10e-5 -2.222913,-2.75277 -5.26267,-3.04402 c -2.166454,-0.2076 -4.154743,0.89006 -5.123323,1.54027 c 2.015121,-1.98884 4.116598,-4.1263 6.390539,-6.46026 c -2.701069,2.39249 -5.765099,4.92536 -8.959022,7.42515 c 0.524919,-0.67118 1.561847,-2.23649 1.490225,-4.00727 c -0.09548,-2.36105 -2.132773,-4.1942 -2.132773,-4.1942 c 0,0 -1.998111,2.00174 -1.902618,4.36279 c 0.08615,2.13069 1.831821,3.81462 2.175173,4.1257 c -2.913242,2.27064 -5.924159,4.50927 -8.864564,6.58355 c 0.204951,-0.42108 0.445483,-1.103 0.297484,-1.78435 c -0.239055,-1.10129 -1.402271,-1.78387 -1.402318,-1.78391 c 1.09e-4,10e-5 -0.72107,1.09646 -0.481938,2.19783 c 0.178487,0.82204 0.841891,1.41651 1.166497,1.66568 c -5.15194,3.61537 -10.049696,6.70881 -13.762891,8.55167 c -3.889656,1.93043 -18.305847,9.46077 -23.521081,14.52902 z m -3.981976,17.62323 c -3.106676,2.91678 -5.710834,7.80769 -2.844468,13.12369 c 5.619788,2.10726 10.459932,-3.31812 10.459932,-3.31812 c 0,0 -4.94066,5.97487 -9.845451,4.32952 c 0.432869,0.64832 0.945252,1.30394 1.556169,1.9593 c 6.743664,7.23326 16.971232,14.74277 16.971279,14.74277 c 3.891092,4.17372 8.541196,8.14312 12.264034,11.11342 c 4.429198,1.632 8.762439,-1.2429 8.762439,-1.2429 c 0,0 -3.67399,2.9071 -6.976962,2.6503 c 7.436532,5.7291 19.083056,13.2567 19.083056,13.2567 c 0,0 2.05531,1.1153 5.194367,3.2817 c 2.957117,0.078 4.704239,-1.5649 4.704239,-1.5649 c 0,0 -1.677149,1.9082 -3.289436,2.5644 c 1.244953,0.8955 2.610844,1.9229 4.061154,3.0919 c 4.185725,3.3736 14.754873,7.941 14.754873,7.941 c -9.468158,-10.1558 -10.231678,-12.8601 -13.786434,-18.7457 c -2.815612,-4.6619 -6.266246,-8.9221 -8.182556,-11.1703 c -0.467898,1.6236 -1.773677,2.8224 -1.773677,2.8224 c 0,0 1.010608,-1.5514 1.081924,-3.6266 c -0.192155,-0.22 -0.373236,-0.4253 -0.495228,-0.5622 c -0.598733,1.9065 -2.686664,4.1952 -2.686664,4.1952 c 0,0 2.07518,-2.7443 1.856405,-5.4689 c -1.140339,-1.9851 -4.314014,-7.35038 -9.469891,-14.81021 c -0.680196,2.44873 -3.12124,4.18504 -3.12124,4.18504 c 0,0 2.3294,-1.90676 2.43099,-5.1741 c -0.371737,-0.53274 -0.743122,-1.06918 -1.133119,-1.61958 c -1.146677,4.90974 -6.270603,8.17438 -6.270603,8.17438 c 0,0 4.832334,-3.63422 5.513238,-9.24574 c -4.944563,-6.89496 -9.813886,-12.27872 -11.36954,-13.95661 c -0.820841,1.50519 -2.712478,2.93458 -2.712478,2.93458 c 0,0 1.496651,-2.03083 2.071023,-3.74692 c -0.399394,-0.92886 -2.28059,-4.89156 -7.265352,-10.23827 C 48.789266,956.53364 42.413341,958.92482 40.588347,960.42 c 1.729681,-0.54833 2.888958,-1.0667 4.03866,0.1665 c 1.260021,1.35151 -0.226244,4.78022 -3.132019,7.48929 c -2.90578,2.70908 -6.371972,4.05871 -7.695288,2.60504 c -1.323512,-1.45383 -0.393691,-3.16052 0.554166,-4.545 z m 0.306431,0.10064 c 0,0 -1.559842,2.42582 -0.564296,3.54978 c 0.995501,1.12389 3.739041,0.0687 5.645134,-1.73699 c -3.447742,1.69236 -4.207202,0.99278 -4.840608,0.32035 c -0.6334,-0.6724 -0.24023,-2.13314 -0.24023,-2.13314 z"
       id="path3406" />
  </g>
</svg>
