<?xml version="1.0" encoding="UTF-8" standalone="no"?>
<!-- Created with Inkscape (http://www.inkscape.org/) -->

<svg
   xmlns:dc="http://purl.org/dc/elements/1.1/"
   xmlns:cc="http://creativecommons.org/ns#"
   xmlns:rdf="http://www.w3.org/1999/02/22-rdf-syntax-ns#"
   xmlns:svg="http://www.w3.org/2000/svg"
   xmlns="http://www.w3.org/2000/svg"
   xmlns:sodipodi="http://sodipodi.sourceforge.net/DTD/sodipodi-0.dtd"
   xmlns:inkscape="http://www.inkscape.org/namespaces/inkscape"
   width="150"
   height="100"
   viewBox="0 0 150 100"
   id="svg2"
   version="1.1"
   inkscape:version="0.91 r13725"
   sodipodi:docname="Twitter.svg"
   inkscape:export-filename="/Users/ratface/Sites/bracingeffect.github.io/images/twitter.png"
   inkscape:export-xdpi="9"
   inkscape:export-ydpi="9">
  <defs
     id="defs4" />
  <sodipodi:namedview
     id="base"
     pagecolor="#808080"
     bordercolor="#666666"
     borderopacity="1.0"
     inkscape:pageopacity="0"
     inkscape:pageshadow="2"
     inkscape:zoom="0.70710678"
     inkscape:cx="237.56873"
     inkscape:cy="196.59069"
     inkscape:document-units="px"
     inkscape:current-layer="g4139"
     showgrid="false"
     showguides="true"
     inkscape:guide-bbox="true"
     units="px"
     inkscape:window-width="1440"
     inkscape:window-height="851"
     inkscape:window-x="0"
     inkscape:window-y="1"
     inkscape:window-maximized="1"
     inkscape:snap-bbox="true"
     inkscape:bbox-paths="true"
     inkscape:bbox-nodes="true"
     inkscape:snap-bbox-edge-midpoints="true"
     inkscape:snap-bbox-midpoints="true"
     inkscape:object-paths="true"
     inkscape:snap-intersection-paths="true"
     inkscape:object-nodes="true"
     inkscape:snap-smooth-nodes="true"
     inkscape:snap-midpoints="true" />
  <metadata
     id="metadata7">
    <rdf:RDF>
      <cc:Work
         rdf:about="">
        <dc:format>image/svg+xml</dc:format>
        <dc:type
           rdf:resource="http://purl.org/dc/dcmitype/StillImage" />
        <dc:title />
      </cc:Work>
    </rdf:RDF>
  </metadata>
  <g
     inkscape:label="Light"
     inkscape:groupmode="layer"
     id="layer1"
     transform="translate(0,-952.36221)"
     style="display:none">
    <path
       style="fill:#ffffff;fill-opacity:1;fill-rule:evenodd;stroke:none;stroke-width:1px;stroke-linecap:butt;stroke-linejoin:miter;stroke-opacity:1"
       d="M 0,0 L 75,75 L 150,0 L 0,0 Z M 0,12 L 0,88 L 38,50 L 0,12 Z m 150,0 l -38,38 l 38,38 l 0,-76 z M 44,56 L 0,100 l 150,0 L 106,56 L 75,87 L 44,56 Z"
       transform="translate(0,952.36221)"
       id="path4323"
       inkscape:export-filename="/Users/ratface/Sites/bracingeffect.github.io/Images/envelope.png"
       inkscape:export-xdpi="19.799999"
       inkscape:export-ydpi="19.799999"
       inkscape:connector-curvature="0" />
  </g>
  <g
     transform="translate(0,-952.36221)"
     id="g4134"
     inkscape:groupmode="layer"
     inkscape:label="Dark"
     style="display:none">
    <path
       inkscape:export-ydpi="19.799999"
       inkscape:export-xdpi="19.799999"
       inkscape:export-filename="/Users/ratface/Sites/bracingeffect.github.io/Images/envelope-dark.png"
       id="path4136"
       transform="translate(0,952.36221)"
       d="M 0,0 L 75,75 L 150,0 L 0,0 Z M 0,12 L 0,88 L 38,50 L 0,12 Z m 150,0 l -38,38 l 38,38 l 0,-76 z M 44,56 L 0,100 l 150,0 L 106,56 L 75,87 L 44,56 Z"
       style="fill:#000000;fill-opacity:1;fill-rule:evenodd;stroke:none;stroke-width:1px;stroke-linecap:butt;stroke-linejoin:miter;stroke-opacity:1"
       inkscape:connector-curvature="0" />
  </g>
  <g
     style="display:none"
     transform="translate(0,-952.36221)"
     id="g4136"
     inkscape:groupmode="layer"
     inkscape:label="Shadowed">
    <path
       sodipodi:nodetypes="ccccc"
       inkscape:connector-curvature="0"
       id="path4157"
       d="M 10.000011,962.36222 L 10,1052.3622 l 140,0 l 0,-89.99998 z"
       style="opacity:0.3;fill:#000000;fill-opacity:1;fill-rule:evenodd;stroke:none;stroke-width:1px;stroke-linecap:butt;stroke-linejoin:miter;stroke-opacity:1"
       inkscape:export-filename="/Users/ratface/Sites/bracingeffect.github.io/images/envelope_2x.png"
       inkscape:export-xdpi="39.600002"
       inkscape:export-ydpi="39.600002" />
    <path
       style="fill:#ffffff;fill-opacity:1;fill-rule:evenodd;stroke:none;stroke-width:1px;stroke-linecap:butt;stroke-linejoin:miter;stroke-opacity:1"
       d="M 140,0 L 0,0 L 70,69.99999 Z M 0,10.800781 L 0,79.199219 L 34.199219,45 Z m 140,0 L 105.80078,45 L 140,79.199219 Z M 140,90 L 100.40039,50.400391 L 70,80.79999 L 39.599609,50.400391 L 0,90 Z"
       transform="translate(0,952.36221)"
       id="path4138"
       inkscape:connector-curvature="0"
       sodipodi:nodetypes="cccccccccccccccccc"
       inkscape:export-filename="/Users/ratface/Sites/bracingeffect.github.io/images/envelope_2x.png"
       inkscape:export-xdpi="39.600002"
       inkscape:export-ydpi="39.600002" />
  </g>
  <g
     inkscape:label="Encircled"
     inkscape:groupmode="layer"
     id="g4139"
     transform="translate(0,-952.36221)"
     style="display:inline">
    <path
       style="opacity:1;fill:#ffffff;fill-opacity:1;fill-rule:nonzero;stroke:none;stroke-width:10.34300041;stroke-miterlimit:4;stroke-dasharray:none;stroke-opacity:1"
       d="M 200 -300 A 200 200 0 0 0 0 -100 A 200 200 0 0 0 200 100 A 200 200 0 0 0 400 -100 A 200 200 0 0 0 200 -300 z M 247.33594 -200 C 261.85835 -200 274.98036 -193.86992 284.18945 -184.05664 C 295.69097 -186.32077 306.4953 -190.52153 316.25195 -196.30859 C 312.48293 -184.51789 304.47633 -174.6235 294.05273 -168.375 C 304.26468 -169.59566 313.99674 -172.30785 323.05078 -176.32422 C 316.28177 -166.19966 307.72238 -157.30671 297.85742 -150.18945 C 297.95465 -148.02251 298.00391 -145.84727 298.00391 -143.6582 C 298.00391 -76.936533 247.21752 0 154.34766 0 C 125.83441 0 99.293949 -8.3608 76.949219 -22.6875 C 80.899129 -22.2199 84.918711 -21.980469 88.994141 -21.980469 C 112.65059 -21.980469 134.42119 -30.05085 151.70117 -43.59375 C 129.60623 -43.99975 110.95889 -58.599773 104.5332 -78.658203 C 107.61685 -78.070003 110.77975 -77.751953 114.0332 -77.751953 C 118.63775 -77.751953 123.09931 -78.369238 127.33594 -79.523438 C 104.23814 -84.162438 86.832031 -104.56884 86.832031 -129.03125 C 86.832031 -129.24411 86.832891 -129.45562 86.837891 -129.66602 C 93.645061 -125.88469 101.43066 -123.61362 109.70703 -123.35156 C 96.159177 -132.40562 87.246094 -147.85948 87.246094 -165.37695 C 87.246094 -174.63034 89.735891 -183.30291 94.082031 -190.75977 C 118.98498 -160.21253 156.18773 -140.10931 198.15039 -138.00391 C 197.29027 -141.69911 196.84375 -145.55439 196.84375 -149.51172 C 196.84375 -177.39492 219.45271 -200 247.33594 -200 z "
       transform="translate(0,952.36221)"
       id="path4255" />
  </g>
</svg>
