<?xml version="1.0" encoding="UTF-8" standalone="no"?>
<!-- Created with Inkscape (http://www.inkscape.org/) -->

<svg
   xmlns:dc="http://purl.org/dc/elements/1.1/"
   xmlns:cc="http://creativecommons.org/ns#"
   xmlns:rdf="http://www.w3.org/1999/02/22-rdf-syntax-ns#"
   xmlns:svg="http://www.w3.org/2000/svg"
   xmlns="http://www.w3.org/2000/svg"
   xmlns:sodipodi="http://sodipodi.sourceforge.net/DTD/sodipodi-0.dtd"
   xmlns:inkscape="http://www.inkscape.org/namespaces/inkscape"
   width="150"
   height="100"
   viewBox="0 0 150 100"
   id="svg2"
   version="1.1"
   inkscape:version="0.91 r13725"
   sodipodi:docname="Twitter.svg"
   inkscape:export-filename="/Users/ratface/Sites/bracingeffect.github.io/images/twitter_2x.png"
   inkscape:export-xdpi="18"
   inkscape:export-ydpi="18">
  <defs
     id="defs4" />
  <sodipodi:namedview
     id="base"
     pagecolor="#808080"
     bordercolor="#666666"
     borderopacity="1.0"
     inkscape:pageopacity="0"
     inkscape:pageshadow="2"
     inkscape:zoom="0.70710678"
     inkscape:cx="87.662092"
     inkscape:cy="196.59069"
     inkscape:document-units="px"
     inkscape:current-layer="g4139"
     showgrid="false"
     showguides="true"
     inkscape:guide-bbox="true"
     units="px"
     inkscape:window-width="1440"
     inkscape:window-height="851"
     inkscape:window-x="0"
     inkscape:window-y="1"
     inkscape:window-maximized="1"
     inkscape:snap-bbox="true"
     inkscape:bbox-paths="true"
     inkscape:bbox-nodes="true"
     inkscape:snap-bbox-edge-midpoints="true"
     inkscape:snap-bbox-midpoints="true"
     inkscape:object-paths="true"
     inkscape:snap-intersection-paths="true"
     inkscape:object-nodes="true"
     inkscape:snap-smooth-nodes="true"
     inkscape:snap-midpoints="true" />
  <metadata
     id="metadata7">
    <rdf:RDF>
      <cc:Work
         rdf:about="">
        <dc:format>image/svg+xml</dc:format>
        <dc:type
           rdf:resource="http://purl.org/dc/dcmitype/StillImage" />
        <dc:title />
      </cc:Work>
    </rdf:RDF>
  </metadata>
  <g
     inkscape:label="Encircled"
     inkscape:groupmode="layer"
     id="g4139"
     transform="translate(0,-952.36221)"
     style="display:inline">
    <path
       id="path4141"
       d="m 220,672.36222 a 200,200 0 0 0 -200,200 A 200,200 0 0 0 220,1072.3622 A 200,200 0 0 0 420,872.36222 a 200,200 0 0 0 -200,-200 z m 47.33594,100 c 14.52241,0 27.64442,6.13008 36.85351,15.94336 c 11.50152,-2.26413 22.30585,-6.46489 32.0625,-12.25195 c -3.76902,11.7907 -11.77562,21.68509 -22.19922,27.93359 c 10.21195,-1.22066 19.94401,-3.93285 28.99805,-7.94922 c -6.76901,10.12456 -15.3284,19.01751 -25.19336,26.13477 c 0.0972,2.16694 0.14649,4.34218 0.14649,6.53125 c 0,66.72167 -50.78639,143.6582 -143.65625,143.6582 c -28.51325,0 -55.05371,-8.3608 -77.398441,-22.6875 c 3.949911,0.4676 7.969491,0.70703 12.044921,0.70703 c 23.65645,0 45.42705,-8.07038 62.70703,-21.61328 c -22.09494,-0.406 -40.74228,-15.00602 -47.16797,-35.06445 c 3.08365,0.5882 6.24655,0.90625 9.5,0.90625 c 4.60455,0 9.06611,-0.61729 13.30274,-1.77149 c -23.0978,-4.639 -40.50391,-25.0454 -40.50391,-49.50781 c 0,-0.21286 8.6e-4,-0.42437 0.006,-0.63477 c 6.80717,3.78133 14.59277,6.0524 22.86914,6.31446 c -13.54785,-9.05406 -22.46094,-24.50792 -22.46094,-42.02539 c 0,-9.25339 2.4898,-17.92596 6.83594,-25.38282 c 24.90295,30.54724 62.1057,50.65046 104.06836,52.75586 c -0.86012,-3.6952 -1.30664,-7.55048 -1.30664,-11.50781 c 0,-27.8832 22.60896,-50.48828 50.49219,-50.48828 z"
       style="opacity:0.3;fill:#000000;fill-opacity:1;fill-rule:nonzero;stroke:none;stroke-width:10.34300041;stroke-miterlimit:4;stroke-dasharray:none;stroke-opacity:1"
       inkscape:connector-curvature="0"
       inkscape:export-filename="/Users/ratface/Sites/bracingeffect.github.io/images/twitter_2x.png"
       inkscape:export-xdpi="18.9"
       inkscape:export-ydpi="18.9" />
    <path
       style="opacity:1;fill:#ffffff;fill-opacity:1;fill-rule:nonzero;stroke:none;stroke-width:10.34300041;stroke-miterlimit:4;stroke-dasharray:none;stroke-opacity:1"
       d="M 200 -300 A 200 200 0 0 0 0 -100 A 200 200 0 0 0 200 100 A 200 200 0 0 0 400 -100 A 200 200 0 0 0 200 -300 z M 247.33594 -200 C 261.85835 -200 274.98036 -193.86992 284.18945 -184.05664 C 295.69097 -186.32077 306.4953 -190.52153 316.25195 -196.30859 C 312.48293 -184.51789 304.47633 -174.6235 294.05273 -168.375 C 304.26468 -169.59566 313.99674 -172.30785 323.05078 -176.32422 C 316.28177 -166.19966 307.72238 -157.30671 297.85742 -150.18945 C 297.95465 -148.02251 298.00391 -145.84727 298.00391 -143.6582 C 298.00391 -76.936533 247.21752 0 154.34766 0 C 125.83441 0 99.293949 -8.3608 76.949219 -22.6875 C 80.899129 -22.2199 84.918711 -21.980469 88.994141 -21.980469 C 112.65059 -21.980469 134.42119 -30.05085 151.70117 -43.59375 C 129.60623 -43.99975 110.95889 -58.599773 104.5332 -78.658203 C 107.61685 -78.070003 110.77975 -77.751953 114.0332 -77.751953 C 118.63775 -77.751953 123.09931 -78.369238 127.33594 -79.523438 C 104.23814 -84.162438 86.832031 -104.56884 86.832031 -129.03125 C 86.832031 -129.24411 86.832891 -129.45562 86.837891 -129.66602 C 93.645061 -125.88469 101.43066 -123.61362 109.70703 -123.35156 C 96.159177 -132.40562 87.246094 -147.85948 87.246094 -165.37695 C 87.246094 -174.63034 89.735891 -183.30291 94.082031 -190.75977 C 118.98498 -160.21253 156.18773 -140.10931 198.15039 -138.00391 C 197.29027 -141.69911 196.84375 -145.55439 196.84375 -149.51172 C 196.84375 -177.39492 219.45271 -200 247.33594 -200 z "
       transform="translate(0,952.36221)"
       id="path4255" />
  </g>
</svg>
